<svg width="750" height="582" viewBox="0 0 750 582" fill="none" xmlns="http://www.w3.org/2000/svg">
<g clip-path="url(#clip0)">
<g opacity="0.2">
<g opacity="0.2">
<path opacity="0.2" d="M113.821 246.618C79.2199 270.512 50.9815 301.792 32.077 336.832C-2.02464 400.077 -21.9282 496.021 40.8062 551.564C112.585 615.124 217.099 574.486 302.761 597.881C357.318 612.785 399.649 651.478 453.076 669.248C531.56 695.324 628.449 667.513 674.145 606.161C715.162 551.065 713.874 476.938 682.349 417.031C650.824 357.125 592.612 310.362 527.8 276.663C445.556 233.842 349.982 193.651 251.884 199.039C200.587 201.852 153.102 219.464 113.821 246.618Z" fill="#A8DADC"/>
</g>
</g>
<g opacity="0.2">
<g opacity="0.2">
<path opacity="0.2" d="M534.531 510.4C594.452 535.425 668.151 542.522 712.927 494.024C757.704 445.526 760.438 374.605 729.124 318.616C699.518 265.728 647.38 229.19 616.249 177.196C598.528 147.597 590.903 112.847 573.576 83.0383C539.448 24.2885 466.065 -8.3853 404.014 1.86634C345.171 11.566 300.079 64.7168 252.279 108.878C227.248 132.01 190.281 146.572 159.229 163.5C125.548 181.875 94.2333 201.195 71.5164 233.58C27.6864 296.009 36.0738 345.349 68.4927 392.638C100.912 439.9 184.601 455.646 249.86 441.083C355.11 417.557 437.09 469.735 534.531 510.4Z" fill="#A8DADC"/>
</g>
</g>
<path d="M624.085 376.866C635.838 385.777 653.375 385.094 665.075 375.262C672.306 369.164 677.196 360.043 678.695 350.422C680.614 338.12 676.802 325.056 668.467 316.723C660.132 308.39 647.38 305.262 636.285 309.231C609.966 318.642 601.579 359.806 624.085 376.866Z" fill="#B8B42D"/>
<path d="M618.442 307.689L615.397 308.927L635.603 358.575L638.648 357.336L618.442 307.689Z" fill="black"/>
<path d="M699.985 320.835L640.894 346.145L642.188 349.165L701.279 323.855L699.985 320.835Z" fill="black"/>
<path d="M655.833 309.357L565.511 527.275L568.547 528.532L658.869 310.615L655.833 309.357Z" fill="black"/>
<path d="M655.478 413.982C655.031 425.811 663.55 436.983 675.381 440.111C682.717 442.056 690.947 441.057 697.94 437.613C706.88 433.224 713.716 424.707 715.346 415.402C716.976 406.096 713.164 396.291 705.46 390.85C687.187 377.944 656.319 391.376 655.478 413.982Z" fill="#B8B42D"/>
<path d="M678.253 415.028L676.938 418.039L716.645 435.384L717.961 432.373L678.253 415.028Z" fill="black"/>
<path d="M667.305 381.18L664.019 381.212L664.402 421.692L667.689 421.661L667.305 381.18Z" fill="black"/>
<path d="M713.025 400.211L600.664 445.384L601.89 448.432L714.251 403.259L713.025 400.211Z" fill="black"/>
<path d="M669.071 527.88C669.071 527.88 641.437 377.654 544.312 377.654C447.187 377.654 418.975 527.88 418.975 527.88" fill="#FF6542"/>
<path d="M213.602 283.339C207.055 281.473 203.138 292.908 201.113 302.134L190.018 286.941L153.103 311.545L164.54 350.08L214.075 319.877C214.049 319.851 226.065 286.888 213.602 283.339Z" fill="#9B4A3A"/>
<path d="M498.484 357.677V437.14L472.822 465.451L416.267 527.88H299.764L304.444 419.187L498.484 357.677Z" fill="#5E60CE"/>
<path d="M434.908 316.46L427.02 347.688L347.879 342.72L357.344 318.51L364.023 261.758L418.738 226.062L434.908 316.46Z" fill="#B2614E"/>
<path d="M395.864 261.574C389.659 278.319 376.04 291.909 359.659 298.927L363.84 263.467L380.167 252.742C385.426 255.713 390.474 258.604 395.864 261.574Z" fill="black"/>
<path d="M425.942 197.804L424.654 201.169L400.859 264.098C400.859 264.098 368.729 297.219 335.574 268.12C317.169 251.927 311.884 209.028 321.034 175.408C321.324 174.33 321.639 173.279 321.955 172.227L322.086 171.754C322.139 171.544 322.218 171.334 322.296 171.123C322.323 171.018 322.349 170.913 322.402 170.808C322.796 169.599 323.217 168.39 323.664 167.207C323.953 166.339 324.268 165.525 324.61 164.71C325.031 163.632 325.478 162.58 325.925 161.529C330.789 150.462 337.599 141.341 346.433 135.926C348.431 134.691 350.535 133.639 352.77 132.824C353.795 132.43 354.82 132.115 355.898 131.826C356.74 131.589 357.634 131.379 358.501 131.221C360.815 130.774 363.182 130.538 365.679 130.564C365.916 130.564 366.126 130.564 366.363 130.564C387.581 130.722 401.253 139.343 410.035 150.305C421.157 164.158 424.496 181.822 425.495 191.232C425.522 191.574 425.574 191.89 425.601 192.205L425.653 192.678L425.706 193.598C425.758 194.466 425.811 195.228 425.863 195.833C425.916 196.7 425.942 197.305 425.942 197.594C425.942 197.725 425.942 197.804 425.942 197.804Z" fill="#B2614E"/>
<path d="M351.403 232.765C349.431 232.765 347.511 231.924 346.17 230.478C344.829 229.032 344.146 227.061 344.304 225.063L346.302 199.828L349.588 200.091L347.59 225.326C347.511 226.403 347.853 227.455 348.589 228.244C349.326 229.032 350.325 229.479 351.429 229.479L351.403 232.765Z" fill="black"/>
<path d="M366.757 202.378C366.757 204.297 367.861 205.848 369.228 205.848C370.596 205.848 371.7 204.297 371.7 202.378C371.7 200.459 370.596 198.908 369.228 198.908C367.861 198.908 366.757 200.459 366.757 202.378Z" fill="black"/>
<path d="M329.106 202.404C329.106 204.323 330.211 205.874 331.578 205.874C332.945 205.874 334.049 204.323 334.049 202.404C334.049 200.485 332.945 198.934 331.578 198.934C330.211 198.934 329.106 200.485 329.106 202.404Z" fill="black"/>
<path d="M375.303 186.159C376.381 186.422 377.432 186.764 378.3 187.316C379.141 187.868 379.746 188.656 379.615 189.366C379.378 190.575 377.38 191.075 375.618 191.206C371.832 191.522 367.783 191.075 364.049 189.971C362.735 189.576 361.315 188.972 360.894 188.052C359.948 185.896 363.944 185.239 365.574 185.134C368.729 184.95 372.174 185.371 375.303 186.159Z" fill="black"/>
<path d="M335.732 185.134C336.678 185.213 337.651 185.371 338.44 185.739C339.229 186.107 339.834 186.738 339.807 187.421C339.728 188.551 338.072 189.287 336.547 189.682C333.287 190.523 329.737 190.733 326.398 190.286C325.215 190.128 323.926 189.813 323.453 189.024C322.375 187.211 325.767 186.028 327.187 185.686C329.895 185.029 332.919 184.871 335.732 185.134Z" fill="black"/>
<path d="M563.874 476.622L366.442 407.91C366.442 407.91 342.858 491.527 300.158 519.153C295.189 522.387 289.957 524.831 284.488 526.303C280.649 527.328 276.705 527.907 272.63 527.907C230.088 527.907 185.995 443.107 163.936 393.768C154.891 373.501 149.527 359.228 149.527 359.228L221.832 315.146L237.634 339.855L266.451 384.883C266.451 384.883 289.536 342.326 303.366 330.024C317.222 317.722 356.688 318.747 356.688 318.747C368.493 362.855 435.145 316.697 435.145 316.697C435.145 316.697 484.444 313.122 500.272 319.247C518.73 326.396 581.569 430.437 563.874 476.622Z" fill="#5E60CE"/>
<path d="M472.823 465.451L416.267 527.88H395.075L371.543 442.529L450.526 412.799L461.306 380.493L472.823 465.451Z" fill="#5E44CE"/>
<path d="M358.607 475.413C347.039 478.725 339.466 476.097 338.625 469.893C337.915 464.793 355.768 460.745 371.412 459.615C381.929 458.853 393.787 456.303 393.787 456.303" fill="#B2614E"/>
<path d="M393.787 456.303L414.505 513.423C414.505 513.423 349.299 526.408 343.436 520.336C339.913 516.709 342.753 513.896 342.753 513.896C342.753 513.896 336.311 515.999 333.471 513.134C330.632 510.269 332.788 506.694 332.788 506.694C332.788 506.694 326.951 507.693 326.477 502.278C325.952 496.363 342.016 485.218 358.581 475.413" fill="#B2614E"/>
<path d="M333.919 507.929L331.71 505.511C332.104 505.143 341.412 496.731 355.794 490.344L357.135 493.34C343.2 499.491 333.997 507.824 333.919 507.929Z" fill="black"/>
<path d="M343.647 515.289L341.886 512.529C342.306 512.266 352.14 506.037 362.184 501.778L363.472 504.801C353.691 508.928 343.753 515.21 343.647 515.289Z" fill="black"/>
<path d="M368.782 84.116C377.984 82.0657 388.264 86.4555 393.155 94.5254C398.045 102.595 397.204 113.714 391.157 120.943C385.109 128.172 374.277 130.958 365.469 127.541C344.908 119.602 347.248 88.8738 368.782 84.116Z" fill="black"/>
<path d="M563.874 476.622C551.7 509.533 491.332 521.335 449.658 525.541C426.415 527.907 409.009 527.907 409.009 527.907L386.45 446.892L416.713 435.905L461.332 419.712V380.231L563.874 476.622Z" fill="#5E60CE"/>
<path d="M304.364 419.187L300.105 519.153C295.136 522.36 289.903 524.831 284.435 526.303L304.364 419.187Z" fill="#5E44CE"/>
<path d="M264.798 275.793C290.303 258.922 297.299 224.575 280.425 199.077C263.55 173.578 229.194 166.584 203.689 183.454C178.185 200.325 171.189 234.672 188.063 260.171C204.938 285.669 239.294 292.664 264.798 275.793Z" fill="#FF6542"/>
<path d="M150.631 336.201C144.9 331.732 144.084 323.373 148.817 317.853L215.338 240.335L228.247 250.455L168.878 333.572C164.645 339.487 156.363 340.67 150.631 336.201Z" fill="#FF6542"/>
<path d="M266.924 255.266C264.558 258.289 261.824 260.917 258.879 263.073C252.963 267.436 246.074 270.065 239.001 270.88C228.511 272.089 217.573 269.329 208.607 262.31C204.453 259.051 201.087 255.161 198.537 250.876C193.199 241.912 191.464 231.24 193.568 221.12C194.83 215.074 197.459 209.212 201.534 204.034C210.526 192.573 224.33 187.106 237.845 188.262C241.841 188.604 245.811 189.524 249.624 191.048C252.91 192.363 256.092 194.124 259.063 196.332C259.326 196.542 259.589 196.753 259.852 196.937C261.508 198.225 263.033 199.644 264.453 201.116C278.362 215.836 279.781 238.863 266.924 255.266Z" fill="#A8DADC"/>
<g opacity="0.5">
<path opacity="0.5" d="M259.063 196.358L239.002 270.906C228.511 272.115 217.573 269.355 208.607 262.337C204.453 259.077 201.088 255.187 198.537 250.902L249.624 191.075C252.91 192.389 256.092 194.15 259.063 196.358Z" fill="white"/>
</g>
<g opacity="0.5">
<path opacity="0.5" d="M266.924 255.266C264.558 258.289 261.824 260.917 258.879 263.073L264.453 201.142C278.362 215.836 279.782 238.863 266.924 255.266Z" fill="white"/>
</g>
<g opacity="0.5">
<path opacity="0.5" d="M237.871 188.262L193.594 221.12C194.856 215.074 197.485 209.212 201.56 204.034C210.526 192.573 224.356 187.106 237.871 188.262Z" fill="white"/>
</g>
<path d="M195.144 316.329C195.144 316.329 197.642 319.352 193.856 322.559C190.149 325.713 157.178 319.43 153.181 313.7C147.581 305.683 170.298 276.426 183.418 277.188C193.856 277.819 213.26 300.846 212.182 306.576C211.183 311.807 205.583 310.257 205.583 310.257C205.583 310.257 207.344 313.937 204.294 316.486C201.218 319.036 195.144 316.329 195.144 316.329Z" fill="#B2614E"/>
<path d="M204.347 311.387C204.268 311.308 196.065 302.239 183.103 294.879L184.733 292.014C198.195 299.663 206.45 308.811 206.792 309.179L204.347 311.387Z" fill="black"/>
<path d="M194.119 317.617C194.04 317.538 184.943 310.441 175.793 305.446L177.371 302.555C186.757 307.681 195.775 314.725 196.17 315.014L194.119 317.617Z" fill="black"/>
<path d="M327.95 228.322C318.695 228.322 311.175 220.804 311.175 211.552C311.175 202.299 318.695 194.781 327.95 194.781C337.205 194.781 344.724 202.299 344.724 211.552C344.724 220.804 337.205 228.322 327.95 228.322ZM327.95 198.067C320.509 198.067 314.461 204.113 314.461 211.552C314.461 218.991 320.509 225.037 327.95 225.037C335.39 225.037 341.438 218.991 341.438 211.552C341.438 204.113 335.39 198.067 327.95 198.067Z" fill="#FF6542"/>
<path d="M365.917 228.322C356.662 228.322 349.143 220.804 349.143 211.552C349.143 202.299 356.662 194.781 365.917 194.781C375.172 194.781 382.692 202.299 382.692 211.552C382.692 220.804 375.172 228.322 365.917 228.322ZM365.917 198.067C358.477 198.067 352.429 204.113 352.429 211.552C352.429 218.991 358.477 225.037 365.917 225.037C373.358 225.037 379.406 218.991 379.406 211.552C379.406 204.113 373.358 198.067 365.917 198.067Z" fill="#FF6542"/>
<path d="M350.797 209.659H343.094V212.945H350.797V209.659Z" fill="#FF6542"/>
<path d="M420.199 186.817L380.206 209.878L381.848 212.724L421.841 189.663L420.199 186.817Z" fill="#FF6542"/>
<path d="M425.522 191.232C410.903 191.653 396.101 187.158 384.321 178.431C372.437 169.625 363.813 156.587 360.027 142.314C351.035 155.667 337.573 166.024 322.297 171.123C322.323 171.018 322.349 170.913 322.402 170.808C322.796 169.599 323.217 168.39 323.664 167.207C323.953 166.339 324.269 165.525 324.611 164.71C325.031 163.632 325.478 162.58 325.925 161.529C330.789 150.462 337.599 141.341 346.434 135.926C348.432 134.691 350.535 133.639 352.77 132.824C353.796 132.43 354.821 132.115 355.899 131.826C356.74 131.589 357.634 131.379 358.502 131.221C360.816 130.774 363.182 130.538 365.68 130.564C365.917 130.564 366.127 130.564 366.363 130.564C387.582 130.722 401.254 139.343 410.036 150.305C421.158 164.158 424.497 181.822 425.522 191.232Z" fill="black"/>
<path d="M412.323 195.57C414.663 191.784 419.343 189.787 423.787 190.076C428.23 190.365 432.358 192.757 435.382 196.043C442.244 203.534 442.98 215.915 437.038 224.169C431.096 232.423 419.107 235.656 409.825 231.503" fill="#B2614E"/>
<path d="M426.6 219.543L423.313 219.306C423.707 213.97 421.709 208.45 417.976 204.612L419.211 201.826L429.124 202.062L429.045 205.348L422.682 205.19C425.522 209.37 426.941 214.522 426.6 219.543Z" fill="black"/>
<path d="M352.664 241.492L352.454 238.206C354.794 238.048 356.503 237.523 357.686 236.603C358.922 235.656 359.685 234.132 359.764 232.581L363.05 232.738C362.945 235.236 361.683 237.654 359.711 239.205C357.976 240.545 355.662 241.308 352.664 241.492Z" fill="black"/>
<path d="M386.319 360.306C374.934 360.306 364.023 357.02 355.741 350.869C343.173 341.537 336.915 325.345 340.544 311.466L343.725 312.307C340.438 324.924 346.17 339.697 357.686 348.24C368.125 355.995 383.059 358.86 397.599 355.889C410.167 353.34 422.656 346.794 434.672 336.438C445.083 327.448 453.865 316.881 463.436 304.973L465.986 307.023C456.31 319.062 447.45 329.761 436.801 338.935C424.365 349.66 411.376 356.468 398.23 359.123C394.286 359.911 390.263 360.306 386.319 360.306Z" fill="black"/>
<path d="M237.608 339.829L163.883 393.768C154.838 373.501 149.475 359.228 149.475 359.228L221.78 315.146L237.608 339.829Z" fill="white"/>
<path d="M449.658 525.541C426.415 527.907 409.009 527.907 409.009 527.907L386.45 446.892L416.713 435.905L449.658 525.541Z" fill="white"/>
<path d="M170.588 375.63C166.775 375.63 163.699 372.529 163.699 368.743C163.699 364.932 166.802 361.856 170.588 361.856C174.4 361.856 177.477 364.958 177.477 368.743C177.477 372.555 174.374 375.63 170.588 375.63ZM170.588 365.116C168.59 365.116 166.96 366.746 166.96 368.743C166.96 370.741 168.59 372.371 170.588 372.371C172.586 372.371 174.216 370.741 174.216 368.743C174.19 366.746 172.56 365.116 170.588 365.116Z" fill="black"/>
<path d="M422.341 513.633C418.528 513.633 415.452 510.531 415.452 506.746C415.452 502.935 418.555 499.859 422.341 499.859C426.153 499.859 429.23 502.961 429.23 506.746C429.23 510.558 426.127 513.633 422.341 513.633ZM422.341 503.119C420.343 503.119 418.712 504.749 418.712 506.746C418.712 508.744 420.343 510.374 422.341 510.374C424.339 510.374 425.969 508.744 425.969 506.746C425.943 504.749 424.313 503.119 422.341 503.119Z" fill="black"/>
<path d="M89.5795 527.197C77.9844 510.085 67.8354 496.048 63.4445 475.834C59.0273 455.646 60.8678 433.46 71.8582 415.954C82.8485 398.447 103.935 386.723 124.338 390.009C142.349 392.901 157.178 406.569 166.039 422.525C174.899 438.481 178.738 456.645 182.445 474.493C189.492 458.458 207.239 447.997 224.724 449.022C242.209 450.047 258.405 462.191 264.794 478.489C271.183 494.786 267.765 514.369 256.643 527.907" fill="#FF6542"/>
<path d="M111.376 528.827L108.668 526.987C108.931 526.619 114.952 517.813 124.759 509.007C137.879 497.231 151.473 491.237 164.093 491.658C181.183 492.236 196.67 504.144 210.105 527.066L207.266 528.722C194.435 506.825 179.869 495.469 163.962 494.944C163.567 494.917 163.173 494.917 162.778 494.917C134.777 494.917 111.613 528.459 111.376 528.827Z" fill="white"/>
<path d="M91.7344 454.621C101.042 467.974 116.292 478.83 130.569 484.666L130.779 484.824C146.791 471.234 153.049 447.287 145.687 427.625C140.691 414.245 130.358 403.441 124.705 390.324C119.789 378.864 118.684 366.194 116.134 353.997C115.74 352.104 115.293 350.185 114.793 348.293C114.583 348.372 114.372 348.424 114.162 348.477C110.218 349.555 105.643 346.978 104.513 343.036C103.461 339.329 105.643 334.992 109.193 333.546C106.695 328.894 103.514 324.714 99.3855 321.376C91.6818 315.146 79.3768 313.122 72.2515 320.035C66.5722 325.555 66.1778 334.571 67.6239 342.352C71.0946 360.936 82.6634 377.549 84.2672 396.397C85.2401 407.673 82.5319 418.976 82.8737 430.28C82.9789 433.776 83.6099 437.193 84.6353 440.531C84.9245 440.4 85.2401 440.268 85.5556 440.19C94.7843 437.377 99.2804 450.651 91.7344 454.621Z" fill="#A8DADC"/>
<path d="M91.75 353.358L88.6113 354.332L142.652 528.349L145.79 527.375L91.75 353.358Z" fill="black"/>
<path d="M68.8569 368.79L66.625 371.202L105.107 406.796L107.339 404.385L68.8569 368.79Z" fill="black"/>
<path d="M134.628 384.926L115.415 439.557L118.516 440.647L137.729 386.016L134.628 384.926Z" fill="black"/>
<path d="M112.812 325.606L97.8252 383.639L101.008 384.461L115.994 326.428L112.812 325.606Z" fill="black"/>
<path d="M78.7358 420.474L76.8115 423.137L119.805 454.18L121.729 451.517L78.7358 420.474Z" fill="black"/>
</g>
<defs>
<clipPath id="clip0">
<rect width="750" height="679" fill="white"/>
</clipPath>
</defs>
</svg>
