<?xml version="1.0" encoding="utf-8"?>
<!-- Generator: Adobe Illustrator 23.0.6, SVG Export Plug-In . SVG Version: 6.00 Build 0)  -->
<svg version="1.1" id="OBJECTS" xmlns="http://www.w3.org/2000/svg" xmlns:xlink="http://www.w3.org/1999/xlink" x="0px" y="0px"
	 viewBox="0 0 452.1 276.4" style="enable-background:new 0 0 452.1 276.4;" xml:space="preserve">
<style type="text/css">
	.st0{fill-rule:evenodd;clip-rule:evenodd;fill:#84788F;}
	.st1{fill-rule:evenodd;clip-rule:evenodd;fill:#7E6C82;}
	.st2{fill-rule:evenodd;clip-rule:evenodd;fill:#725166;}
	.st3{fill-rule:evenodd;clip-rule:evenodd;fill:#844E8F;}
	.st4{fill-rule:evenodd;clip-rule:evenodd;fill:#7F4784;}
	.st5{fill-rule:evenodd;clip-rule:evenodd;fill:#6C2D59;}
	.st6{fill-rule:evenodd;clip-rule:evenodd;fill:#738067;}
	.st7{fill-rule:evenodd;clip-rule:evenodd;fill:#6C6656;}
	.st8{fill-rule:evenodd;clip-rule:evenodd;fill:#68594D;}
	.st9{fill-rule:evenodd;clip-rule:evenodd;fill:#EFAF9E;}
	.st10{fill-rule:evenodd;clip-rule:evenodd;fill:#EEAD9A;}
	.st11{fill-rule:evenodd;clip-rule:evenodd;fill:#1E1925;}
	.st12{fill-rule:evenodd;clip-rule:evenodd;fill:#7B4652;}
	.st13{fill-rule:evenodd;clip-rule:evenodd;fill:#EDA08C;}
	.st14{fill-rule:evenodd;clip-rule:evenodd;fill:#E86870;}
	.st15{fill-rule:evenodd;clip-rule:evenodd;fill:#3D211A;}
	.st16{fill-rule:evenodd;clip-rule:evenodd;fill:#FAFFFF;}
	.st17{fill-rule:evenodd;clip-rule:evenodd;fill:#000313;}
	.st18{fill-rule:evenodd;clip-rule:evenodd;fill:#C7CFDF;}
	.st19{fill-rule:evenodd;clip-rule:evenodd;fill:#EA8A0F;}
	.st20{fill-rule:evenodd;clip-rule:evenodd;fill:#C06029;}
	.st21{fill-rule:evenodd;clip-rule:evenodd;fill:#E2E9FA;}
	.st22{fill-rule:evenodd;clip-rule:evenodd;fill:#EFA92E;}
	.st23{fill-rule:evenodd;clip-rule:evenodd;fill:#2C2C39;}
	.st24{fill-rule:evenodd;clip-rule:evenodd;fill:#3F6C8F;}
	.st25{fill-rule:evenodd;clip-rule:evenodd;fill:#5DBFFC;}
	.st26{fill-rule:evenodd;clip-rule:evenodd;fill:#E00022;}
	.st27{fill-rule:evenodd;clip-rule:evenodd;fill:#C4AA2B;}
	.st28{fill-rule:evenodd;clip-rule:evenodd;fill:#E6EBFE;}
	.st29{fill-rule:evenodd;clip-rule:evenodd;fill:#C19C7C;}
	.st30{fill-rule:evenodd;clip-rule:evenodd;fill:#D7DCEB;}
	.st31{fill-rule:evenodd;clip-rule:evenodd;fill:#303879;}
	.st32{fill-rule:evenodd;clip-rule:evenodd;fill:#ADB2C1;}
	.st33{fill-rule:evenodd;clip-rule:evenodd;fill:#491925;}
	.st34{fill-rule:evenodd;clip-rule:evenodd;fill:#48222F;}
	.st35{fill-rule:evenodd;clip-rule:evenodd;fill:#54598F;}
	.st36{fill-rule:evenodd;clip-rule:evenodd;fill:#48426D;}
	.st37{fill-rule:evenodd;clip-rule:evenodd;fill:#6D79B7;}
	.st38{fill-rule:evenodd;clip-rule:evenodd;fill:#FAF2FF;}
	.st39{fill-rule:evenodd;clip-rule:evenodd;fill:#BF99A8;}
	.st40{fill-rule:evenodd;clip-rule:evenodd;fill:#393A48;}
	.st41{fill-rule:evenodd;clip-rule:evenodd;fill:#292E3D;}
	.st42{fill-rule:evenodd;clip-rule:evenodd;fill:#151A29;}
	.st43{fill-rule:evenodd;clip-rule:evenodd;fill:#DE1922;}
	.st44{fill-rule:evenodd;clip-rule:evenodd;fill:#E4574E;}
	.st45{fill-rule:evenodd;clip-rule:evenodd;fill:#2E3342;}
	.st46{fill-rule:evenodd;clip-rule:evenodd;fill:#172751;}
	.st47{fill-rule:evenodd;clip-rule:evenodd;fill:#314B8F;}
	.st48{fill-rule:evenodd;clip-rule:evenodd;fill:#F5F8FF;}
	.st49{fill-rule:evenodd;clip-rule:evenodd;fill:#E9D79F;}
	.st50{fill-rule:evenodd;clip-rule:evenodd;fill:#ECD28A;}
	.st51{fill-rule:evenodd;clip-rule:evenodd;fill:#64442F;}
	.st52{fill-rule:evenodd;clip-rule:evenodd;fill:#925A33;}
	.st53{fill-rule:evenodd;clip-rule:evenodd;fill:#E9EEFE;}
	.st54{fill-rule:evenodd;clip-rule:evenodd;fill:#172D68;}
	.st55{fill-rule:evenodd;clip-rule:evenodd;fill:#00A0F7;}
	.st56{fill-rule:evenodd;clip-rule:evenodd;fill:#EC910F;}
	.st57{fill-rule:evenodd;clip-rule:evenodd;fill:#25B2F7;}
	.st58{fill-rule:evenodd;clip-rule:evenodd;fill:#203C99;}
	.st59{fill-rule:evenodd;clip-rule:evenodd;fill:#EFAF9B;}
	.st60{fill-rule:evenodd;clip-rule:evenodd;fill:#15131A;}
	.st61{fill-rule:evenodd;clip-rule:evenodd;fill:#F7D00F;}
	.st62{fill-rule:evenodd;clip-rule:evenodd;fill:#131113;}
	.st63{fill-rule:evenodd;clip-rule:evenodd;fill:#7B6E2F;}
	.st64{fill-rule:evenodd;clip-rule:evenodd;fill:#E8C830;}
	.st65{fill-rule:evenodd;clip-rule:evenodd;fill:#292635;}
	.st66{fill-rule:evenodd;clip-rule:evenodd;fill:#30303C;}
	.st67{fill-rule:evenodd;clip-rule:evenodd;fill:#30303D;}
	.st68{fill-rule:evenodd;clip-rule:evenodd;fill:#FADA4A;}
	.st69{fill-rule:evenodd;clip-rule:evenodd;fill:#9F68FA;}
	.st70{fill-rule:evenodd;clip-rule:evenodd;fill:#002D5A;}
	.st71{fill-rule:evenodd;clip-rule:evenodd;fill:#44437F;}
	.st72{fill-rule:evenodd;clip-rule:evenodd;fill:#F5D9D6;}
	.st73{fill-rule:evenodd;clip-rule:evenodd;fill:#4E4D8F;}
	.st74{fill-rule:evenodd;clip-rule:evenodd;fill:#EC5A33;}
	.st75{fill-rule:evenodd;clip-rule:evenodd;fill:#AD71FF;}
	.st76{fill-rule:evenodd;clip-rule:evenodd;fill:#AE83FF;}
	.st77{fill-rule:evenodd;clip-rule:evenodd;fill:#829CBF;}
	.st78{fill-rule:evenodd;clip-rule:evenodd;fill:#FAFDFF;}
	.st79{fill-rule:evenodd;clip-rule:evenodd;fill:#F1F9F9;}
	.st80{fill-rule:evenodd;clip-rule:evenodd;fill:#999EAE;}
</style>
<g>
	<g>
		<g>
			<path class="st0" d="M112.2,236.6c-5.8-38.5-72.8-62.1-112.2-53C15.2,227.1,73.2,258,112.2,236.6z"/>
			<path class="st1" d="M0,183.6c15.2,43.5,73.2,74.4,112.2,53C91,214.3,30.5,188.8,0,183.6z"/>
			<path class="st2" d="M0,183.6c34.2,9.1,85.5,30.5,111.2,53.5c0.3-0.2,0.6-0.3,0.9-0.5C91,214.3,30.5,188.8,0,183.6z"/>
			<polygon class="st2" points="89.9,220.4 63.1,227.9 89.2,219.9 			"/>
			<path class="st2" d="M83.5,217.2c-0.1-0.4-9.8-18.9-9.8-18.9l8.9,18.4L83.5,217.2z"/>
			<path class="st2" d="M69.9,209.7c0,0-25.3,8.1-24.9,7.8c0.4-0.3,25.6-7.4,25.6-7.4L69.9,209.7z"/>
			<path class="st2" d="M58.6,203.8c0.2-0.5-11.6-15.1-11.6-15.1l10.8,15.3L58.6,203.8z"/>
			<polygon class="st2" points="43.5,197.9 24.2,201.6 44.2,198.3 			"/>
			<path class="st2" d="M31.1,192.9c-0.2-0.2-8.9-9.1-8.9-9.1l8.1,9L31.1,192.9z"/>
			<path class="st2" d="M20,189c-0.4-0.1-12.9,0.7-12.4,0.7s12.9-0.2,12.9-0.2L20,189z"/>
		</g>
		<g>
			<path class="st3" d="M116.9,232.5c17-26.1-10.6-75.7-39-91.2C63.8,175.4,82.2,224.7,116.9,232.5z"/>
			<path class="st4" d="M77.8,141.3c-14,34.1,4.4,83.4,39,91.2C116,208,93.3,160.6,77.8,141.3z"/>
			<path class="st5" d="M77.8,141.3c15.6,23.6,35,63.6,38.2,91c0.3,0.1,0.6,0.1,0.8,0.2C116,208,93.3,160.6,77.8,141.3z"/>
			<polygon class="st5" points="112.2,211 92.1,201.3 112,210.3 			"/>
			<path class="st5" d="M110,205.7c0.2-0.3,4.2-16.5,4.2-16.5l-4.4,15.8L110,205.7z"/>
			<path class="st5" d="M105.8,194c0,0-19.5-8.5-19-8.5s19.3,9.1,19.3,9.1L105.8,194z"/>
			<path class="st5" d="M102.2,184.5c0.4-0.2,1.1-15.1,1.1-15.1l-1.7,14.9L102.2,184.5z"/>
			<polygon class="st5" points="96.3,172.9 82.8,165 96.5,173.5 			"/>
			<path class="st5" d="M91.5,163.4c0-0.2-0.5-10.1-0.5-10.1l0.1,9.7L91.5,163.4z"/>
			<path class="st5" d="M86.9,155.1c-0.2-0.3-8.1-6.5-7.8-6.2c0.3,0.3,7.8,6.7,7.8,6.7L86.9,155.1z"/>
		</g>
		<g>
			<path class="st6" d="M113.7,241.5C93.3,218,38,230.8,15.3,253.9C44.2,276.7,96.6,272.7,113.7,241.5z"/>
			<path class="st7" d="M15.3,253.9c28.9,22.9,81.3,18.8,98.4-12.3C89.9,235.6,38.1,244.3,15.3,253.9z"/>
			<path class="st8" d="M15.3,253.9c27-8.5,70.8-16,98-11.6c0.1-0.2,0.3-0.5,0.4-0.8C89.9,235.6,38.1,244.3,15.3,253.9z"/>
			<polygon class="st8" points="91.8,240.2 76.9,256.8 91.1,240.1 			"/>
			<path class="st8" d="M86.1,240.8c-0.2-0.3-14.7-8.6-14.7-8.6l13.9,8.6L86.1,240.8z"/>
			<path class="st8" d="M73.7,241.5c0,0-13.6,16.3-13.4,16c0.2-0.4,14.1-16,14.1-16L73.7,241.5z"/>
			<path class="st8" d="M63.6,242.4c-0.1-0.4-14.3-5.2-14.3-5.2l13.8,5.7L63.6,242.4z"/>
			<polygon class="st8" points="50.8,244.9 39.4,255.7 51.4,244.9 			"/>
			<path class="st8" d="M40.3,246.8c-0.2-0.1-9.9-2.3-9.9-2.3l9.4,2.6L40.3,246.8z"/>
			<path class="st8" d="M31.1,249c-0.3,0.1-8.4,6-8.1,5.8c0.3-0.2,8.6-5.6,8.6-5.6L31.1,249z"/>
		</g>
	</g>
	<g>
		<g>
			<path class="st0" d="M339.9,244.6c5.8-38.5,72.8-62.1,112.2-53C436.9,235.1,378.9,266,339.9,244.6z"/>
			<path class="st1" d="M452.1,191.6c-15.2,43.5-73.2,74.4-112.2,53C361.1,222.3,421.6,196.8,452.1,191.6z"/>
			<path class="st2" d="M452.1,191.6c-34.2,9.1-85.5,30.5-111.2,53.5c-0.3-0.2-0.6-0.3-1-0.5C361.1,222.3,421.6,196.8,452.1,191.6z"
				/>
			<polygon class="st2" points="362.1,228.4 389,235.9 362.9,227.9 			"/>
			<path class="st2" d="M368.5,225.2c0.1-0.4,9.8-18.9,9.8-18.9l-8.9,18.4L368.5,225.2z"/>
			<path class="st2" d="M382.2,217.7c0,0,25.3,8.1,24.9,7.8c-0.4-0.3-25.6-7.4-25.6-7.4L382.2,217.7z"/>
			<path class="st2" d="M393.5,211.8c-0.2-0.5,11.6-15.1,11.6-15.1l-10.8,15.3L393.5,211.8z"/>
			<polygon class="st2" points="408.6,205.9 427.9,209.6 407.9,206.3 			"/>
			<path class="st2" d="M421,200.9c0.1-0.2,8.9-9.1,8.9-9.1l-8.1,9L421,200.9z"/>
			<path class="st2" d="M432.1,197c0.4-0.1,12.9,0.7,12.4,0.7s-12.9-0.2-12.9-0.2L432.1,197z"/>
		</g>
		<g>
			<path class="st3" d="M335.2,240.5c-17-26.1,10.6-75.7,39-91.2C388.2,183.4,369.9,232.7,335.2,240.5z"/>
			<path class="st4" d="M374.2,149.3c14,34.1-4.4,83.4-39,91.2C336.1,216,358.8,168.6,374.2,149.3z"/>
			<path class="st5" d="M374.2,149.3c-15.6,23.6-35,63.6-38.2,91c-0.3,0.1-0.6,0.1-0.8,0.2C336.1,216,358.8,168.6,374.2,149.3z"/>
			<polygon class="st5" points="339.9,219 360,209.3 340.1,218.3 			"/>
			<path class="st5" d="M342.1,213.7c-0.2-0.3-4.2-16.5-4.2-16.5l4.4,15.8L342.1,213.7z"/>
			<path class="st5" d="M346.2,202c0,0,19.5-8.5,19-8.5c-0.4,0.1-19.3,9.1-19.3,9.1L346.2,202z"/>
			<path class="st5" d="M349.9,192.5c-0.4-0.2-1.1-15.1-1.1-15.1l1.7,14.9L349.9,192.5z"/>
			<polygon class="st5" points="355.8,180.9 369.3,173 355.6,181.5 			"/>
			<path class="st5" d="M360.6,171.4c0-0.2,0.5-10.1,0.5-10.1L361,171L360.6,171.4z"/>
			<path class="st5" d="M365.1,163.1c0.2-0.3,8.1-6.5,7.8-6.2c-0.3,0.3-7.8,6.7-7.8,6.7L365.1,163.1z"/>
		</g>
		<g>
			<path class="st6" d="M338.4,249.5c20.4-23.5,75.7-10.7,98.4,12.3C407.9,284.7,355.5,280.7,338.4,249.5z"/>
			<path class="st7" d="M436.8,261.9c-28.9,22.9-81.3,18.8-98.4-12.3C362.2,243.6,414,252.3,436.8,261.9z"/>
			<path class="st8" d="M436.8,261.9c-27-8.5-70.8-16-98-11.6c-0.1-0.2-0.3-0.5-0.4-0.8C362.2,243.6,414,252.3,436.8,261.9z"/>
			<polygon class="st8" points="360.3,248.2 375.2,264.8 361,248.1 			"/>
			<path class="st8" d="M366,248.8c0.2-0.3,14.7-8.6,14.7-8.6l-13.9,8.6L366,248.8z"/>
			<path class="st8" d="M378.4,249.5c0,0,13.6,16.3,13.4,16c-0.2-0.4-14.1-16-14.1-16L378.4,249.5z"/>
			<path class="st8" d="M388.5,250.4c0.1-0.4,14.3-5.2,14.3-5.2l-13.8,5.7L388.5,250.4z"/>
			<polygon class="st8" points="401.3,252.9 412.7,263.7 400.6,252.9 			"/>
			<path class="st8" d="M411.8,254.8c0.2-0.1,9.9-2.3,9.9-2.3l-9.4,2.6L411.8,254.8z"/>
			<path class="st8" d="M421,257c0.3,0.1,8.4,6,8.1,5.8s-8.6-5.6-8.6-5.6L421,257z"/>
		</g>
	</g>
	<g>
		<path class="st9" d="M288,150.4c0,0,2,2.4,2.1,3.1c0.1,0.7-0.4,2.6-0.7,2.2s-0.3-1.6-0.3-1.6l-0.6-0.7c0,0,0.4,3.7,0.2,4.3
			c-0.2,0.7-0.6,0.6-0.6,0.6s0,0.6-0.4,0.7c-0.3,0.1-0.5,0-0.7-0.3c0,0-0.1,0.1-0.4,0s-0.5-0.5-0.5-0.5s-0.2,0.1-0.5-0.2
			c-0.2-0.3-0.3-0.5-0.3-0.6c0-0.1-0.4-2.8-0.4-2.9c-0.5-1.3-0.1-3.4,0.6-4.3C287.1,148.5,286.5,149.7,288,150.4z"/>
		<path class="st10" d="M339.3,108.8c-0.2-0.1-1,0.5-1.8-0.4c-0.9-0.5-1.1-1.5-0.8-2c0.3-0.5,0.9-1,1.1-1.4c0.5-0.9,1.1-1.4,2.4-0.9
			s1.9,0.7,2,2.1C342.2,107.6,340.4,108.8,339.3,108.8z"/>
		<path class="st11" d="M324,212.9c0.5,1.5,1,3.5,1,3.5s8.3,3.7,7.1,4.5c-1.8,1.3-8.6-0.4-11-0.9l0-3.8L324,212.9z"/>
		<path class="st11" d="M298.3,211.9c-0.5,1.5-1,3.5-1,3.5s-8.3,3.7-7.1,4.5c1.8,1.3,10.5-0.3,10.5-1l0-3.8L298.3,211.9z"/>
		<path class="st12" d="M318.1,146.7c3.5,19,5,47,6.8,69.6c0,0-2.7,0.1-3.9-0.2c-4.5-18.9-8.6-38.4-13.2-57.3
			c-2.4,18.6-4.8,38.3-7.2,56.9c-0.6,0.2-2.6-0.3-3.4-0.4s-1-66.8-0.9-67.5C296.6,147.1,318.1,146.7,318.1,146.7z"/>
		<path class="st13" d="M307.8,96.8c-0.2,1.5-0.2,6.3,2.7,7.4c1.2,0.4,2.3,1.4,2.3,1.4c-0.1,4.5-10.6,5.7-15,1.6l1.8-2.1
			c3.7-0.8,2.1-7,1.9-9.9L307.8,96.8z"/>
		<path class="st14" d="M316.9,112.7c-0.5,16.7,2.4,28.9,3.1,38.1c0.3,4.8-24.9,8.1-24.9,4.1c0.5-13.5,0.6-27.9-0.9-40.4l0-7.9
			c0.2-0.1,0.5-0.1,0.7-0.1l4.6-1.4c0,0,2.7,2.7,7.1,2.2c4.4-0.5,3.9-3.1,3.9-3.1c2,0.3,3.9,0.7,5.9,1.1L316.9,112.7z"/>
		<path class="st15" d="M297.4,89.6c-0.2,0.7,0.7,3.7,1.5,5.4c0.8,1.7,2.9,2.6,2.9,2.4c0-0.2-0.5-6.3-0.5-6.3L297.4,89.6z"/>
		<path class="st9" d="M312.3,97.6c-0.8,4.1-2.5,5.4-5.5,3.9c-2.5-1.2-4.3-3.4-5.5-5.8c-0.8,0.2-1.8-0.3-2.3-1.3
			c-0.7-1.2-0.5-2.6,0.3-3.2c0.2-0.1,0.4-0.2,0.6-0.2c-0.1-1.3,0-2.4,0.1-3.7c0.1-2.4,6.4-4.6,9.2-3.2
			C312.6,86,312.8,94.7,312.3,97.6z"/>
		<path class="st15" d="M302.2,88.4c-0.3,0.3,0.4,4.6-0.1,4.6s-2.1-2-2.1-2s-0.1-0.1-0.6,0.2c-0.5,0.4-0.6,1-0.6,1s-2.1-4-1.9-4.9
			c0.2-0.9,2-2.1,2-2.1s0.1-1,1.1-2.1c1-1.1,3.9-1.3,7.8-1.9c3.8-0.6,6.6,1.9,3.1,4.6C307.6,88.4,302.2,88.4,302.2,88.4z"/>
		<path class="st14" d="M294.3,106.6c-5.6,2.4-9.1,25.4-9.5,44.8l3.6-0.9c0.4-9.6,2.2-22.7,7-36L294.3,106.6z"/>
		<path class="st14" d="M316.4,105.2c6,6.2,11.3,17.5,11.3,17.5c0.4-0.6,7.7-12.8,9-16.3l2.6,2.4c-1.3,3.2-8.3,20.2-10.8,20.5
			c-4.9,0.6-11.3-13.2-13.2-16.1L316.4,105.2z"/>
		<path class="st16" d="M352.3,90.4c0.2-0.1,3.1-0.1,3.1-0.1l1.6,4.8l-2.2,1.9L352.3,90.4z"/>
		<path class="st17" d="M340.8,98.8c-0.1,0.6-0.1,2.5,0.6,4.3c0.6,1.8,1.9,3,1.9,3.8c0,0.8-2.1,2.2-3,1.2c-0.7-0.8-3-8.6-2.8-8.7
			C337.8,99.2,340.8,98.8,340.8,98.8z"/>
		<path class="st18" d="M352.3,84.8c-0.1-0.1-0.2,0-0.8,0.4c-0.5,0.4-0.1,0.1-0.5,0.9c-0.9,1.8-12.5,8.8-14.7,9.8
			c-1.4,0.6-1.7,0.9-2.1,1.3l2.2,6c0.6,0,0.9-0.1,2.4-0.5c2.4-0.6,15.8-2.5,17.6-1.6c0.5,0.2,1.8,0.2,1.8,0.2
			C356.9,95.7,354.9,90.2,352.3,84.8z"/>
		<path class="st19" d="M352.3,84.8c-0.1-0.1-0.2,0-0.8,0.4c-0.5,0.4-0.1,0.1-0.5,0.9c2.1,4.6,3.9,9.6,5.3,15c0.9,0.4,0.4,0.4,1,0.4
			c0.6-0.1,0.9,0,0.8-0.2C356.9,95.7,354.9,90.2,352.3,84.8z"/>
		<path class="st19" d="M336.6,95.8c-0.1,0.1-0.2,0.1-0.2,0.1c-1.4,0.6-2.2,0.7-2.7,1.1l1.2,3.3l1.2,3.3c0.6,0,1.3-0.5,2.8-0.8
			c0.1,0,0.2,0,0.3-0.1L336.6,95.8z"/>
		<path class="st20" d="M337.6,99.8c0-0.2,0-0.4,0-0.4c0.1-0.1,1.1-0.3,2-0.4L337.6,99.8z"/>
		<path class="st21" d="M352.3,84.8c-0.1-0.1-1.1,1-1.3,1.3c-0.9,1.8-12.5,8.8-14.7,9.8c-1.4,0.6-1.7,0.9-2.1,1.3l1.1,3.4l20.4-7.8
			C354.7,90.1,353.6,87.4,352.3,84.8z"/>
		<path class="st22" d="M352.3,84.8c-0.1-0.1-0.2,0-0.8,0.4c-0.5,0.4-0.1,0.1-0.5,0.9c1.1,2.4,2.1,4.8,3,7.4l1.7-0.6
			C354.7,90.1,353.6,87.4,352.3,84.8z"/>
		<path class="st22" d="M336.6,95.8c-0.1,0.1-0.2,0.1-0.2,0.1c-1.4,0.6-2.2,0.7-2.7,1.1l1.2,3.3l0.2,0.5l3-1.1L336.6,95.8z"/>
		<polygon class="st23" points="359.8,89 366.7,85 366,84.1 		"/>
		<polygon class="st23" points="357.1,86.7 362.2,79.5 361.6,79.1 		"/>
		<polygon class="st23" points="359.1,93.6 369.9,92.9 369.8,94 		"/>
		<polygon class="st23" points="359.1,96.5 367.8,100 367.6,100.7 		"/>
		<path class="st13" d="M340.2,103.7c-0.3,1.2,0.4,2.7,1.4,3.3c0.3,0.2,0.9,0.3,1.9-0.5c0.9-0.7-0.7-3.6-1.4-3.7
			C341.3,102.7,340.2,103.2,340.2,103.7z"/>
		<path class="st9" d="M338,106.8l-0.7-0.8c0,0,0.5-2.1,0.9-2.5s2.1-2.1,2.3-2c0.2,0.2,0.3,0.6-0.2,1.5c-0.4,0.9-1.3,1.2-1.3,1.2
			s0.3,1.5,0,2.4C338.7,107.6,338,106.8,338,106.8z"/>
		<path class="st15" d="M301.1,86.5l1,2.1c1.4,0.1,6,0.6,7,0.1l-0.9-0.5c0,0,1.7,0.1,3.5-0.6c1.7-0.6,2.2-1.5,2-1.5
			c-0.1,0-1.4-0.1-1.4-0.1s0.8-0.1,1.7-1.9c0.9-1.7,1-2.6,0.9-2.4c-0.2,0.2-1.3,0.6-1.2,0.4s0.1-1.5,0.1-1.5s-1.7,0.2-3.9,0.4
			s-9.3,1.4-9.3,1.9C300.6,83.7,301.1,86.5,301.1,86.5z"/>
	</g>
	<g>
		<path class="st11" d="M212.3,132.2c-0.5,1.5-1,3.5-1,3.5s-8.3,3.6-7.1,4.5c1.8,1.3,8.5-0.4,10.9-0.9l0-3.8L212.3,132.2z"/>
		<path class="st11" d="M237.8,131.3c0.5,1.5,1,3.5,1,3.5s8.3,3.6,7.1,4.5c-1.8,1.3-10.4-0.3-10.4-1l0-3.8L237.8,131.3z"/>
		<path class="st13" d="M176.5,11.3c0,0-0.5,1.7,0.6,2.9c1,1.1,2.9,1.5,2.9,1.5l1.6-1.8c0,0-1.5-3.2-1.6-3.4
			C179.8,10.1,176.5,11.3,176.5,11.3z"/>
		<path class="st24" d="M218.1,66.7c-3.4,18.8-4.9,46.5-6.7,69c0,0,2.7,0.1,3.8-0.2c4.5-18.7,8.6-38,13.1-56.7
			c2.4,18.4,4.7,37.9,7.1,56.4c0.6,0.2,2.6-0.3,3.3-0.4c0.7-0.1,1-66.1,0.9-66.9C239.5,67.1,218.1,66.7,218.1,66.7z"/>
		<path class="st13" d="M228.3,17.2c0.2,1.5,0.2,6.2-2.7,7.3c-1.2,0.4-2.3,1.3-2.3,1.3c0.1,4.5,10.5,5.7,14.9,1.6l-1.7-2.1
			c-3.7-0.7-2.1-6.9-1.9-9.9L228.3,17.2z"/>
		<path class="st9" d="M280.2,15c0,0,0.4-3.7,1-4.4c0.6-0.6,2.6-1.8,2.5-1.2c-0.1,0.6-1.1,1.6-1.1,1.6l-0.1,1.1c0,0,2.9-3.4,3.6-3.7
			c0.7-0.4,1,0,1,0s0.9-0.7,1.2-0.4c0.3,0.3,0.2,0.8,0.1,0.9c-0.1,0.1-0.1,0.2-0.1,0.2s0.2,0,0.3,0.4s-0.1,0.9-0.1,0.9
			s0.3,0.1,0.2,0.6s-0.2,0.7-0.2,0.7c0,0.1-2.1,2.6-2.2,2.8c-0.1,0.1-0.2,0.8-1.1,1.6c-0.9,0.9-3.2,1.3-3.2,1.3
			C279.7,16,280.9,16.9,280.2,15z"/>
		<path class="st25" d="M218.9,25.7c-13,2.1-27.5-3.6-36.9-12.3l-2,2.2c0,0,5.7,9,17,13.4c7.2,3.7,16.9,4.1,22.4,4
			c0.5,16.5-2.4,28.6-3.1,37.8c-0.3,4.7,24.7,8,24.7,4.1c-0.5-13.4-2.9-28.5-1.4-40.8c5.6,0,19,0,25.7-3.4c11.3-4.4,17-13.4,17-13.4
			l-2-2.2c-10,9.2-25.7,15.1-39.2,11.9l-4.5-1.4c0,0-2.7,2.7-7,2.2c-4.3-0.5-3.9-3.1-3.9-3.1C223.4,24.9,221.2,25.3,218.9,25.7z"/>
		<path class="st11" d="M238.7,10.1c0.2,0.7-0.7,3.6-1.5,5.3c-0.8,1.7-2.9,2.6-2.9,2.4c0-0.2,0.5-6.2,0.5-6.2L238.7,10.1z"/>
		<path class="st9" d="M223.9,18.1c0.7,4.1,2.5,5.3,5.4,3.9c2.5-1.2,4.3-3.4,5.5-5.7c0.8,0.2,1.8-0.3,2.3-1.3
			c0.7-1.2,0.5-2.6-0.3-3.1c-0.2-0.1-0.4-0.2-0.6-0.2c0.1-1.2,0-2.4-0.1-3.7c-0.1-2.3-6.4-4.6-9.1-3.2
			C223.6,6.5,223.3,15.2,223.9,18.1z"/>
		<path class="st11" d="M233.9,9c0.3,0.3-0.4,4.6,0.1,4.6c0.5,0,2.1-1.9,2.1-1.9s0.1-0.1,0.6,0.2c0.5,0.4,0.6,0.9,0.6,0.9
			s2.1-4,1.8-4.9c-0.2-0.9-2-2-2-2s-0.1-0.9-1.1-2.1c-1-1.1-3.9-1.3-7.7-1.9c-3.8-0.6-6.5,1.8-3.1,4.5C228.5,8.9,233.9,9,233.9,9z"
			/>
		<path class="st16" d="M182,0l2.1,0.8c0.3,0.1,0.4,0.4,0.3,0.7l-7,17.9c-0.1,0.3-0.4,0.4-0.7,0.3l-2.1-0.8
			c-0.3-0.1-0.4-0.4-0.3-0.7l7-17.9C181.4,0.1,181.7-0.1,182,0z"/>
		<path class="st11" d="M234.6,7.7c-0.1,0.1-0.8,1.2-3,1.8c-2.2,0.5-2.7-0.7-2.7-0.7s-1,0.4-2.6-0.1s-0.8-1.2-0.8-1.2
			s-0.4,0.7-1.8-0.3s-0.1-2.4-0.1-2.4l0.8-1.2c0,0-0.2-0.7,0.6-1.6c0.7-0.8,2.3-0.5,2.3-0.5s0.6-0.7,2.1-0.5s2.2,1.1,2.2,1.1
			s1.1-0.4,2.3-0.2s1.8,1.2,1.8,1.2s1.3,0.2,1.9,1c0.6,0.8,0.1,1.8,0.1,1.8s1.3,0.2,1.3,1.3s-1.4,2.5-2.9,2.3S234.6,7.7,234.6,7.7z"
			/>
		<path class="st9" d="M178.5,8.9c0.3,0.3,0.3,0.4,0.5,0.9c0.4,0.9-0.8,3.1-1.6,3.4c-0.8,0.3-1.2,0.4-1.4-0.6
			c-0.1-0.7,0.7-2.6,1.3-3.6C177.7,8.5,177.9,8.4,178.5,8.9z"/>
		<path class="st9" d="M181.2,14.2l0.8-0.9c0,0-0.5-2.3-1-2.9c-0.5-0.5-2.4-2.4-2.6-2.2c-0.2,0.2-0.3,0.7,0.2,1.7s1.5,1.4,1.5,1.4
			s-0.3,1.7,0.1,2.7C180.4,15.2,181.2,14.2,181.2,14.2z"/>
		<polygon class="st26" points="179,6 182.2,7.6 181.5,9.1 178.3,7.7 		"/>
		<path class="st26" d="M181,7.8c0.1,0.1,0.6,0.6,1.4,1.8c0.7,1.2,0.5,4.1,0.6,4c0.2-0.1,0.9-0.1,0.9-0.1s0.4-2.2-0.2-3.6
			c-0.6-1.4-2-2.3-2-2.3L181,7.8z"/>
		<path class="st26" d="M181,8.5c0.2,0.1,0.9,0.6,2.6,0.5c1.7-0.1,2.4-0.8,2.4-0.8l-0.4-0.6c0,0-1.3,0.7-2.7,0.7
			c-1.4,0-1.8-0.1-1.8-0.1L181,8.5z"/>
	</g>
	<path class="st9" d="M380.6,204.2c0.4-0.1,1.5-0.6,1.8-0.7c0.3-0.1,3.1-1.4,3.5-1.5c0.2,0,1.4,0.1,2.5,0.5c0.6,0.2,2,0.9,2.2,1
		c0.3,0.1-0.3,0.6-0.7,0.6c-0.5,0-1.7-0.7-1.7-0.7c-0.2,0-0.4,0-0.5,0c0.1,0.1,0.3,0.2,0.3,0.2c0.2,0.2,0.5,0.9,0.4,0.9
		c-0.1,0.1-0.3,0.2-0.7,0.2c-0.2,0-0.7-0.3-1.1-0.5c-0.3,1-2.4,1.8-3.2,1.9c-0.9,0.1-1.6-0.2-1.6-0.2L380.6,204.2z"/>
	<path class="st27" d="M372.7,174.6c0.8,0.5-0.6,22.6-0.6,22.6l10.1,6.4l-1.1,2.3l-13.7-7.1c0,0-0.4-22,0.7-23.5
		C368.8,174.4,372,174.2,372.7,174.6z"/>
	<path class="st11" d="M372.3,157.9c-0.5,0.5-1.4,3.2-1.7,5s0.9,3.6,1,3.4c0.1-0.2,2.9-5.2,2.9-5.2L372.3,157.9z"/>
	<path class="st13" d="M375,168.2c0,0-0.8,1.3-1.1,4.3c-0.3,3-0.9,4.1-0.9,4.1l-5.4-4l4.9-8.3L375,168.2z"/>
	<path class="st28" d="M382.1,250.4h-97.5c-4.6,0-8.4,5.2-8.4,11.7c0,6.5,3.7,11.7,8.4,11.7h97.5l-0.5-1.3c-1.3-3.2-2-6.8-2-10.4
		s0.7-7.2,2-10.4L382.1,250.4z"/>
	<path class="st29" d="M285,250.5h87.7h8.9h4v-2.6h-2.9h-10H285c-5.9,0-10.3,6.6-10.3,14.2c0,7.6,4.4,14.2,10.3,14.2h87h10.7h2.9
		v-2.6h-4H372h-87c-4.6,0-8.3-5.2-8.3-11.6C276.7,255.7,280.4,250.5,285,250.5z"/>
	<path class="st30" d="M343.1,262.1c0-6.5,3.7-11.7,8.4-11.7h-66.9c-4.6,0-8.4,5.2-8.4,11.7c0,6.5,3.7,11.7,8.4,11.7h66.9
		C346.8,273.7,343.1,268.5,343.1,262.1z"/>
	<path class="st28" d="M278.1,222h97.5c4.6,0,8.4,5.2,8.4,11.7c0,6.5-3.7,11.7-8.4,11.7h-97.5l0.5-1.3c1.3-3.2,2-6.8,2-10.4
		s-0.7-7.2-2-10.4L278.1,222z"/>
	<path class="st31" d="M375.2,222.1h-87.7h-8.9h-4v-2.6h2.9h10h87.7c5.9,0,10.3,6.6,10.3,14.2c0,7.6-4.4,14.2-10.3,14.2h-87h-10.7
		h-2.9v-2.6h4h9.6h87c4.6,0,8.3-5.2,8.3-11.6C383.5,227.3,379.8,222.1,375.2,222.1z"/>
	<path class="st31" d="M317.1,233.9c0-6.9-3.7-12.4-8.4-12.4h66.9c4.6,0,8.4,5.5,8.4,12.4s-3.7,12.4-8.4,12.4h-66.9
		C313.3,246.3,317.1,240.8,317.1,233.9z"/>
	<g>
		<rect x="284.6" y="253.2" class="st32" width="91.6" height="1.1"/>
		<rect x="284.6" y="257.4" class="st32" width="91.6" height="1.1"/>
		<rect x="284.6" y="265.9" class="st32" width="91.6" height="1.1"/>
		<rect x="284.6" y="261.7" class="st32" width="91.6" height="1.1"/>
		<rect x="284.6" y="270.1" class="st32" width="91.6" height="1.1"/>
	</g>
	<g>
		<rect x="282.8" y="225" class="st32" width="27.1" height="1.1"/>
		<rect x="282.8" y="229.3" class="st32" width="27.1" height="1.1"/>
		<rect x="282.8" y="237.7" class="st32" width="27.1" height="1.1"/>
		<rect x="282.8" y="233.5" class="st32" width="27.1" height="1.1"/>
		<rect x="282.8" y="241.9" class="st32" width="27.1" height="1.1"/>
	</g>
	<g>
		<g>
			<g>
				<path class="st33" d="M150.6,203.7h-4.1v-14.5H119v14.5h-4.1v-16.5c0-1.1,0.9-2,2-2h31.6c1.1,0,2,0.9,2,2L150.6,203.7
					L150.6,203.7z"/>
			</g>
		</g>
		<path class="st34" d="M149.8,202.8v-15.6c0-0.6-0.5-1.1-1.1-1.1H117c-0.6,0-1.1,0.5-1.1,1.1v15.6h2.3v-14.5h29.3v14.5H149.8z"/>
		<g>
			<path class="st35" d="M186.1,269.9c0,3.5-2.9,6.4-6.5,6.4H86c-3.6,0-6.5-2.9-6.5-6.4v-65.5c0-3.5,2.9-6.4,6.5-6.4h93.7
				c3.6,0,6.5,2.9,6.5,6.4V269.9z"/>
		</g>
		<path class="st36" d="M183.7,269.9v-2.1c0-0.1,0-0.2-0.1-0.2c-0.1-0.1-0.3,0-0.3,0.2c0,0.7,0.1,2.1-0.1,2.9
			c-0.1,0.3,0.3,0.4,0.4,0.1C183.7,270.5,183.7,270.2,183.7,269.9L183.7,269.9z M182.5,272.7c0.2-0.2-0.1-0.5-0.3-0.3
			c-0.5,0.5-1.1,0.8-1.7,0.9c-0.3,0.1-0.2,0.5,0.1,0.4C181.3,273.5,182,273.2,182.5,272.7L182.5,272.7z M178.5,273.8
			c0.1,0,0.2,0,0.2-0.1c0.1-0.1,0-0.3-0.2-0.3h-2.1c-0.1,0-0.2,0-0.2,0.1c-0.1,0.1,0,0.3,0.2,0.3H178.5L178.5,273.8z M174.3,273.8
			c0.1,0,0.2,0,0.2-0.1c0.1-0.1,0-0.3-0.2-0.3h-2.1c-0.1,0-0.2,0-0.2,0.1c-0.1,0.1,0.1,0.3,0.2,0.3H174.3L174.3,273.8z M170.1,273.8
			c0.1,0,0.2,0,0.2-0.1c0.1-0.1,0-0.3-0.2-0.3h-2.1c-0.1,0-0.2,0-0.2,0.1c-0.1,0.1,0,0.3,0.2,0.3H170.1L170.1,273.8z M166,273.8
			c0.1,0,0.2,0,0.2-0.1c0.1-0.1,0-0.3-0.2-0.3h-2.1c-0.1,0-0.2,0-0.2,0.1c-0.1,0.1,0,0.3,0.2,0.3H166L166,273.8z M161.8,273.8
			c0.1,0,0.2,0,0.2-0.1c0.1-0.1,0-0.3-0.2-0.3h-2.1c-0.1,0-0.2,0-0.2,0.1c-0.1,0.1,0.1,0.3,0.2,0.3H161.8L161.8,273.8z M157.7,273.8
			c0.1,0,0.2,0,0.2-0.1c0.1-0.1,0-0.3-0.2-0.3h-2.1c-0.1,0-0.2,0-0.2,0.1c-0.1,0.1,0,0.3,0.2,0.3H157.7L157.7,273.8z M153.5,273.8
			c0.1,0,0.2,0,0.2-0.1c0.1-0.1,0-0.3-0.2-0.3h-2.1c-0.1,0-0.2,0-0.2,0.1c-0.1,0.1,0,0.3,0.2,0.3H153.5L153.5,273.8z M149.3,273.8
			c0.1,0,0.2,0,0.2-0.1c0.1-0.1,0-0.3-0.2-0.3h-2.1c-0.1,0-0.2,0-0.2,0.1c-0.1,0.1,0,0.3,0.2,0.3H149.3L149.3,273.8z M145.2,273.8
			c0.1,0,0.2,0,0.2-0.1c0.1-0.1,0-0.3-0.2-0.3h-2.1c-0.1,0-0.2,0-0.2,0.1c-0.1,0.1,0,0.3,0.2,0.3H145.2L145.2,273.8z M141,273.8
			c0.1,0,0.2,0,0.2-0.1c0.1-0.1,0-0.3-0.2-0.3h-2.1c-0.1,0-0.2,0-0.2,0.1c-0.1,0.1,0,0.3,0.2,0.3H141L141,273.8z M136.8,273.8
			c0.1,0,0.2,0,0.2-0.1c0.1-0.1,0-0.3-0.2-0.3h-2.1c-0.1,0-0.2,0-0.2,0.1c-0.1,0.1,0,0.3,0.2,0.3H136.8L136.8,273.8z M132.7,273.8
			c0.1,0,0.2,0,0.2-0.1c0.1-0.1,0-0.3-0.2-0.3h-2.1c-0.1,0-0.2,0-0.2,0.1c-0.1,0.1,0,0.3,0.2,0.3H132.7L132.7,273.8z M128.5,273.8
			c0.1,0,0.2,0,0.2-0.1c0.1-0.1,0-0.3-0.2-0.3h-2.1c-0.1,0-0.2,0-0.2,0.1c-0.1,0.1,0,0.3,0.2,0.3H128.5L128.5,273.8z M124.3,273.8
			c0.1,0,0.2,0,0.2-0.1c0.1-0.1,0-0.3-0.2-0.3h-2.1c-0.1,0-0.2,0-0.2,0.1c-0.1,0.1,0,0.3,0.2,0.3H124.3L124.3,273.8z M120.2,273.8
			c0.1,0,0.2,0,0.2-0.1c0.1-0.1,0-0.3-0.2-0.3h-2.1c-0.1,0-0.2,0-0.2,0.1c-0.1,0.1,0,0.3,0.2,0.3H120.2L120.2,273.8z M116,273.8
			c0.1,0,0.2,0,0.2-0.1c0.1-0.1,0-0.3-0.2-0.3h-2.1c-0.1,0-0.2,0-0.2,0.1c-0.1,0.1,0,0.3,0.2,0.3H116L116,273.8z M111.8,273.8
			c0.1,0,0.2,0,0.2-0.1c0.1-0.1,0-0.3-0.2-0.3h-2.1c-0.1,0-0.2,0-0.2,0.1c-0.1,0.1,0,0.3,0.2,0.3H111.8L111.8,273.8z M107.7,273.8
			c0.1,0,0.2,0,0.2-0.1c0.1-0.1,0-0.3-0.2-0.3h-2.1c-0.1,0-0.2,0-0.2,0.1c-0.1,0.1,0,0.3,0.2,0.3H107.7L107.7,273.8z M103.5,273.8
			c0.1,0,0.2,0,0.2-0.1c0.1-0.1,0-0.3-0.2-0.3h-2.1c-0.1,0-0.2,0-0.2,0.1c-0.1,0.1,0,0.3,0.2,0.3H103.5L103.5,273.8z M99.3,273.8
			c0.1,0,0.2,0,0.2-0.1c0.1-0.1,0-0.3-0.2-0.3h-2.1c-0.1,0-0.2,0-0.2,0.1c-0.1,0.1,0,0.3,0.2,0.3H99.3L99.3,273.8z M95.2,273.8
			c0.1,0,0.2,0,0.2-0.1c0.1-0.1,0-0.3-0.2-0.3h-2.1c-0.1,0-0.2,0-0.2,0.1c-0.1,0.1,0,0.3,0.2,0.3H95.2L95.2,273.8z M91,273.8
			c0.1,0,0.2,0,0.2-0.1c0.1-0.1,0-0.3-0.2-0.3h-2.1c-0.1,0-0.2,0-0.2,0.1c-0.1,0.1,0,0.3,0.2,0.3H91L91,273.8z M86.8,273.8
			c0.1,0,0.2,0,0.2-0.1c0.1-0.1,0-0.3-0.2-0.3H86c-0.4,0-0.8-0.1-1.1-0.2c-0.2-0.1-0.4,0.3-0.1,0.4c0.4,0.1,0.8,0.2,1.2,0.2
			L86.8,273.8L86.8,273.8z M82.9,272.5c0.2,0.2,0.5-0.1,0.3-0.3c-0.4-0.5-0.8-1.1-0.9-1.7c-0.1-0.3-0.4-0.2-0.4,0.1
			C82.1,271.3,82.4,272,82.9,272.5L82.9,272.5z M81.8,268.5c0,0.1,0.1,0.2,0.1,0.2c0.1,0.1,0.3,0,0.3-0.2v-2.1
			c0-0.1-0.1-0.2-0.1-0.2c-0.1-0.1-0.3,0-0.3,0.2V268.5L81.8,268.5z M81.8,264.3c0,0.1,0.1,0.2,0.1,0.2c0.1,0.1,0.3,0,0.3-0.2v-2.1
			c0-0.1-0.1-0.2-0.1-0.2c-0.1-0.1-0.3,0-0.3,0.2V264.3L81.8,264.3z M81.8,260.1c0,0.1,0.1,0.2,0.1,0.2c0.1,0.1,0.3,0,0.3-0.2V258
			c0-0.1-0.1-0.2-0.1-0.2c-0.1-0.1-0.3,0-0.3,0.2V260.1L81.8,260.1z M81.8,256c0,0.1,0.1,0.2,0.1,0.2c0.1,0.1,0.3,0,0.3-0.2v-2.1
			c0-0.1-0.1-0.2-0.1-0.2c-0.1-0.1-0.3,0-0.3,0.2V256L81.8,256z M81.8,251.8c0,0.1,0.1,0.2,0.1,0.2c0.1,0.1,0.3,0,0.3-0.2v-2.1
			c0-0.1-0.1-0.2-0.1-0.2c-0.1-0.1-0.3,0-0.3,0.2V251.8L81.8,251.8z M81.8,247.6c0,0.1,0.1,0.2,0.1,0.2c0.1,0.1,0.3,0,0.3-0.2v-2.1
			c0-0.1-0.1-0.2-0.1-0.2c-0.1-0.1-0.3,0-0.3,0.2V247.6L81.8,247.6z M81.8,243.5c0,0.1,0.1,0.2,0.1,0.2c0.1,0.1,0.3,0,0.3-0.2v-2.1
			c0-0.1-0.1-0.2-0.1-0.2c-0.1-0.1-0.3,0-0.3,0.2V243.5L81.8,243.5z M81.8,239.3c0,0.1,0.1,0.2,0.1,0.2c0.1,0.1,0.3,0,0.3-0.2v-2.1
			c0-0.1-0.1-0.2-0.1-0.2c-0.1-0.1-0.3,0-0.3,0.2V239.3L81.8,239.3z M81.8,235.1c0,0.1,0.1,0.2,0.1,0.2c0.1,0.1,0.3,0,0.3-0.2v-2.1
			c0-0.1-0.1-0.2-0.1-0.2c-0.1-0.1-0.3,0-0.3,0.2V235.1L81.8,235.1z M81.8,231c0,0.1,0.1,0.2,0.1,0.2c0.1,0.1,0.3,0,0.3-0.2v-2.1
			c0-0.1-0.1-0.2-0.1-0.2c-0.1-0.1-0.3,0-0.3,0.2V231L81.8,231z M81.8,226.8c0,0.1,0.1,0.2,0.1,0.2c0.1,0.1,0.3,0,0.3-0.2v-2.1
			c0-0.1-0.1-0.2-0.1-0.2c-0.1-0.1-0.3,0-0.3,0.2V226.8L81.8,226.8z M81.8,222.6c0,0.1,0.1,0.2,0.1,0.2c0.1,0.1,0.3,0,0.3-0.2v-2.1
			c0-0.1-0.1-0.2-0.1-0.2c-0.1-0.1-0.3,0-0.3,0.2V222.6L81.8,222.6z M81.8,218.5c0,0.1,0.1,0.2,0.1,0.2c0.1,0.1,0.3,0,0.3-0.2v-2.1
			c0-0.1-0.1-0.2-0.1-0.2c-0.1-0.1-0.3,0-0.3,0.2V218.5L81.8,218.5z M81.8,214.3c0,0.1,0.1,0.2,0.1,0.2c0.1,0.1,0.3,0,0.3-0.2v-2.1
			c0-0.1-0.1-0.2-0.1-0.2c-0.1-0.1-0.3,0-0.3,0.2V214.3L81.8,214.3z M81.8,210.1c0,0.1,0.1,0.2,0.1,0.2c0.1,0.1,0.3,0,0.3-0.2v-2.1
			c0-0.1-0.1-0.2-0.1-0.2c-0.1-0.1-0.3,0-0.3,0.2V210.1L81.8,210.1z M81.8,206c0,0.1,0.1,0.2,0.1,0.2c0.1,0.1,0.3,0,0.3-0.2
			c0-0.6-0.1-1.4,0-2c0-0.3-0.4-0.3-0.4,0C81.8,204.5,81.8,205.3,81.8,206L81.8,206z M82.7,201.9c-0.2,0.2,0.2,0.5,0.3,0.3
			c0.4-0.5,0.9-0.9,1.6-1.1c0.3-0.1,0.1-0.5-0.1-0.4C83.8,200.9,83.2,201.3,82.7,201.9L82.7,201.9z M86.6,200.4
			c-0.1,0-0.2,0-0.2,0.1c-0.1,0.1,0,0.3,0.2,0.3h2.1c0.1,0,0.2,0,0.2-0.1c0.1-0.1,0-0.3-0.2-0.3H86.6L86.6,200.4z M90.8,200.4
			c-0.1,0-0.2,0-0.2,0.1c-0.1,0.1,0,0.3,0.2,0.3h2.1c0.1,0,0.2,0,0.2-0.1c0.1-0.1,0-0.3-0.2-0.3H90.8L90.8,200.4z M95,200.4
			c-0.1,0-0.2,0-0.2,0.1c-0.1,0.1,0,0.3,0.2,0.3H97c0.1,0,0.2,0,0.2-0.1c0.1-0.1,0-0.3-0.2-0.3H95L95,200.4z M99.1,200.4
			c-0.1,0-0.2,0-0.2,0.1c-0.1,0.1,0,0.3,0.2,0.3h2.1c0.1,0,0.2,0,0.2-0.1c0.1-0.1,0-0.3-0.2-0.3H99.1L99.1,200.4z M103.3,200.4
			c-0.1,0-0.2,0-0.2,0.1c-0.1,0.1,0,0.3,0.2,0.3h2.1c0.1,0,0.2,0,0.2-0.1c0.1-0.1,0-0.3-0.2-0.3H103.3L103.3,200.4z M107.5,200.4
			c-0.1,0-0.2,0-0.2,0.1c-0.1,0.1,0,0.3,0.2,0.3h2.1c0.1,0,0.2,0,0.2-0.1c0.1-0.1,0-0.3-0.2-0.3H107.5L107.5,200.4z M111.6,200.4
			c-0.1,0-0.2,0-0.2,0.1c-0.1,0.1,0,0.3,0.2,0.3h2.1c0.1,0,0.2,0,0.2-0.1c0.1-0.1,0-0.3-0.2-0.3H111.6L111.6,200.4z M115.8,200.4
			c-0.1,0-0.2,0-0.2,0.1c-0.1,0.1,0,0.3,0.2,0.3h2.1c0.1,0,0.2,0,0.2-0.1c0.1-0.1,0-0.3-0.2-0.3H115.8L115.8,200.4z M120,200.4
			c-0.1,0-0.2,0-0.2,0.1c-0.1,0.1,0,0.3,0.2,0.3h2.1c0.1,0,0.2,0,0.2-0.1c0.1-0.1,0-0.3-0.2-0.3H120L120,200.4z M124.1,200.4
			c-0.1,0-0.2,0-0.2,0.1c-0.1,0.1,0,0.3,0.2,0.3h2.1c0.1,0,0.2,0,0.2-0.1c0.1-0.1,0-0.3-0.2-0.3H124.1L124.1,200.4z M128.3,200.4
			c-0.1,0-0.2,0-0.2,0.1c-0.1,0.1,0,0.3,0.2,0.3h2.1c0.1,0,0.2,0,0.2-0.1c0.1-0.1,0-0.3-0.2-0.3H128.3L128.3,200.4z M132.5,200.4
			c-0.1,0-0.2,0-0.2,0.1c-0.1,0.1,0,0.3,0.2,0.3h2.1c0.1,0,0.2,0,0.2-0.1c0.1-0.1,0-0.3-0.2-0.3H132.5L132.5,200.4z M136.6,200.4
			c-0.1,0-0.2,0-0.2,0.1c-0.1,0.1,0,0.3,0.2,0.3h2.1c0.1,0,0.2,0,0.2-0.1c0.1-0.1,0-0.3-0.2-0.3H136.6L136.6,200.4z M140.8,200.4
			c-0.1,0-0.2,0-0.2,0.1c-0.1,0.1,0,0.3,0.2,0.3h2.1c0.1,0,0.2,0,0.2-0.1c0.1-0.1,0-0.3-0.2-0.3H140.8L140.8,200.4z M144.9,200.4
			c-0.1,0-0.2,0-0.2,0.1c-0.1,0.1,0,0.3,0.2,0.3h2.1c0.1,0,0.2,0,0.2-0.1c0.1-0.1,0-0.3-0.2-0.3H144.9L144.9,200.4z M149.1,200.4
			c-0.1,0-0.2,0-0.2,0.1c-0.1,0.1,0,0.3,0.2,0.3h2.1c0.1,0,0.2,0,0.2-0.1c0.1-0.1,0-0.3-0.2-0.3H149.1L149.1,200.4z M153.3,200.4
			c-0.1,0-0.2,0-0.2,0.1c-0.1,0.1,0,0.3,0.2,0.3h2.1c0.1,0,0.2,0,0.2-0.1c0.1-0.1,0-0.3-0.2-0.3H153.3L153.3,200.4z M157.4,200.4
			c-0.1,0-0.2,0-0.2,0.1c-0.1,0.1,0,0.3,0.2,0.3h2.1c0.1,0,0.2,0,0.2-0.1c0.1-0.1,0-0.3-0.2-0.3H157.4L157.4,200.4z M161.6,200.4
			c-0.1,0-0.2,0-0.2,0.1c-0.1,0.1,0,0.3,0.2,0.3h2.1c0.1,0,0.2,0,0.2-0.1c0.1-0.1,0-0.3-0.2-0.3H161.6L161.6,200.4z M165.8,200.4
			c-0.1,0-0.2,0-0.2,0.1c-0.1,0.1,0,0.3,0.2,0.3h2.1c0.1,0,0.2,0,0.2-0.1c0.1-0.1,0-0.3-0.2-0.3H165.8L165.8,200.4z M169.9,200.4
			c-0.1,0-0.2,0-0.2,0.1c-0.1,0.1,0,0.3,0.2,0.3h2.1c0.1,0,0.2,0,0.2-0.1c0.1-0.1,0-0.3-0.2-0.3H169.9L169.9,200.4z M174.1,200.4
			c-0.1,0-0.2,0-0.2,0.1c-0.1,0.1,0,0.3,0.2,0.3h2.1c0.1,0,0.2,0,0.2-0.1c0.1-0.1,0-0.3-0.2-0.3H174.1L174.1,200.4z M178.3,200.4
			c-0.1,0-0.2,0-0.2,0.1c-0.1,0.1,0,0.3,0.2,0.3c0.4,0,1.5-0.1,2,0.1c0.2,0.1,0.4-0.3,0.1-0.4C179.8,200.3,178.8,200.4,178.3,200.4
			L178.3,200.4z M182.3,201.4c-0.2-0.2-0.5,0.1-0.3,0.3c0.5,0.4,0.9,1,1.1,1.6c0.1,0.3,0.5,0.1,0.4-0.1
			C183.3,202.5,182.9,201.8,182.3,201.4L182.3,201.4z M183.7,205.3c0-0.1,0-0.2-0.1-0.2c-0.1-0.1-0.3,0-0.3,0.2v2.1
			c0,0.1,0,0.2,0.1,0.2c0.1,0.1,0.3,0,0.3-0.2V205.3L183.7,205.3z M183.7,209.5c0-0.1,0-0.2-0.1-0.2c-0.1-0.1-0.3,0-0.3,0.2v2.1
			c0,0.1,0,0.2,0.1,0.2c0.1,0.1,0.3,0,0.3-0.2V209.5L183.7,209.5z M183.7,213.6c0-0.1,0-0.2-0.1-0.2c-0.1-0.1-0.3,0-0.3,0.2v2.1
			c0,0.1,0,0.2,0.1,0.2c0.1,0.1,0.3,0,0.3-0.2V213.6L183.7,213.6z M183.7,217.8c0-0.1,0-0.2-0.1-0.2c-0.1-0.1-0.3,0-0.3,0.2v2.1
			c0,0.1,0,0.2,0.1,0.2c0.1,0.1,0.3,0,0.3-0.2V217.8L183.7,217.8z M183.7,222c0-0.1,0-0.2-0.1-0.2c-0.1-0.1-0.3,0-0.3,0.2v2.1
			c0,0.1,0,0.2,0.1,0.2c0.1,0.1,0.3,0,0.3-0.2V222L183.7,222z M183.7,226.1c0-0.1,0-0.2-0.1-0.2c-0.1-0.1-0.3,0-0.3,0.2v2.1
			c0,0.1,0,0.2,0.1,0.2c0.1,0.1,0.3,0,0.3-0.2V226.1L183.7,226.1z M183.7,230.3c0-0.1,0-0.2-0.1-0.2c-0.1-0.1-0.3,0-0.3,0.2v2.1
			c0,0.1,0,0.2,0.1,0.2c0.1,0.1,0.3,0,0.3-0.2V230.3L183.7,230.3z M183.7,234.5c0-0.1,0-0.2-0.1-0.2c-0.1-0.1-0.3,0-0.3,0.2v2.1
			c0,0.1,0,0.2,0.1,0.2c0.1,0.1,0.3,0,0.3-0.2V234.5L183.7,234.5z M183.7,238.6c0-0.1,0-0.2-0.1-0.2c-0.1-0.1-0.3,0-0.3,0.2v2.1
			c0,0.1,0,0.2,0.1,0.2c0.1,0.1,0.3,0,0.3-0.2V238.6L183.7,238.6z M183.7,242.8c0-0.1,0-0.2-0.1-0.2c-0.1-0.1-0.3,0-0.3,0.2v2.1
			c0,0.1,0,0.2,0.1,0.2c0.1,0.1,0.3,0,0.3-0.2V242.8L183.7,242.8z M183.7,246.9c0-0.1,0-0.2-0.1-0.2c-0.1-0.1-0.3,0-0.3,0.2v2.1
			c0,0.1,0,0.2,0.1,0.2c0.1,0.1,0.3,0,0.3-0.2V246.9L183.7,246.9z M183.7,251.1c0-0.1,0-0.2-0.1-0.2c-0.1-0.1-0.3,0-0.3,0.2v2.1
			c0,0.1,0,0.2,0.1,0.2c0.1,0.1,0.3,0,0.3-0.2V251.1L183.7,251.1z M183.7,255.3c0-0.1,0-0.2-0.1-0.2c-0.1-0.1-0.3,0-0.3,0.2v2.1
			c0,0.1,0,0.2,0.1,0.2c0.1,0.1,0.3,0,0.3-0.2V255.3L183.7,255.3z M183.7,259.4c0-0.1,0-0.2-0.1-0.2c-0.1-0.1-0.3,0-0.3,0.2v2.1
			c0,0.1,0,0.2,0.1,0.2c0.1,0.1,0.3,0,0.3-0.2V259.4L183.7,259.4z M183.7,263.6c0-0.1,0-0.2-0.1-0.2c-0.1-0.1-0.3,0-0.3,0.2v2.1
			c0,0.1,0,0.2,0.1,0.2c0.1,0.1,0.3,0,0.3-0.2V263.6z"/>
		<path class="st37" d="M77.2,197.1c0.3,20.3,25.1,36.7,55.6,36.7c30.5,0,55.3-16.4,55.6-36.7H77.2z"/>
		<path class="st38" d="M138,242.9h-10.5c-0.7,0-1.3-0.6-1.3-1.3v-14.1c0-0.7,0.6-1.3,1.3-1.3H138c0.7,0,1.3,0.6,1.3,1.3v14.1
			C139.3,242.3,138.7,242.9,138,242.9z"/>
		<path class="st39" d="M135.9,241.1h-6.1c-0.9,0-1.6-0.7-1.6-1.6v-9.8c0-0.9,0.7-1.6,1.6-1.6h6.1c0.9,0,1.6,0.7,1.6,1.6v9.8
			C137.5,240.4,136.8,241.1,135.9,241.1z"/>
	</g>
	<g>
		<polygon class="st40" points="141.6,146.5 225,134.4 308.5,146.5 308.5,148.5 225,160.5 141.6,148.5 		"/>
		<polygon class="st11" points="141.6,148.5 225,136.4 308.5,148.5 225,160.5 		"/>
		<polygon class="st41" points="188.8,150.8 261.3,150.8 265,179.9 185.1,179.9 		"/>
		<path class="st41" d="M225,156.7c20,0,36.2-2.6,36.2-5.9c0-3.2-16.3-5.9-36.2-5.9c-20,0-36.2,2.6-36.2,5.9
			C188.8,154.1,205.1,156.7,225,156.7z"/>
		<path class="st42" d="M225,185.8c22,0,40-2.6,40-5.9c0-3.2-17.9-5.9-40-5.9c-22,0-39.9,2.6-39.9,5.9
			C185.1,183.2,203,185.8,225,185.8z"/>
		<path class="st43" d="M297.1,144.8v11.5v51.6c0,0.7,0.6,1.2,1.2,1.2l0,0c0.7,0,1.2-0.6,1.2-1.2v-63.1v-1.2c0-0.7-0.6-1.2-1.2-1.2
			h-1.2h-17.2L297.1,144.8z"/>
		<path class="st43" d="M298.2,193.2c4.4,0,8,19.9,0,27.9C290.1,213,293.9,193.2,298.2,193.2z"/>
		<path class="st44" d="M297.4,191.8h1.7c0.6,0,1.2,0.5,1.2,1.2l0,0c0,0.6-0.5,1.2-1.2,1.2h-1.7c-0.6,0-1.2-0.5-1.2-1.2l0,0
			C296.2,192.4,296.8,191.8,297.4,191.8z"/>
		<path class="st45" d="M259.3,155.6c-19.6,7.8-43.5,12.4-69.2,12.4c-1.2,0-2.3,0-3.5,0l-1.5,11.8c0.8-3.1,18.4-5.6,39.9-5.6
			s39.1,2.5,39.9,5.6l-3.1-24.5l-0.1-0.6C261,154.9,260.1,155.2,259.3,155.6z"/>
	</g>
	<g>
		<rect x="163.9" y="188.6" class="st46" width="122.2" height="87.6"/>
		<rect x="163.9" y="187.6" class="st47" width="122.2" height="87.6"/>
		<path class="st28" d="M165.5,222.2v43.6c8.7-2.1,18.8-3.3,29.7-3.3s21,1.2,29.7,3.3v-43.6v-39c-8.7-2.1-18.8-3.3-29.7-3.3
			s-21,1.2-29.7,3.3V222.2z"/>
		<path class="st48" d="M224.9,222.2v43.6c8.7-2.1,18.8-3.3,29.7-3.3s21,1.2,29.7,3.3v-43.6v-39c-8.7-2.1-18.8-3.3-29.7-3.3
			s-21,1.2-29.7,3.3V222.2z"/>
		<path class="st49" d="M165.5,268.2c8.7-2.1,18.9-3.4,29.7-3.5c10.8-0.1,21,1.1,29.6,3.1l0-1.3c-8.6-2-18.8-3.1-29.5-3
			c-10.9,0.1-21.1,1.3-29.8,3.5L165.5,268.2z"/>
		<path class="st49" d="M165.5,270.2c8.7-2.1,18.9-3.4,29.7-3.5c10.8-0.1,21,1.1,29.6,3.1l0-1.3c-8.6-2-18.8-3.1-29.5-3
			c-10.9,0.1-21.1,1.3-29.8,3.5L165.5,270.2z"/>
		<path class="st49" d="M165.5,272.2c8.7-2.1,18.9-3.4,29.7-3.5c10.8-0.1,21,1.1,29.6,3.1l0-1.3c-8.6-2-18.8-3.1-29.5-3
			c-10.9,0.1-21.1,1.3-29.8,3.5L165.5,272.2z"/>
		<path class="st50" d="M284.2,268.2c-8.7-2.1-18.9-3.4-29.7-3.5c-10.8-0.1-21,1.1-29.6,3.1l0-1.3c8.6-2,18.8-3.1,29.5-3
			c10.9,0.1,21.1,1.3,29.8,3.5L284.2,268.2z"/>
		<path class="st50" d="M284.2,270.2c-8.7-2.1-18.9-3.4-29.7-3.5c-10.8-0.1-21,1.1-29.6,3.1l0-1.3c8.6-2,18.8-3.1,29.5-3
			c10.9,0.1,21.1,1.3,29.8,3.5L284.2,270.2z"/>
		<path class="st50" d="M284.2,272.2c-8.7-2.1-18.9-3.4-29.7-3.5c-10.8-0.1-21,1.1-29.6,3.1l0-1.3c8.6-2,18.8-3.1,29.5-3
			c10.9,0.1,21.1,1.3,29.8,3.5L284.2,272.2z"/>
		<path class="st51" d="M279,200.6c-7.1-1.8-15.5-2.8-24.5-2.9c-8.9-0.1-17.3,0.9-24.5,2.5l0-1.1c7.1-1.6,15.5-2.6,24.4-2.5
			c9,0.1,17.5,1.1,24.6,2.9L279,200.6z"/>
		<path class="st51" d="M279,209c-7.1-1.8-15.5-2.8-24.5-2.9c-8.9-0.1-17.3,0.9-24.5,2.5l0-1.1c7.1-1.6,15.5-2.6,24.4-2.5
			c9,0.1,17.5,1.1,24.6,2.9L279,209z"/>
		<path class="st51" d="M279,218.7c-7.1-1.8-15.5-2.8-24.5-2.9c-8.9-0.1-17.3,0.9-24.5,2.5l0-1.1c7.1-1.6,15.5-2.6,24.4-2.5
			c9,0.1,17.5,1.1,24.6,2.9L279,218.7z"/>
		<path class="st51" d="M279,228.2c-7.1-1.8-15.5-2.8-24.5-2.9c-8.9-0.1-17.3,0.9-24.5,2.5l0-1.1c7.1-1.6,15.5-2.6,24.4-2.5
			c9,0.1,17.5,1.1,24.6,2.9L279,228.2z"/>
		<path class="st51" d="M279,236.6c-7.1-1.8-15.5-2.8-24.5-2.9c-8.9-0.1-17.3,0.9-24.5,2.5l0-1.1c7.1-1.6,15.5-2.6,24.4-2.5
			c9,0.1,17.5,1.1,24.6,2.9L279,236.6z"/>
		<path class="st51" d="M279,246.3c-7.1-1.8-15.5-2.8-24.5-2.9c-8.9-0.1-17.3,0.9-24.5,2.5l0-1.1c7.1-1.6,15.5-2.6,24.4-2.5
			c9,0.1,17.5,1.1,24.6,2.9L279,246.3z"/>
		<path class="st52" d="M220.8,200.1c-7.1-1.8-15.6-2.8-24.5-2.9c-8.9-0.1-17.3,0.9-24.5,2.5l0-1.1c7.1-1.6,15.5-2.6,24.4-2.5
			c9,0.1,17.5,1.1,24.6,2.9L220.8,200.1z"/>
		<path class="st52" d="M220.8,208.5c-7.1-1.8-15.6-2.8-24.5-2.9c-8.9-0.1-17.3,0.9-24.5,2.5l0-1.1c7.1-1.6,15.5-2.6,24.4-2.5
			c9,0.1,17.5,1.1,24.6,2.9L220.8,208.5z"/>
		<path class="st52" d="M220.8,218.3c-7.1-1.8-15.6-2.8-24.5-2.9c-8.9-0.1-17.3,0.9-24.5,2.5l0-1.1c7.1-1.6,15.5-2.6,24.4-2.5
			c9,0.1,17.5,1.1,24.6,2.9L220.8,218.3z"/>
		<path class="st52" d="M220.8,227.7c-7.1-1.8-15.6-2.8-24.5-2.9c-8.9-0.1-17.3,0.9-24.5,2.5l0-1.1c7.1-1.6,15.5-2.6,24.4-2.5
			c9,0.1,17.5,1.1,24.6,2.9L220.8,227.7z"/>
		<path class="st52" d="M220.8,236.1c-7.1-1.8-15.6-2.8-24.5-2.9c-8.9-0.1-17.3,0.9-24.5,2.5l0-1.1c7.1-1.6,15.5-2.6,24.4-2.5
			c9,0.1,17.5,1.1,24.6,2.9L220.8,236.1z"/>
		<path class="st52" d="M220.8,245.8c-7.1-1.8-15.6-2.8-24.5-2.9c-8.9-0.1-17.3,0.9-24.5,2.5l0-1.1c7.1-1.6,15.5-2.6,24.4-2.5
			c9,0.1,17.5,1.1,24.6,2.9L220.8,245.8z"/>
	</g>
	<g>
		<g>
			<path class="st53" d="M290.1,177.1c-1.4,2.1-3.3,5.9-5.1,10.2c0,0,0,0.1-0.1,0.2l3.1,1.3c0,0,0-0.1,0.1-0.2
				c1.8-4.4,3.2-8.3,3.8-10.8L290.1,177.1z"/>
		</g>
		<path class="st54" d="M287.9,181.2l2.4,1c1.3,0.6,2,2.1,1.5,3.3l0,0.1c-0.5,1.3-2.1,1.8-3.4,1.3l-2.4-1c-1.3-0.6-2-2.1-1.5-3.3
			l0-0.1C285.1,181.2,286.6,180.6,287.9,181.2z"/>
		<path class="st55" d="M284.5,182.5c-4.2,5.5-9.6,15.4-14.5,27c-0.1,0.1-0.1,0.3-0.2,0.4l6.3,2.6l0,0l6.3,2.7
			c0.1-0.1,0.1-0.3,0.2-0.4c4.9-11.7,8.2-22.4,9.2-29.3l-3.6-1.5l0,0L284.5,182.5z"/>
		<path class="st56" d="M282.6,184.6c-0.5,0.8-1.1,1.6-1.6,2.5l5,2.1l0,0l4.7,2c0.2-1,0.5-2,0.7-2.9l-4.2-1.8l0,0L282.6,184.6z"/>
		<path class="st54" d="M276.1,212.6L276.1,212.6l-6.3-2.6c-0.1,0.3-0.2,0.5-0.4,0.8c-9.2,21.9-16.3,41.7-19.6,54l3.6,1.5l0,0
			l3.5,1.5c6.5-10.9,15.8-29.8,25-51.7c0.1-0.3,0.2-0.5,0.4-0.8L276.1,212.6z"/>
		<path class="st53" d="M252.9,272.3c0.7-1.7-0.1-3-0.5-3.2h0h0c-0.4-0.2-2,0.1-2.7,1.9c-0.7,1.7-0.4,4.3,0,4.5l0,0l0,0
			C250.1,275.5,252.1,274,252.9,272.3z"/>
		<path class="st55" d="M257,267.8c-1.5,2.8-3.5,4.8-4.8,6.1c-1.1-0.5-2.2-0.9-3.2-1.4c0-1.8,0-4.7,1-7.7
			C252.3,265.8,254.7,266.8,257,267.8z"/>
		<path class="st56" d="M288,186.9c4.9,2,5.8,1.8,5.6,5.6l-6.8-2.9L288,186.9z"/>
		<path class="st56" d="M291.6,190.2c0.6,3.4-2.5,16.5-6,20.6c-1.8,2.1-2.5,4.1-2.1,4.5c0.4,0.4,2.9-2,3.5-2.5
			c1.9-2,7.1-16.3,6.6-21.8L291.6,190.2z"/>
		<path class="st57" d="M281.2,187.3c-3.5,5.7-7.5,13.4-11.2,22.2c-0.1,0.1-0.1,0.3-0.2,0.4l6.3,2.6l9.9-23.4L281.2,187.3z"/>
		<path class="st58" d="M276.1,212.6l-6.3-2.6l0,0c-0.1,0.3-0.2,0.5-0.4,0.8c-9.2,21.9-16.3,41.7-19.6,54l0,0
			c0.2,0.1,0.4,0.2,0.6,0.2l2.9,1.2L276.1,212.6z"/>
		<path class="st57" d="M250.6,265.1l-0.6-0.2c-1,3-1.1,5.9-1,7.7c0.1,0,0.2,0.1,0.3,0.1c0.5,0.2,0.9,0.4,1.3,0.6l1.8-4.1l1.1-2.7
			C252.5,265.9,251.5,265.5,250.6,265.1z"/>
		<path class="st57" d="M282.9,184.8l2.7,1.1l1.5,0.6l0-0.1l1-2.4l-1.5-0.6l-2.2-0.9C284,183.2,283.5,183.9,282.9,184.8z"/>
		<path class="st58" d="M284.5,182.5l2.2,0.9l1.5,0.6l1-2.3l-1.2-0.5c0,0-0.1,0-0.1-0.1C286.5,180.7,285.1,181.3,284.5,182.5z"/>
	</g>
	<g>
		<polygon class="st59" points="271.6,276.2 276.9,271.7 282.3,267.1 283.8,264.6 276.5,260 274.9,262.6 273.2,269.4 		"/>
		<polygon class="st23" points="273.7,274.4 272.2,273.5 271.6,276.2 		"/>
		<path class="st60" d="M340.9,163.3l0.2,0.1c2,1.2,2.6,3.9,1.4,5.8l-60.2,97.9l0,0c0.2-0.6,0-1.4-0.6-1.7c-0.6-0.4-1.4-0.3-1.8,0.2
			c0.3-0.6,0-1.4-0.6-1.8c-0.6-0.4-1.4-0.2-1.9,0.3c0.3-0.6,0.1-1.5-0.6-1.8c-0.6-0.4-1.5-0.3-1.9,0.3l60.2-97.9
			C336.3,162.7,338.9,162,340.9,163.3z"/>
		
			<rect x="335.3" y="165.2" transform="matrix(0.5232 -0.8522 0.8522 0.5232 16.2412 368.163)" class="st61" width="3.8" height="8.7"/>
		<path class="st62" d="M281.6,265.4c0.6,0.4,0.9,1.1,0.6,1.7l0,0l57.6-93.7l-2.5-1.5l-56.1,91.2l-1.5,2.5
			C280.3,265.1,281,265,281.6,265.4z"/>
		<path class="st62" d="M276.7,262.3c0.6,0.4,0.8,1.1,0.6,1.7l0,0l57.6-93.7l-2.5-1.5l-56.1,91.2l-1.5,2.5
			C275.3,262.1,276.1,262,276.7,262.3z"/>
	</g>
	<path class="st40" d="M386.1,241.6l-1.1,3l-0.5,3c0,0,3.9,2.3,6.1,3c2.3,0.7,4.2-0.3,3.6-0.9c-0.6-0.6-5.6-4.2-5.6-4.2L386.1,241.6
		z"/>
	<path class="st63" d="M359.7,206.8c1.2,0,15,0.8,15,0.8s17.6,1.4,19.9,3.9s-6,34.4-6,34.4l-3.9-1l1.2-26.3c-4-0.2-28.6,3-28.7-0.7
		C357.3,216.9,359.7,206.8,359.7,206.8z"/>
	<path class="st64" d="M368.9,170.7c-11.6,5.5-15.7,34.7-11.6,47.2l13.4-10.5c-3-14,4.5-23.1,3-30.1
		C372.7,173,369.8,170.7,368.9,170.7z"/>
	<path class="st9" d="M379.8,172.2c-2.8,2.8-4.9,2.8-6.4,0.1c-1.3-2.3-1.6-5-1.3-7.5c-0.7-0.2-1.2-1.2-1.1-2.2c0.1-1.3,1-2.3,2-2.3
		c0.2,0,0.4,0,0.6,0.1c0.6-1,1.3-1.9,2-2.9c1.4-1.8,7.5-0.2,8.9,2.4C386.2,163.2,381.7,170.2,379.8,172.2z"/>
	<path class="st11" d="M376.7,159.6c-0.4,0.1-2.2,3.8-2.6,3.6s-0.6-2.7-0.6-2.7s0-0.1-0.6-0.1c-0.6,0-1,0.4-1,0.4s0.5-4.3,1.2-4.9
		c0.7-0.6,2.7-0.5,2.7-0.5s0.6-0.7,2-1s3.8,1,7.1,2.7c3.3,1.6,4.2,5,0,5.2C381,162.4,376.7,159.6,376.7,159.6z"/>
	
		<rect x="382.6" y="199.1" transform="matrix(0.1091 -0.994 0.994 0.1091 134.4281 566.2608)" class="st65" width="1" height="18.2"/>
	<polygon class="st66" points="401.1,193.2 401.1,191.9 398,192.3 392.4,208.8 394.6,209.4 395.8,209.3 	"/>
	
		<rect x="385.3" y="199.4" transform="matrix(0.1091 -0.994 0.994 0.1091 136.5103 569.1962)" class="st67" width="1" height="18.2"/>
	
		<rect x="389.4" y="200.1" transform="matrix(0.3389 -0.9408 0.9408 0.3389 74.6808 507.4766)" class="st40" width="18.2" height="1"/>
	<path class="st9" d="M380.9,204.9c0.4,0,1.6,0,2,0c0.3,0,3.4-0.2,3.8,0c0.2,0.1,1.2,0.6,2.1,1.4c0.5,0.4,1.5,1.6,1.7,1.7
		c0.2,0.2-0.5,0.4-0.9,0.3c-0.4-0.2-1.3-1.3-1.3-1.3c-0.2-0.1-0.3-0.1-0.5-0.2c0.1,0.1,0.2,0.3,0.2,0.3c0.1,0.3,0.1,1,0,1
		s-0.4,0.1-0.8-0.1c-0.2-0.1-0.6-0.5-0.8-0.9c-0.6,0.8-2.9,0.8-3.7,0.6c-0.9-0.2-1.4-0.8-1.4-0.8L380.9,204.9z"/>
	<path class="st68" d="M363.9,193.5l18.9,11.4l-1.6,2l-22.3-10.2c-2.6-1.2,3.1-19.3,4.4-22.5c1.1-2.7,3.9-3.3,5.6-2.6
		C373.2,173.4,364.2,191.7,363.9,193.5z"/>
	<g>
		<path class="st9" d="M126.2,163.8c-0.1,0-0.6-3.7-0.3-4.3c0.4-0.7,1.8-2,1.8-1.5c0,0.5-0.6,1.6-0.6,1.6l0.1,0.9
			c0,0,1.7-3.4,2.2-3.8c0.5-0.5,0.8-0.2,0.8-0.2s0.6-0.7,0.9-0.6s0.3,0.6,0.3,0.7c0,0.1,0,0.2,0,0.2s0.2-0.1,0.3,0.2
			s0.1,0.7,0.1,0.7s0.2,0,0.3,0.4c0.1,0.4,0,0.6,0,0.6c0,0.1-1.2,2.6-1.2,2.7c0,0.1,0,0.7-0.5,1.6c-0.6,0.9-2,1.9-2,1.9
			C126.1,164.4,126.3,163.8,126.2,163.8z"/>
		<path class="st69" d="M109.3,163.8c0.5,0.2,10.9,11.4,11.2,11.5c0.3,0.1,5.4-11.5,5.7-11.5c0.3,0.1,2.5,0.9,2.5,0.9
			s-5.5,15.3-6.2,16.3c-0.7,1-11.3-5.6-14.3-9.5c-3-3.9-3-6.9-1.9-7.7C107.5,162.9,109.3,163.8,109.3,163.8z"/>
		<path class="st9" d="M132.2,175.2c0.5,0.1,1,0.2,1.4,0.2c1,0,1.9-0.5,1.6,0.1c-0.2,0.3-1.4,0.9-2.6,1.4L132.2,175.2z"/>
		<path class="st70" d="M132.4,175.8c0,0,8-0.4,9.7,6.6l10.7-12.8c0,0-4.5-5.9-10.2-4.3L132.4,175.8z"/>
		<path class="st71" d="M107.8,193c-1.6,1-4.1,2-6.2,10.2s1.3,31.1,1.3,31.1s-2.8,9.2-4,16.8c-1.2,7.7-2.6,18-2.6,18l3.6,1.1
			l10.3-34c3.6-12,3.4-39.8,2.3-40.5L107.8,193z"/>
		<path class="st72" d="M107.4,269.5l-0.9,1.6l-0.4,1.7c0,0,1.8,2.5,3.6,2.3s2.1-1.2,2.1-1.2l-1.6-2.3L107.4,269.5z"/>
		<path class="st31" d="M106.1,272.8c-0.5,0.1-0.9,2.8-0.4,3.4c0.9,0,1.9,0,2.8,0c0.2,0,0.4,0,0.6,0c1.6,0,5.4,0.1,6.7,0
			c1.2-0.1,3.2-1,1.1-1.5c-2.1-0.5-5.8-2-5.8-2C110.5,274.7,107.1,273.7,106.1,272.8z"/>
		<path class="st73" d="M101.7,192c-1.3,1.3-3.6,2.8-4,11.2s7.6,30.2,7.6,30.2s-0.9,9.6-0.5,17.3c0.4,7.8,1.4,21,1.4,21l4.1,0.1
			l2.6-38c0,0,1.5-18.3,1.6-25.5c0.2-7.2-2.7-15.1-2.7-15.1L101.7,192z"/>
		<path class="st11" d="M98.7,146.6c-0.2,0.6,0.7,3.4,1.4,4.9s2.7,2.4,2.7,2.2c0-0.2-0.6-5.8-0.6-5.8L98.7,146.6z"/>
		<path class="st13" d="M106.6,153.3c0,0,0.8,0.8,1.5,4.1c0.5,2.1,1.6,4.1,3.4,5.6c0,0,0.4,3.1-8.8-1.8l-0.2-9.6L106.6,153.3z"/>
		<path class="st9" d="M112.6,153.9c-0.6,3.8-2.3,5-5,3.7c-2.3-1.1-4.1-3.1-5.2-5.3c-0.7,0.2-1.6-0.2-2.2-1.2
			c-0.6-1.1-0.5-2.4,0.3-3c0.2-0.1,0.4-0.2,0.6-0.2c-0.1-1.2,0-2.3,0-3.4c0.1-2.2,5.9-4.4,8.5-3
			C112.8,143.1,113.1,151.1,112.6,153.9z"/>
		<path class="st74" d="M103.1,145.5c-0.2,0.3,0.4,4.3-0.1,4.3c-0.4,0-2-1.8-2-1.8s-0.1-0.1-0.6,0.2c-0.5,0.3-0.6,0.9-0.6,0.9
			s-2-3.7-1.8-4.5c0.2-0.8,1.8-1.9,1.8-1.9s0.1-0.9,1-1.9c0.9-1,3.6-1.3,7.2-1.9c3.6-0.6,6.1,1.6,2.9,4.2
			C108.2,145.3,103.1,145.5,103.1,145.5z"/>
		<path class="st75" d="M105.7,159.6c2.4,0.7,2.2,3.3,5.8,3.3c0,0,4,5.8,5,7.8c1.7,3.4-1.7,5.6-2.1,7.8s-0.5,22.1,0.1,23.3
			c0.6,1.2-17.3-1.8-16.1-4.2c1.2-2.3,2-11.9,2.4-20.1c0.4-8.2-0.7-11.4-0.2-14.4C101,160,102.9,158.7,105.7,159.6z"/>
		<path class="st74" d="M105.1,142.5c-0.5,0.6-1.4,2.6-0.2,7.8c1.3,5.1,0.2,8.7-2.6,11.8s-0.9,13.1-1.5,10.9
			c-0.6-2.2-5.4-5.8-3.8-11.2c1.6-5.5,2.4-8.2,1.7-9.5c-0.8-1.3-2.3-5.3-1.3-7.5c1-2.2,2.2-2.3,2.2-2.7c0.1-0.4,0.9-1.7,2.3-2.4
			c1.4-0.7,6.4-2.2,8.2-1c1.9,1.1,2.1,2.3,0.4,3.8C108.8,143.8,105.1,142.5,105.1,142.5z"/>
		<path class="st72" d="M96.5,268.8l-0.8,1.5c0,0,1.1,2.8,2.9,3.1s2.4-0.7,2.4-0.7l-1-2.6L96.5,268.8z"/>
		<path class="st31" d="M95.7,270.4c-0.5,0-1.6,2.5-1.3,3.2c0.9,0.2,1.8,0.5,2.7,0.7c0.2,0,0.3,0.1,0.5,0.1c1.6,0.4,5.2,1.5,6.5,1.7
			c1.2,0.2,3.3-0.2,1.4-1.2c-1.9-1-5.1-3.4-5.1-3.4C99.6,273.3,96.4,271.5,95.7,270.4z"/>
		<path class="st76" d="M108,163.7c0,0-1.7-3.6-4.5-1.8c-2.8,1.8,7.1,25,8.9,25c1.8,0,18.1-8.6,18.1-8.6l-1.1-2.3
			c0,0-15.7,6-15.8,5.1C113.3,180.3,108,163.7,108,163.7z"/>
		<path class="st70" d="M132.4,175.8c0,0-6.2-4.6-8.8-3.5l10.3-10.1c0,0,5.6-1.4,8.6,3.1L132.4,175.8z"/>
		<path class="st77" d="M142.5,165.4c0,0,5.6-2.9,9,1.9l-9,10c0,0-5.8-3.8-9.9-1.8L142.5,165.4z"/>
		<path class="st78" d="M142.5,165.4c0,0,4.1-3.4,7.2-2l-8.6,9.3c0,0-4.4-0.9-8.5,2.8L142.5,165.4z"/>
		<path class="st79" d="M132.7,175.5c0,0-3.3-3.9-6.9-4.1l9.7-9.5c0,0,5-1,7.1,3.6L132.7,175.5z"/>
		<path class="st80" d="M132,166.8v-0.2c0,0,0,0,0,0c3.1,0,4.7,2.5,4.7,2.6l-0.2,0.1C136.5,169.3,135.1,166.8,132,166.8
			C132,166.8,132,166.8,132,166.8z"/>
		<path class="st80" d="M130.9,168.1v-0.2c0,0,0,0,0,0c3.1,0,4.7,2.5,4.7,2.6l-0.2,0.1C135.4,170.5,134,168.1,130.9,168.1
			C130.9,168.1,130.9,168.1,130.9,168.1z"/>
		<path class="st80" d="M134.5,171.7l-0.2,0.1c0,0-1.5-2.5-4.5-2.5c0,0,0,0,0,0v-0.2C132.9,169.1,134.4,171.7,134.5,171.7z"/>
		<path class="st9" d="M129.3,176.1c0.3-1.8,2-5,2.1-4.2c0.2,1,0,2.6,0,2.9c0,0.3,0.2,0.6,1.3,1l-0.1,1.1c-1,0.4-1.7,0.8-2.3,1.2
			C130.3,178.1,129.3,176.2,129.3,176.1z"/>
	</g>
</g>
</svg>
