<?xml version="1.0" encoding="utf-8"?>
<!-- Generator: Adobe Illustrator 23.0.6, SVG Export Plug-In . SVG Version: 6.00 Build 0)  -->
<svg version="1.1" id="Layer_1" xmlns="http://www.w3.org/2000/svg" xmlns:xlink="http://www.w3.org/1999/xlink" x="0px" y="0px"
	 viewBox="0 0 983.07 227.54" style="enable-background:new 0 0 983.07 227.54;" xml:space="preserve">
<style type="text/css">
	.st0{fill:#5E60CE;}
</style>
<g>
	<g>
		<path class="st0" d="M106.8,23.59c3.72,0,6.79,1.22,9.22,3.65c2.43,2.43,3.65,5.58,3.65,9.44v132.54c0,3.72-1.22,6.83-3.65,9.33
			c-2.43,2.5-5.51,3.75-9.22,3.75c-3.72,0-6.79-1.25-9.22-3.75c-2.43-2.5-3.65-5.61-3.65-9.33V158.7l4.72,1.93c0,1.86-1,4.11-3,6.75
			c-2,2.65-4.72,5.25-8.15,7.83c-3.43,2.57-7.47,4.75-12.12,6.54c-4.65,1.79-9.69,2.68-15.12,2.68c-9.87,0-18.8-2.54-26.81-7.61
			c-8.01-5.07-14.34-12.08-18.98-21.02c-4.65-8.93-6.97-19.19-6.97-30.77c0-11.72,2.32-22.05,6.97-30.99
			c4.64-8.93,10.9-15.94,18.77-21.02c7.86-5.07,16.58-7.61,26.16-7.61c6.15,0,11.8,0.93,16.94,2.79c5.15,1.86,9.61,4.22,13.4,7.08
			c3.79,2.86,6.72,5.76,8.79,8.69c2.07,2.93,3.11,5.4,3.11,7.4l-7.72,2.79V36.67c0-3.72,1.21-6.83,3.65-9.33
			C100.01,24.84,103.08,23.59,106.8,23.59z M63.48,160.84c6.29,0,11.8-1.57,16.51-4.72c4.72-3.14,8.4-7.43,11.04-12.87
			c2.64-5.43,3.97-11.51,3.97-18.23c0-6.86-1.32-13.01-3.97-18.44c-2.65-5.43-6.33-9.72-11.04-12.87C75.28,90.57,69.77,89,63.48,89
			c-6.15,0-11.58,1.57-16.3,4.72c-4.72,3.15-8.4,7.44-11.04,12.87c-2.65,5.44-3.97,11.58-3.97,18.44c0,6.72,1.32,12.8,3.97,18.23
			c2.64,5.44,6.33,9.72,11.04,12.87C51.9,159.27,57.33,160.84,63.48,160.84z"/>
		<path class="st0" d="M202.66,184.43c-12.15,0-22.7-2.54-31.63-7.61c-8.94-5.07-15.8-11.97-20.59-20.7
			c-4.79-8.72-7.18-18.58-7.18-29.6c0-12.87,2.61-23.84,7.83-32.92c5.22-9.08,12.04-16.05,20.48-20.91
			c8.43-4.86,17.37-7.29,26.81-7.29c7.29,0,14.19,1.5,20.7,4.5c6.5,3,12.26,7.11,17.26,12.33c5,5.22,8.97,11.26,11.9,18.12
			c2.93,6.86,4.4,14.15,4.4,21.88c-0.14,3.43-1.5,6.22-4.07,8.36c-2.57,2.14-5.58,3.22-9.01,3.22h-81.92l-6.43-21.45h78.71
			l-4.72,4.29v-5.79c-0.29-4.15-1.75-7.86-4.4-11.15c-2.65-3.29-5.93-5.9-9.87-7.83c-3.93-1.93-8.12-2.9-12.55-2.9
			c-4.29,0-8.29,0.57-12.01,1.72c-3.72,1.15-6.94,3.08-9.65,5.79c-2.72,2.72-4.86,6.36-6.43,10.94c-1.58,4.58-2.36,10.37-2.36,17.37
			c0,7.72,1.61,14.26,4.83,19.62s7.36,9.44,12.44,12.22c5.07,2.79,10.47,4.18,16.19,4.18c5.29,0,9.51-0.43,12.65-1.29
			c3.14-0.86,5.68-1.89,7.61-3.11c1.93-1.21,3.68-2.25,5.25-3.11c2.57-1.29,5-1.93,7.29-1.93c3.14,0,5.75,1.07,7.83,3.22
			c2.07,2.15,3.11,4.65,3.11,7.51c0,3.86-2,7.37-6,10.51c-3.72,3.15-8.94,5.9-15.66,8.26C216.74,183.25,209.81,184.43,202.66,184.43
			z"/>
		<path class="st0" d="M322.76,65.41c6,0,11.51,0.93,16.51,2.79c5,1.86,9.33,4.22,12.98,7.08c3.65,2.86,6.5,5.76,8.58,8.69
			c2.07,2.93,3.11,5.4,3.11,7.4l-5.58,2.79V78.49c0-3.72,1.21-6.83,3.65-9.33c2.43-2.5,5.5-3.75,9.22-3.75
			c3.72,0,6.79,1.22,9.22,3.65c2.43,2.43,3.65,5.58,3.65,9.44v95.44c0,12.44-2.68,22.41-8.04,29.92
			c-5.36,7.51-12.41,12.94-21.12,16.3c-8.72,3.36-18.09,5.04-28.09,5.04c-2.86,0-6.58-0.36-11.15-1.07
			c-4.58-0.72-8.94-1.58-13.08-2.57c-4.15-1-7.29-1.93-9.44-2.79c-4.29-1.86-7.26-4.18-8.9-6.97c-1.65-2.79-1.97-5.76-0.97-8.9
			c1.29-4.15,3.36-6.97,6.22-8.47c2.86-1.5,5.86-1.68,9.01-0.54c1.43,0.43,3.79,1.29,7.08,2.57c3.29,1.29,6.9,2.47,10.83,3.54
			c3.93,1.07,7.4,1.61,10.4,1.61c10.72,0,18.66-2.14,23.81-6.43c5.15-4.29,7.72-10.22,7.72-17.8V158.7l2.57,1.93
			c0,1.86-0.97,4.11-2.9,6.75c-1.93,2.65-4.58,5.25-7.94,7.83c-3.36,2.57-7.33,4.75-11.9,6.54c-4.58,1.79-9.44,2.68-14.58,2.68
			c-10.15,0-19.3-2.54-27.45-7.61c-8.15-5.07-14.58-12.08-19.3-21.02c-4.72-8.93-7.08-19.19-7.08-30.77
			c0-11.72,2.36-22.05,7.08-30.99c4.72-8.93,11.08-15.94,19.09-21.02C303.96,67.95,312.89,65.41,322.76,65.41z M326.83,89
			c-6.43,0-12.08,1.57-16.94,4.72c-4.86,3.15-8.65,7.44-11.37,12.87c-2.72,5.44-4.07,11.58-4.07,18.44c0,6.72,1.36,12.8,4.07,18.23
			c2.71,5.44,6.5,9.72,11.37,12.87c4.86,3.15,10.51,4.72,16.94,4.72c6.57,0,12.29-1.57,17.16-4.72c4.86-3.14,8.65-7.43,11.37-12.87
			c2.71-5.43,4.07-11.51,4.07-18.23c0-6.86-1.36-13.01-4.07-18.44c-2.72-5.43-6.51-9.72-11.37-12.87
			C339.13,90.57,333.41,89,326.83,89z"/>
		<path class="st0" d="M426.99,182.29c-3.72,0-6.79-1.25-9.22-3.75c-2.43-2.5-3.65-5.61-3.65-9.33V80.64c0-3.72,1.21-6.83,3.65-9.33
			c2.43-2.5,5.5-3.75,9.22-3.75c3.72,0,6.79,1.25,9.22,3.75c2.43,2.5,3.65,5.61,3.65,9.33v20.16l-1.5-14.37
			c1.57-3.43,3.61-6.47,6.11-9.11c2.5-2.64,5.32-4.86,8.47-6.65c3.14-1.79,6.5-3.11,10.08-3.97c3.57-0.86,7.15-1.29,10.72-1.29
			c4.29,0,7.9,1.22,10.83,3.65c2.93,2.43,4.4,5.29,4.4,8.58c0,4.72-1.22,8.12-3.65,10.19c-2.43,2.07-5.08,3.11-7.94,3.11
			c-2.72,0-5.18-0.5-7.4-1.5c-2.22-1-4.75-1.5-7.61-1.5c-2.57,0-5.18,0.61-7.83,1.82c-2.65,1.22-5.08,3.11-7.29,5.68
			c-2.22,2.57-4,5.76-5.36,9.54c-1.36,3.79-2.04,8.26-2.04,13.4v50.83c0,3.72-1.22,6.83-3.65,9.33
			C433.77,181.04,430.7,182.29,426.99,182.29z"/>
		<path class="st0" d="M562.31,184.43c-12.15,0-22.7-2.54-31.63-7.61c-8.94-5.07-15.8-11.97-20.59-20.7
			c-4.79-8.72-7.18-18.58-7.18-29.6c0-12.87,2.61-23.84,7.83-32.92c5.22-9.08,12.04-16.05,20.48-20.91
			c8.43-4.86,17.37-7.29,26.81-7.29c7.29,0,14.19,1.5,20.7,4.5c6.5,3,12.26,7.11,17.26,12.33c5,5.22,8.97,11.26,11.9,18.12
			c2.93,6.86,4.4,14.15,4.4,21.88c-0.14,3.43-1.5,6.22-4.07,8.36c-2.57,2.14-5.58,3.22-9.01,3.22h-81.92l-6.43-21.45h78.71
			l-4.72,4.29v-5.79c-0.29-4.15-1.75-7.86-4.4-11.15c-2.65-3.29-5.93-5.9-9.87-7.83c-3.93-1.93-8.12-2.9-12.54-2.9
			c-4.29,0-8.29,0.57-12.01,1.72c-3.72,1.15-6.94,3.08-9.65,5.79c-2.72,2.72-4.86,6.36-6.43,10.94c-1.58,4.58-2.36,10.37-2.36,17.37
			c0,7.72,1.61,14.26,4.83,19.62s7.36,9.44,12.44,12.22c5.07,2.79,10.47,4.18,16.19,4.18c5.29,0,9.51-0.43,12.65-1.29
			c3.14-0.86,5.68-1.89,7.61-3.11c1.93-1.21,3.68-2.25,5.26-3.11c2.57-1.29,5-1.93,7.29-1.93c3.14,0,5.75,1.07,7.83,3.22
			c2.07,2.15,3.11,4.65,3.11,7.51c0,3.86-2,7.37-6.01,10.51c-3.72,3.15-8.94,5.9-15.65,8.26
			C576.39,183.25,569.46,184.43,562.31,184.43z"/>
		<path class="st0" d="M688.84,184.43c-12.15,0-22.7-2.54-31.63-7.61c-8.94-5.07-15.8-11.97-20.59-20.7
			c-4.79-8.72-7.18-18.58-7.18-29.6c0-12.87,2.61-23.84,7.83-32.92c5.22-9.08,12.04-16.05,20.48-20.91
			c8.43-4.86,17.37-7.29,26.81-7.29c7.29,0,14.19,1.5,20.7,4.5c6.5,3,12.26,7.11,17.26,12.33c5,5.22,8.97,11.26,11.9,18.12
			c2.93,6.86,4.4,14.15,4.4,21.88c-0.14,3.43-1.5,6.22-4.08,8.36s-5.58,3.22-9.01,3.22H643.8l-6.43-21.45h78.71l-4.72,4.29v-5.79
			c-0.29-4.15-1.75-7.86-4.4-11.15c-2.65-3.29-5.93-5.9-9.87-7.83c-3.93-1.93-8.12-2.9-12.55-2.9c-4.29,0-8.29,0.57-12.01,1.72
			c-3.72,1.15-6.94,3.08-9.65,5.79c-2.72,2.72-4.86,6.36-6.43,10.94c-1.58,4.58-2.36,10.37-2.36,17.37c0,7.72,1.61,14.26,4.83,19.62
			c3.22,5.36,7.36,9.44,12.44,12.22c5.07,2.79,10.47,4.18,16.19,4.18c5.29,0,9.51-0.43,12.65-1.29c3.14-0.86,5.68-1.89,7.61-3.11
			c1.93-1.21,3.68-2.25,5.25-3.11c2.57-1.29,5-1.93,7.29-1.93c3.14,0,5.75,1.07,7.83,3.22c2.07,2.15,3.11,4.65,3.11,7.51
			c0,3.86-2,7.37-6,10.51c-3.72,3.15-8.94,5.9-15.66,8.26C702.92,183.25,695.99,184.43,688.84,184.43z"/>
		<path class="st0" d="M773.76,182.08c-4.15,0-7.33-1.11-9.54-3.32c-2.22-2.21-3.32-5.39-3.32-9.54v-3.65
			c0-4.15,1.11-7.33,3.32-9.54c2.21-2.21,5.4-3.32,9.54-3.32h2.79c4.14,0,7.33,1.11,9.54,3.32c2.21,2.22,3.32,5.4,3.32,9.54v3.65
			c0,4.15-1.11,7.33-3.32,9.54c-2.22,2.22-5.4,3.32-9.54,3.32H773.76z"/>
		<path class="st0" d="M845.82,169.21c0,3.72-1.25,6.83-3.75,9.33c-2.5,2.5-5.61,3.75-9.33,3.75c-3.58,0-6.58-1.25-9.01-3.75
			c-2.43-2.5-3.65-5.61-3.65-9.33V36.67c0-3.72,1.25-6.83,3.75-9.33c2.5-2.5,5.61-3.75,9.33-3.75c3.72,0,6.75,1.25,9.11,3.75
			c2.36,2.5,3.54,5.61,3.54,9.33V169.21z"/>
		<path class="st0" d="M963.13,67.55c3.72,0,6.79,1.25,9.22,3.75c2.43,2.5,3.65,5.61,3.65,9.33v91.15c0,13.15-2.47,23.62-7.4,31.42
			c-4.93,7.79-11.55,13.4-19.84,16.83c-8.29,3.43-17.59,5.15-27.88,5.15c-4.58,0-9.44-0.36-14.58-1.07
			c-5.15-0.72-9.37-1.79-12.65-3.22c-4.29-1.86-7.26-4.18-8.9-6.97c-1.65-2.79-1.97-5.76-0.96-8.9c1.29-4.15,3.36-6.97,6.22-8.47
			c2.86-1.5,5.86-1.68,9.01-0.54c2.29,0.71,5.29,1.82,9.01,3.32c3.72,1.5,8,2.25,12.87,2.25c6.58,0,12.04-0.89,16.41-2.68
			c4.36-1.79,7.65-4.79,9.87-9.01c2.21-4.22,3.32-9.97,3.32-17.26v-14.37l4.5,5.15c-2.43,4.72-5.47,8.62-9.11,11.69
			c-3.65,3.08-7.97,5.4-12.98,6.97c-5.01,1.57-10.72,2.36-17.16,2.36c-7.58,0-14.19-1.75-19.84-5.25
			c-5.65-3.5-10.05-8.36-13.19-14.58c-3.15-6.22-4.72-13.33-4.72-21.34V80.64c0-3.72,1.21-6.83,3.65-9.33
			c2.43-2.5,5.5-3.75,9.22-3.75c3.72,0,6.79,1.25,9.22,3.75c2.43,2.5,3.65,5.61,3.65,9.33v54.9c0,9.29,2.04,15.84,6.11,19.62
			c4.08,3.79,9.76,5.68,17.05,5.68c5,0,9.22-0.96,12.65-2.9c3.43-1.93,6.08-4.79,7.94-8.58c1.86-3.79,2.79-8.4,2.79-13.83v-54.9
			c0-3.72,1.21-6.83,3.65-9.33C956.34,68.81,959.41,67.55,963.13,67.55z"/>
	</g>
</g>
</svg>
