<?xml version="1.0" encoding="utf-8"?>
<!-- Generator: Adobe Illustrator 23.0.6, SVG Export Plug-In . SVG Version: 6.00 Build 0)  -->
<svg version="1.1" id="Layer_1" xmlns="http://www.w3.org/2000/svg" xmlns:xlink="http://www.w3.org/1999/xlink" x="0px" y="0px"
	 viewBox="0 0 634.3 516.6" style="enable-background:new 0 0 634.3 516.6;" xml:space="preserve">
<style type="text/css">
	.st0{fill:#A8D29F;}
	.st1{fill:#AFCDFB;}
	.st2{fill:#599DAD;}
	.st3{fill:#6BB7BF;}
	.st4{fill:#86D1CD;}
	.st5{fill:#EFCBAB;}
	.st6{fill:#FFEBDC;}
	.st7{fill:#EFCDAF;}
	.st8{fill:#9ABCEF;}
	.st9{fill:#E9F3FE;}
	.st10{fill:#D8E8FD;}
	.st11{fill:#BBD5FC;}
	.st12{fill:#D2E4FD;}
	.st13{fill:#C65447;}
	.st14{fill:#FFB27D;}
	.st15{fill:#E58638;}
	.st16{fill:#233862;}
	.st17{fill:#2B478B;}
	.st18{fill:#EE9849;}
	.st19{fill:#ED985F;}
	.st20{fill:#2C3A64;}
</style>
<path class="st0" d="M0,516c0,0,2.8-18.1,38-22.9c35.2-4.9,67.9-43.8,126-38.2c58.1,5.7,106.2,41.1,172.3,30.3
	c66.1-10.9,107.5,3,122.3,13.9c14.8,10.9,76.2-2.6,80.7,17.5L0,516z"/>
<path class="st1" d="M144.7,85.5c0,0-39.7-1.9-18.7,119.1c0,0,14.2,41.1-3.7,67.6h263.5V85.5H144.7z"/>
<path class="st2" d="M171.8,400.2c0,0-18.4-21.5-1.1-35.1c0,0,12.6-7.6,22.9-7c0,0-14.6,24.4-9.9,26.9c4.7,2.4,14.3-28.4,14.3-28.4
	s28.7-2.8,37.9,1.7c0,0-24.5,20.1-19.4,21.3c5.2,1.2,31.7-18.5,31.7-18.5s26.7,4.5,25.3,20.8c-1.4,16.3-10.6,21.3-14.7,20.9
	c-4-0.4-27.7-9.5-28.2-6.2c-0.5,3.3,13.7,14.1,23.7,14.7c0,0-18.8,20.8-31.4,14.8c-12.5-6-13.6-15.5-21.4-19.1
	c-7.8-3.6-14.5-3.6-11.2,0.1c3.2,3.6,17.3,7.2,21.8,15.1c4.5,7.9,8.5,13.2-4.5,11.3c-13-1.9-34-11.4-34.9-22.3
	C171.8,400.2,171.8,400.2,171.8,400.2z"/>
<path class="st2" d="M260.4,382.2c0,0-72.6-2.8-88.6,18c0,0-3.5,10.6-14.5,20.3l-1.7,4.6c0,0,12.6-13.3,17.1-14.1
	C172.7,411,165.7,385.3,260.4,382.2z"/>
<path class="st2" d="M157.3,420.4c0,0-15.6,11.5-16.7,32.1l2.8,0.3c0,0,5-21.3,14-29.6C166.4,414.9,157.3,420.4,157.3,420.4z"/>
<path class="st3" d="M107.4,373.2c0,0,29.3-16.4,15.6-38.6c0,0-10.9-13.7-22.6-17.2c0,0,6.2,33.2,0,34c-6.2,0.8-4.3-37.5-4.3-37.5
	S65.2,299,53.1,300.2c0,0,19.1,32.4,12.9,31.6c-6.2-0.8-27.7-33.6-27.7-33.6s-31.6-5.9-36.7,12.9c-5.1,18.7,3.1,28.1,7.8,29.3
	c4.7,1.2,34.7,0.8,34,4.7c-0.8,3.9-21.1,10.1-32.4,6.6c0,0,12.5,30.8,28.9,29.3c16.4-1.6,21.5-11.7,31.6-12.5
	c10.2-0.8,17.6,2,12.5,4.7c-5.1,2.7-22.3,0.9-30.5,7.9c-8.2,7-14.8,11.3,0.4,14.4c15.2,3.1,42.6,1.2,48-10.5
	C107.4,373.2,107.4,373.2,107.4,373.2z"/>
<path class="st3" d="M16,317c0,0,82,26.5,91.4,56.2c0,0-0.4,13.3,7.8,28.5v5.9c0,0-8.6-19.9-13.3-22.6
	C101.9,384.9,120.3,359.1,16,317z"/>
<path class="st3" d="M115.2,401.7c0,0,12.6,19.2,5.4,42.6l-3.3-0.9c0,0,3.2-25.7-3.5-38.7C107.3,391.7,115.2,401.7,115.2,401.7z"/>
<path class="st4" d="M154,350.6c0,0-38.6-21.6-20.6-50.9c0,0,14.4-18,29.8-22.6c0,0-8.2,43.7,0,44.8c8.2,1,5.7-49.4,5.7-49.4
	s40.7-19.5,56.6-18c0,0-25.2,42.7-17,41.7c8.2-1,36.5-44.2,36.5-44.2s41.7-7.7,48.4,17c6.7,24.7-4.1,37-10.3,38.6
	c-6.2,1.5-45.8,1-44.8,6.2c1,5.1,27.8,13.4,42.7,8.7c0,0-16.5,40.6-38.1,38.6c-21.6-2.1-28.3-15.4-41.7-16.5
	c-13.4-1-23.2,2.6-16.5,6.2c6.7,3.6,29.3,1.2,40.1,10.4s19.6,14.8-0.5,19c-20.1,4.1-56.1,1.5-63.3-13.9
	C154,350.6,154,350.6,154,350.6z"/>
<path class="st3" d="M274.4,276.5c0,0-108.1,35-120.4,74.1c0,0,0.5,17.5-10.3,37.5v7.7c0,0,11.3-26.2,17.5-29.8
	C161.2,366,137,332.1,274.4,276.5z"/>
<path class="st3" d="M143.7,388.1c0,0-16.7,25.3-7.2,56.1l4.3-1.1c0,0-4.2-33.9,4.6-51C154.1,375,143.7,388.1,143.7,388.1z"/>
<path class="st5" d="M152.7,511c41.8,0,75.6-33.8,75.6-75.6H77.1C77.1,477.2,110.9,511,152.7,511z"/>
<path class="st6" d="M171.3,510.4c-3.1,0.4-6.2,0.6-9.4,0.6c-41.8,0-75.6-33.8-75.6-75.6h18.8C105.1,474,134,505.8,171.3,510.4z"/>
<path class="st5" d="M229.3,514.8H76c0-5.2,4.2-9.3,9.3-9.3H220C225.2,505.5,229.3,509.7,229.3,514.8z"/>
<path class="st7" d="M230,435.4H74.6v2.3H230V435.4z"/>
<path class="st2" d="M426.3,148.1c0,0-13.2-25,6.6-34.5c0,0,14-4.7,23.9-1.8c0,0-19.6,20.6-15.5,24c4.1,3.4,20.2-24.6,20.2-24.6
	s28.6,3.6,36.7,9.9c0,0-28.4,14.2-23.6,16.5c4.8,2.3,35-11.1,35-11.1s25.1,10.3,20.1,25.9c-5,15.6-15.1,18.5-18.9,17.2
	c-3.9-1.3-25-15.3-26.2-12.2c-1.2,3.1,10.3,16.8,19.9,19.5c0,0-22.9,16.1-33.8,7.5c-10.9-8.6-9.9-18.1-16.7-23.3
	c-6.8-5.2-13.3-6.6-11-2.4c2.3,4.3,15.4,10.8,18,19.5c2.6,8.7,5.4,14.7-6.8,10c-12.2-4.7-30.7-18.6-29.2-29.4
	C426.3,148.1,426.3,148.1,426.3,148.1z"/>
<path class="st2" d="M516.7,150c0,0-70.2-18.7-90.4-1.9c0,0-5.8,9.6-18.6,16.6l-2.7,4.1c0,0,15.2-10.2,19.7-10
	C424.8,158.9,423.6,132.3,516.7,150z"/>
<path class="st2" d="M407.7,164.7c0,0-17.7,7.8-23.3,27.7l2.7,0.9c0,0,9.5-19.7,20.1-25.8C417.9,161.3,407.7,164.7,407.7,164.7z"/>
<path class="st4" d="M339.1,103c0,0-39.2-20.4-22.1-50.3c0,0,13.9-18.4,29.2-23.5c0,0-6.9,43.9,1.3,44.7c8.3,0.8,4.2-49.5,4.2-49.5
	s40.1-20.7,56.1-19.7c0,0-23.9,43.4-15.7,42.2c8.2-1.3,35.2-45.3,35.2-45.3s41.4-9,48.9,15.5c7.4,24.5-3,37.1-9.1,38.9
	c-6.1,1.7-45.8,2.4-44.6,7.5c1.2,5.1,28.2,12.5,43,7.5c0,0-15.3,41.1-36.9,39.7c-21.7-1.4-28.8-14.6-42.2-15.2s-23.1,3.3-16.3,6.7
	c6.8,3.4,29.4,0.3,40.4,9.2c11.1,8.9,20,14.3,0,19c-19.9,4.7-56,3.2-63.7-12C339.1,103,339.1,103,339.1,103z"/>
<path class="st3" d="M457.3,25.4c0,0-107,38.2-118.2,77.6c0,0,1,17.5-9.2,37.8l0.2,7.7c0,0,10.5-26.6,16.6-30.3
	C346.7,118.2,321.6,85,457.3,25.4z"/>
<path class="st3" d="M329.9,140.9c0,0-15.9,25.8-5.5,56.3l4.3-1.3c0,0-5.2-33.8,3-51.1C339.9,127.5,329.9,140.9,329.9,140.9z"/>
<path class="st8" d="M436.5,157.2H161.4v358.6h275.1V157.2z"/>
<path class="st9" d="M440.9,157.2H170.4v358.6h270.5V157.2z"/>
<path class="st0" d="M631.6,514.8h-54.5c-2.9-2.5,2-8.1,7.2-8.5c2.2-0.2,5.1,0.3,8.3,1c0.7-10,5-54.7,21.2-52.9
	c18.1,2,0,19.7-5.1,30.2c-3.8,7.8-7.8,18.9-9.6,24.1c1.5,0.3,3,0.6,4.6,0.9c2.4-7.4,11.4-32.2,22.7-30.8c13.4,1.7,8,11.7-1.5,17.6
	c-7,4.3-15.5,10.5-19.5,13.5c3.4,0.6,7,0.9,10.7,0.9C625.3,510.6,629.8,513.4,631.6,514.8z"/>
<path class="st9" d="M440.9,157.1C440.9,157.2,440.9,157.2,440.9,157.1l-270.5,0c1.5-20.4-0.8-35.3-4.4-46
	c-6.9-20.5-18.9-25.7-18.9-25.7h255.1c21.8,0,38.7,13.1,43.2,30.5c0.2,0.7,0.3,1.3,0.5,2C450.3,137.9,441.1,156.8,440.9,157.1z"/>
<path class="st10" d="M440.9,157.1C440.9,157.2,440.9,157.2,440.9,157.1l-270.5,0c1.5-20.4-0.8-35.3-4.4-46
	c27.6,5.1,96.1,15.8,169.4,14c47.4-1.2,84.9-4.3,110.5-7.2C450.3,137.9,441.1,156.8,440.9,157.1z"/>
<path class="st11" d="M369.4,239.8H226c-1.5,0-2.7-1.2-2.7-2.7v-1.4c0-1.5,1.2-2.7,2.7-2.7h143.4c1.5,0,2.7,1.2,2.7,2.7v1.4
	C372.1,238.6,370.9,239.8,369.4,239.8z"/>
<path class="st11" d="M313.9,251.1h-88.5c-1.2,0-2.1-1-2.1-2.1v-2.5c0-1.2,1-2.1,2.1-2.1h88.5c1.2,0,2.1,0.9,2.1,2.1v2.5
	C316,250.2,315.1,251.1,313.9,251.1z"/>
<path class="st11" d="M209.5,250.1v-13.7h-1.8c-1.1,0-1.6-0.5-1.6-1.4c0-0.7,0.4-1.1,1.3-1.4c0.4-0.1,1.1-0.3,2.1-0.3
	c1-0.1,1.7-0.1,2.3-0.1c0.6,0,0.9,0.1,1.1,0.3c0.1,0.2,0.2,0.8,0.2,1.7v14.9h1.9c1.2,0,1.8,0.5,1.8,1.6c0,1.1-0.6,1.6-1.8,1.6h-7.5
	c-0.5,0-1-0.1-1.3-0.4c-0.4-0.3-0.5-0.7-0.5-1.2c0-1.1,0.6-1.6,1.8-1.6L209.5,250.1L209.5,250.1z"/>
<path class="st12" d="M369.4,310.7H226c-1.5,0-2.7-1.2-2.7-2.7v-1.4c0-1.5,1.2-2.7,2.7-2.7h143.4c1.5,0,2.7,1.2,2.7,2.7v1.4
	C372.1,309.4,370.9,310.7,369.4,310.7z"/>
<path class="st12" d="M313.9,322h-88.5c-1.2,0-2.1-1-2.1-2.1v-2.5c0-1.2,1-2.1,2.1-2.1h88.5c1.2,0,2.1,0.9,2.1,2.1v2.5
	C316,321,315.1,322,313.9,322z"/>
<path class="st12" d="M217,320.6c0,0.9-0.6,1.4-1.9,1.4h-8c-1.1,0-1.7-0.5-1.7-1.4c0-0.3,0.2-0.6,0.5-1c0.5-0.5,1.1-1.3,2-2.3
	c1.3-1.7,2.4-3.1,3.3-4.3c0.3-0.4,0.7-1,1.3-1.8c0.5-0.8,0.7-1.5,0.7-2.1c0-0.6-0.2-1.2-0.6-1.6c-0.4-0.4-0.9-0.6-1.6-0.6
	c-0.6,0-1.1,0.2-1.6,0.6c-0.3,0.3-0.6,0.7-0.7,1.5c-0.2,0.9-0.4,1.5-0.4,1.6c-0.2,0.5-0.6,0.8-1.2,0.8c-0.5,0-0.9-0.2-1.1-0.5
	c-0.3-0.3-0.4-0.7-0.4-1.2c0-0.6,0.1-1.1,0.3-1.7c0.4-1.2,1.1-2.2,2.1-2.9c0.9-0.6,2.1-0.9,3.4-0.9c1.5,0,2.7,0.4,3.7,1.3
	c1,0.9,1.5,2.1,1.5,3.6c0,1.1-0.4,2.2-1.1,3.4c-0.4,0.6-1.2,1.8-2.5,3.4c-0.6,0.8-1.7,2-3.1,3.6h5.2
	C216.4,319.2,217,319.6,217,320.6z"/>
<path class="st12" d="M369.4,369.7H226c-1.5,0-2.7-1.2-2.7-2.7v-1.4c0-1.5,1.2-2.7,2.7-2.7h143.4c1.5,0,2.7,1.2,2.7,2.7v1.4
	C372.1,368.5,370.9,369.7,369.4,369.7z"/>
<path class="st12" d="M313.9,381h-88.5c-1.2,0-2.1-0.9-2.1-2.1v-2.5c0-1.2,1-2.1,2.1-2.1h88.5c1.2,0,2.1,1,2.1,2.1v2.5
	C316,380.1,315.1,381,313.9,381z"/>
<path class="st12" d="M217,375.4c0,1.7-0.6,3.1-1.8,4.1c-1.1,1-2.6,1.5-4.3,1.5c-1.4,0-2.5-0.3-3.5-1c-1.5-1-2.3-2.3-2.3-3.7
	c0-0.4,0.1-0.8,0.4-1.1s0.6-0.4,1-0.4c0.4,0,0.8,0.3,1.2,0.9c0.6,1,1,1.5,1.1,1.6c0.5,0.6,1.2,0.9,2.1,0.9c1.2,0,2-0.4,2.5-1.3
	c0.2-0.4,0.3-1,0.3-1.6c0-1.6-1-2.5-2.9-2.7c-1.1-0.1-1.6-0.6-1.6-1.4c0-0.6,0.3-1,0.9-1.3c1.2-0.4,1.8-0.7,1.8-0.7
	c0.6-0.4,0.9-1.1,0.9-2.2c0-0.6-0.2-1.1-0.5-1.5c-0.4-0.4-0.9-0.5-1.5-0.5c-0.8,0-1.4,0.2-1.8,0.5c-0.4,0.3-0.7,0.9-0.9,1.6
	c-0.2,0.6-0.6,0.9-1.1,0.9c-0.4,0-0.7-0.2-1-0.5c-0.3-0.4-0.4-0.7-0.4-1.1c0-0.5,0.1-1,0.4-1.5c0.5-0.9,1.2-1.5,2.1-2
	c0.9-0.4,1.8-0.7,2.9-0.7c1.4,0,2.6,0.4,3.5,1.3c0.9,0.9,1.4,2,1.4,3.4c0,1.7-0.7,3-2.1,4C216,371.7,217,373.2,217,375.4z"/>
<path class="st11" d="M352.7,181h-89.3c-1.5,0-2.8-1.3-2.8-2.8v-2.3c0-1.5,1.3-2.8,2.8-2.8h89.3c1.5,0,2.8,1.3,2.8,2.8v2.3
	C355.5,179.7,354.2,181,352.7,181z"/>
<path class="st11" d="M376,193H240.1c-1.9,0-3.4-1.5-3.4-3.4v-1c0-1.9,1.5-3.4,3.4-3.4H376c1.9,0,3.4,1.5,3.4,3.4v1
	C379.4,191.5,377.9,193,376,193z"/>
<path class="st13" d="M297.6,276.1c-29.5,0-57.4-3.7-78.3-9c-21.1-5.3-32.4-14.1-32.4-21.8c0-7,9.2-13.5,26.7-18.6
	c-16.8,5-25.7,12.3-25.7,18.6c0,7.1,11.6,14.1,31.9,19.2c20.8,5.3,48.4,8.2,77.8,8.2c29.4,0,57-2.9,77.8-8.2
	c20.3-5.1,31.9-12.1,31.9-19.2c0-7.5-12.2-16.8-31.9-24.3c-22.4-8.5-50-11.7-77.7-11.7c-52.1,0-73.5,6.1-92.1,13.7
	c18.7-7.6,39.8-16.3,92.1-16.3c27.8,0,55.6,4.7,78.1,13.3c20.1,7.7,32.6,17.4,32.6,25.3c0,7.7-11.6,14.9-32.7,20.3
	C354.7,270.9,327,276.1,297.6,276.1z"/>
<path class="st14" d="M476.5,345.1c0,0-1,9.4-2,11.2c-1.1,1.8-5.6,7.5-7.5,8.6c-1.9,1.1,1.2-7.5,0.8-9.2c-0.4-1.7-1.6,3.1-2.4,3.2
	c-0.8,0.1-0.6-4.2-0.7-5.7c0-1.6,4.1-5.4,5.6-8.7C471.7,341.2,476.5,345.1,476.5,345.1z"/>
<path class="st14" d="M360.6,258.2l-2.2-4.1c0,0,1.1-7.3-8.1-11.9c0,0-3.3-1.4-5.2,1.4c-1.7,2.5,3.3,2.1,3,6.3
	c-0.3,4.3,1.8,6.8,4.6,8.2l2.3,2.7L360.6,258.2z"/>
<path class="st15" d="M446.9,248.4c0,0-7.8,38.5-51,51c-13.5,3.9-44.1-40.4-44.1-40.4s1.1-4.1,7.8-3.1c0,0,29.8,19.7,33.6,21.9
	c3.3,1.9,25.2-24.4,35.2-28.7C438.4,244.8,446.9,248.4,446.9,248.4z"/>
<path class="st13" d="M332.1,240.8l-1.2,8l40.1,6.2l1.2-8L332.1,240.8z"/>
<path class="st14" d="M322.1,243.4l8.7,5.4l1.2-8L322.1,243.4z"/>
<path class="st14" d="M376.4,250.3l-0.4,2.5c-0.2,1.5-1.7,2.6-3.2,2.4l-1.9-0.3l1.2-8l2,0.3C375.6,247.5,376.6,248.9,376.4,250.3z"
	/>
<path class="st16" d="M498.4,490.3c0,0,5.4,4.9,4.3,8.4c-1,3.5-5.9,5.8-6.5,10c-0.7,4.2-3.3,6.6-5.6,6.6c-2.3,0-11.2,0-11.2,0
	s-1.7-3,2.4-3.9c4.2-0.9,5.8-5.9,5.5-10.5c-0.3-4.6,0.4-10.8,0.4-10.8l8.9-2.1L498.4,490.3z"/>
<path class="st16" d="M432.7,502.9c0,0,1,11.1-1.4,12.3l-30.1-0.1c0,0,0-3.5,4.8-4.2c4.8-0.8,13.3-3.6,14.8-9.9
	C422.3,494.7,432.7,502.9,432.7,502.9z"/>
<path class="st17" d="M407.4,345.9c0,0,1.6,19.5,3.4,42.9c2.5,31.8,5.6,70.9,5.9,78.3c0.5,12.9,2.6,33.4,2.6,33.4s5,4.9,14.9,2.8
	c0,0,8.8-29.4,11.4-60.4c0-0.5,0.1-1,0.1-1.5c2.3-31.6,6-98.2,6-98.2L407.4,345.9z"/>
<path class="st16" d="M407.4,345.9c0,0,1.6,19.5,3.4,42.9l34.8,54.1c0-0.5,0.1-1,0.1-1.5c2.3-31.6,6-98.2,6-98.2L407.4,345.9z"/>
<path class="st17" d="M414.6,348.2c0,0,28.6,70.6,47.4,103.7c18.8,33.2,24.7,42.4,24.7,42.4s10.8-4.2,11.8-7.1c0,0-7.2-64-19.8-79.6
	c-7.1-8.8-15.5-35.3-15.9-44.5c-0.4-9.3-2.5-27.6-2.5-27.6L414.6,348.2z"/>
<path class="st14" d="M452.2,239.5c0,0-19.3,9.3-30.5,5.9c0,0,2.7-3.5,7.6-6c-0.4-2.2-0.7-4.2-0.9-5.8c-0.5-3.8-0.5-6-0.5-6l7.5-5.9
	l7.1-5.6C441.9,231.8,452.2,239.5,452.2,239.5z"/>
<path class="st18" d="M462.4,339.1c0,1.2-2.5,2.5-3.6,3c-8.3,3.6-16,6.2-24.8,7c-10.3,1.1-22.6-1.3-26.8-1.2c-0.4,0-0.8-0.2-1.2-0.5
	c-0.3-0.2-0.5-12.7-0.3-28.3c0-0.6,0-1.3,0-1.9v-0.2c0.1-6.1,0.3-12.5,0.6-19c0.6-14.1,1.7-27.7,3.6-35.2c2.3-8.9,7.4-14.7,12.1-19
	l3.9-3.4c3.9,0.8,7.9,0.5,12-1.4c4.5-2.2,9.3-4.5,10-3.9c5.8,4.3,9.8,13.8,11.9,26.1c1.2,7.1,1.8,14.9,1.8,23.2c0,3-0.1,6.2-0.3,9.2
	c-1,16.7,0,31.2,0.6,39.6C462.2,335.8,462.4,337.7,462.4,339.1z"/>
<path class="st15" d="M462.1,338.3c-67.8-0.1-12.5-73.5-12.5-73.5l11-3.6c0.9,7.5,1.3,16,1.3,24.8c0,3.2-0.1,6.6-0.2,9.9
	C460.9,313.8,461.6,329.4,462.1,338.3z"/>
<path class="st19" d="M442.6,222.1c0,0-4.9,8.9-14.2,11.4c-0.5-3.8-0.5-6-0.5-6l7.5-5.9L442.6,222.1z"/>
<path class="st14" d="M424.5,227.3c0,0,18.5,3,20.2-8.3c1.7-11.3,5.3-18.6-6.4-21c-11.7-2.4-14.7,1.6-16.2,5.2
	C420.6,206.8,419.8,226.2,424.5,227.3z"/>
<path class="st20" d="M451.4,196.6c0.2-0.2,0.6-0.3,1.4-0.4c0,0-0.7-0.4-1.6-0.5c-0.2-1.2-0.8-3.3-2.9-3.8c0,0,1.1,0.6,1.3,1.9
	c-2.4-2.4-7.5-4.2-21.6-3.1c-18.6,1.5-12.5,13.4-10.1,14.8c2.4,1.4,8.5-2.5,13-2.1c4.5,0.4,5.4,6.9,6.9,7.7c1.5,0.9,0.9-0.7,3-1.6
	c2.1-0.9,2.3,2.5,1.7,4.7c-0.6,2.2,2.2,5.2,2.2,5.2s0,0,2.9-3.1c2.9-3.1,5.6-16.2,4.3-18.9C451.7,197.1,451.6,196.8,451.4,196.6z"/>
<path class="st18" d="M448.1,235.1c0,0,11.7,5.5,17.3,14c8.7,13.2,18.8,61.2,18.9,65.7c0.2,4.4-7.4,35.9-7.4,35.9s-7.6-0.5-9.6-4.4
	c0,0,1.5-32.3,0.6-34.3c-1-2.1-31.9-43.3-28.4-52.1C443,251.1,448.1,235.1,448.1,235.1z"/>
<path class="st14" d="M358.4,253.9c0,0,0.6-2.5-1.1-3.6c-1.7-1.1-3.3-4.2-4.1-3.8c-1.5,0.9,0.8,3.5,0.4,6.9
	C353.5,254.5,356.2,257.6,358.4,253.9z"/>
<path class="st0" d="M74.6,491.4c0,0-27.4-70.2-46.7-59C8.7,443.5,74.6,491.4,74.6,491.4z"/>
<path class="st0" d="M61,491.4c0,0-36.2-31.3-52.8-25.5C-8.3,471.7,61,491.4,61,491.4z"/>
<path class="st0" d="M444.8,501.5c0,0,8.4-29,18.1-25.6C472.7,479.3,444.8,501.5,444.8,501.5z"/>
<path class="st0" d="M452.4,499.9c0,0,21.3-14,26-9.7C483.1,494.6,452.4,499.9,452.4,499.9z"/>
<path class="st12" d="M379.5,437.7H213.2c-1.1,0-2-0.9-2-2c0-1.1,0.9-2,2-2h166.3c1.1,0,2,0.9,2,2
	C381.6,436.8,380.7,437.7,379.5,437.7z"/>
<path class="st12" d="M379.5,445.8H213.2c-1.1,0-2-0.9-2-2s0.9-2,2-2h166.3c1.1,0,2,0.9,2,2C381.6,444.9,380.7,445.8,379.5,445.8z"
	/>
<path class="st12" d="M379.5,454.8H213.2c-1.1,0-2-0.9-2-2c0-1.1,0.9-2,2-2h166.3c1.1,0,2,0.9,2,2
	C381.6,453.9,380.7,454.8,379.5,454.8z"/>
<path class="st12" d="M357.7,463.8H213.1c-1,0-1.9-0.8-1.9-1.9v-0.3c0-1,0.8-1.9,1.9-1.9h144.6c1,0,1.9,0.8,1.9,1.9v0.3
	C359.6,462.9,358.8,463.8,357.7,463.8z"/>
</svg>
