<?xml version="1.0" encoding="utf-8"?>
<!-- Generator: Adobe Illustrator 23.0.6, SVG Export Plug-In . SVG Version: 6.00 Build 0)  -->
<svg version="1.1" id="OBJECTS" xmlns="http://www.w3.org/2000/svg" xmlns:xlink="http://www.w3.org/1999/xlink" x="0px" y="0px"
	 viewBox="0 0 500 500" style="enable-background:new 0 0 500 500;" xml:space="preserve">
<style type="text/css">
	.st0{fill-rule:evenodd;clip-rule:evenodd;fill:#84788F;}
	.st1{fill-rule:evenodd;clip-rule:evenodd;fill:#7E6C82;}
	.st2{fill-rule:evenodd;clip-rule:evenodd;fill:#725166;}
	.st3{fill-rule:evenodd;clip-rule:evenodd;fill:#844E8F;}
	.st4{fill-rule:evenodd;clip-rule:evenodd;fill:#7F4784;}
	.st5{fill-rule:evenodd;clip-rule:evenodd;fill:#6C2D59;}
	.st6{fill-rule:evenodd;clip-rule:evenodd;fill:#738067;}
	.st7{fill-rule:evenodd;clip-rule:evenodd;fill:#6C6656;}
	.st8{fill-rule:evenodd;clip-rule:evenodd;fill:#68594D;}
	.st9{fill-rule:evenodd;clip-rule:evenodd;fill:#EFAF9E;}
	.st10{fill-rule:evenodd;clip-rule:evenodd;fill:#EEAD9A;}
	.st11{fill-rule:evenodd;clip-rule:evenodd;fill:#1E1925;}
	.st12{fill-rule:evenodd;clip-rule:evenodd;fill:#7B4652;}
	.st13{fill-rule:evenodd;clip-rule:evenodd;fill:#EDA08C;}
	.st14{fill-rule:evenodd;clip-rule:evenodd;fill:#E86870;}
	.st15{fill-rule:evenodd;clip-rule:evenodd;fill:#3D211A;}
	.st16{fill-rule:evenodd;clip-rule:evenodd;fill:#FAFFFF;}
	.st17{fill-rule:evenodd;clip-rule:evenodd;fill:#000313;}
	.st18{fill-rule:evenodd;clip-rule:evenodd;fill:#C7CFDF;}
	.st19{fill-rule:evenodd;clip-rule:evenodd;fill:#EA8A0F;}
	.st20{fill-rule:evenodd;clip-rule:evenodd;fill:#C06029;}
	.st21{fill-rule:evenodd;clip-rule:evenodd;fill:#E2E9FA;}
	.st22{fill-rule:evenodd;clip-rule:evenodd;fill:#EFA92E;}
	.st23{fill-rule:evenodd;clip-rule:evenodd;fill:#2C2C39;}
	.st24{fill-rule:evenodd;clip-rule:evenodd;fill:#3F6C8F;}
	.st25{fill-rule:evenodd;clip-rule:evenodd;fill:#5DBFFC;}
	.st26{fill-rule:evenodd;clip-rule:evenodd;fill:#E00022;}
	.st27{fill-rule:evenodd;clip-rule:evenodd;fill:#C4AA2B;}
	.st28{fill-rule:evenodd;clip-rule:evenodd;fill:#E6EBFE;}
	.st29{fill-rule:evenodd;clip-rule:evenodd;fill:#C19C7C;}
	.st30{fill-rule:evenodd;clip-rule:evenodd;fill:#D7DCEB;}
	.st31{fill-rule:evenodd;clip-rule:evenodd;fill:#303879;}
	.st32{fill-rule:evenodd;clip-rule:evenodd;fill:#ADB2C1;}
	.st33{fill-rule:evenodd;clip-rule:evenodd;fill:#491925;}
	.st34{fill-rule:evenodd;clip-rule:evenodd;fill:#48222F;}
	.st35{fill-rule:evenodd;clip-rule:evenodd;fill:#54598F;}
	.st36{fill-rule:evenodd;clip-rule:evenodd;fill:#48426D;}
	.st37{fill-rule:evenodd;clip-rule:evenodd;fill:#6D79B7;}
	.st38{fill-rule:evenodd;clip-rule:evenodd;fill:#FAF2FF;}
	.st39{fill-rule:evenodd;clip-rule:evenodd;fill:#BF99A8;}
	.st40{fill-rule:evenodd;clip-rule:evenodd;fill:#393A48;}
	.st41{fill-rule:evenodd;clip-rule:evenodd;fill:#292E3D;}
	.st42{fill-rule:evenodd;clip-rule:evenodd;fill:#151A29;}
	.st43{fill-rule:evenodd;clip-rule:evenodd;fill:#DE1922;}
	.st44{fill-rule:evenodd;clip-rule:evenodd;fill:#E4574E;}
	.st45{fill-rule:evenodd;clip-rule:evenodd;fill:#2E3342;}
	.st46{fill-rule:evenodd;clip-rule:evenodd;fill:#172751;}
	.st47{fill-rule:evenodd;clip-rule:evenodd;fill:#314B8F;}
	.st48{fill-rule:evenodd;clip-rule:evenodd;fill:#F5F8FF;}
	.st49{fill-rule:evenodd;clip-rule:evenodd;fill:#E9D79F;}
	.st50{fill-rule:evenodd;clip-rule:evenodd;fill:#ECD28A;}
	.st51{fill-rule:evenodd;clip-rule:evenodd;fill:#64442F;}
	.st52{fill-rule:evenodd;clip-rule:evenodd;fill:#925A33;}
	.st53{fill-rule:evenodd;clip-rule:evenodd;fill:#E9EEFE;}
	.st54{fill-rule:evenodd;clip-rule:evenodd;fill:#172D68;}
	.st55{fill-rule:evenodd;clip-rule:evenodd;fill:#00A0F7;}
	.st56{fill-rule:evenodd;clip-rule:evenodd;fill:#EC910F;}
	.st57{fill-rule:evenodd;clip-rule:evenodd;fill:#25B2F7;}
	.st58{fill-rule:evenodd;clip-rule:evenodd;fill:#203C99;}
	.st59{fill-rule:evenodd;clip-rule:evenodd;fill:#EFAF9B;}
	.st60{fill-rule:evenodd;clip-rule:evenodd;fill:#15131A;}
	.st61{fill-rule:evenodd;clip-rule:evenodd;fill:#F7D00F;}
	.st62{fill-rule:evenodd;clip-rule:evenodd;fill:#131113;}
	.st63{fill-rule:evenodd;clip-rule:evenodd;fill:#7B6E2F;}
	.st64{fill-rule:evenodd;clip-rule:evenodd;fill:#E8C830;}
	.st65{fill-rule:evenodd;clip-rule:evenodd;fill:#292635;}
	.st66{fill-rule:evenodd;clip-rule:evenodd;fill:#30303C;}
	.st67{fill-rule:evenodd;clip-rule:evenodd;fill:#30303D;}
	.st68{fill-rule:evenodd;clip-rule:evenodd;fill:#FADA4A;}
	.st69{fill-rule:evenodd;clip-rule:evenodd;fill:#9F68FA;}
	.st70{fill-rule:evenodd;clip-rule:evenodd;fill:#002D5A;}
	.st71{fill-rule:evenodd;clip-rule:evenodd;fill:#44437F;}
	.st72{fill-rule:evenodd;clip-rule:evenodd;fill:#F5D9D6;}
	.st73{fill-rule:evenodd;clip-rule:evenodd;fill:#4E4D8F;}
	.st74{fill-rule:evenodd;clip-rule:evenodd;fill:#EC5A33;}
	.st75{fill-rule:evenodd;clip-rule:evenodd;fill:#AD71FF;}
	.st76{fill-rule:evenodd;clip-rule:evenodd;fill:#AE83FF;}
	.st77{fill-rule:evenodd;clip-rule:evenodd;fill:#829CBF;}
	.st78{fill-rule:evenodd;clip-rule:evenodd;fill:#FAFDFF;}
	.st79{fill-rule:evenodd;clip-rule:evenodd;fill:#F1F9F9;}
	.st80{fill-rule:evenodd;clip-rule:evenodd;fill:#999EAE;}
</style>
<g>
	<g>
		<g>
			<path class="st0" d="M136.14,359.84c-5.78-38.52-72.76-62.06-112.18-52.98C39.14,350.38,97.19,381.27,136.14,359.84z"/>
			<path class="st1" d="M23.96,306.86c15.18,43.52,73.23,74.41,112.18,52.98C114.97,337.59,54.44,312.1,23.96,306.86z"/>
			<path class="st2" d="M23.96,306.86c34.19,9.11,85.46,30.5,111.23,53.49c0.32-0.17,0.63-0.34,0.95-0.51
				C114.97,337.59,54.44,312.1,23.96,306.86z"/>
			<polygon class="st2" points="113.9,343.67 87.04,351.22 113.16,343.15 			"/>
			<path class="st2" d="M107.5,340.49c-0.07-0.44-9.77-18.94-9.77-18.94l8.92,18.43L107.5,340.49z"/>
			<path class="st2" d="M93.85,332.94c0,0-25.31,8.14-24.86,7.84c0.44-0.3,25.58-7.44,25.58-7.44L93.85,332.94z"/>
			<path class="st2" d="M82.58,327.12C82.8,326.64,71,312.06,71,312.06l10.77,15.28L82.58,327.12z"/>
			<polygon class="st2" points="67.45,321.16 48.17,324.93 68.15,321.57 			"/>
			<path class="st2" d="M55.09,316.2c-0.15-0.22-8.88-9.06-8.88-9.06l8.12,9.03L55.09,316.2z"/>
			<path class="st2" d="M43.94,312.28c-0.41-0.07-12.91,0.67-12.39,0.67c0.52,0,12.89-0.18,12.89-0.18L43.94,312.28z"/>
		</g>
		<g>
			<path class="st3" d="M140.84,355.78c16.97-26.12-10.63-75.72-39.04-91.2C87.81,298.68,106.17,347.94,140.84,355.78z"/>
			<path class="st4" d="M101.81,264.58c-13.99,34.09,4.36,83.36,39.04,91.2C139.97,331.24,117.27,283.88,101.81,264.58z"/>
			<path class="st5" d="M101.81,264.58c15.63,23.58,34.97,63.57,38.2,91c0.28,0.07,0.56,0.13,0.84,0.2
				C139.97,331.24,117.27,283.88,101.81,264.58z"/>
			<polygon class="st5" points="136.11,334.31 116.03,324.58 135.94,333.61 			"/>
			<path class="st5" d="M133.97,329.01c0.19-0.31,4.2-16.52,4.2-16.52l-4.44,15.76L133.97,329.01z"/>
			<path class="st5" d="M129.8,317.26c0,0-19.46-8.55-19.04-8.49c0.42,0.06,19.26,9.12,19.26,9.12L129.8,317.26z"/>
			<path class="st5" d="M126.15,307.79c0.38-0.17,1.06-15.15,1.06-15.15l-1.66,14.85L126.15,307.79z"/>
			<polygon class="st5" points="120.25,296.2 106.71,288.24 120.45,296.82 			"/>
			<path class="st5" d="M115.48,286.68c0.03-0.21-0.51-10.13-0.51-10.13l0.07,9.71L115.48,286.68z"/>
			<path class="st5" d="M110.89,278.42c-0.2-0.26-8.08-6.45-7.77-6.17c0.31,0.27,7.81,6.73,7.81,6.73L110.89,278.42z"/>
		</g>
		<g>
			<path class="st6" d="M137.69,364.83c-20.41-23.52-75.71-10.71-98.44,12.31C68.16,400.02,120.58,395.99,137.69,364.83z"/>
			<path class="st7" d="M39.26,377.15c28.9,22.87,81.32,18.84,98.44-12.31C113.86,358.89,62.08,367.62,39.26,377.15z"/>
			<path class="st8" d="M39.26,377.15c26.98-8.5,70.76-16.04,98.01-11.56c0.14-0.25,0.28-0.5,0.42-0.75
				C113.86,358.89,62.08,367.62,39.26,377.15z"/>
			<polygon class="st8" points="115.75,363.45 100.85,380.06 115.03,363.42 			"/>
			<path class="st8" d="M110.07,364.05c-0.24-0.27-14.71-8.6-14.71-8.6l13.92,8.62L110.07,364.05z"/>
			<path class="st8" d="M97.61,364.8c0,0-13.59,16.34-13.42,15.95c0.17-0.39,14.08-15.99,14.08-15.99L97.61,364.8z"/>
			<path class="st8" d="M87.51,365.7c-0.06-0.42-14.27-5.2-14.27-5.2l13.82,5.7L87.51,365.7z"/>
			<polygon class="st8" points="74.74,368.16 63.35,378.97 75.39,368.14 			"/>
			<path class="st8" d="M64.28,370.11c-0.2-0.09-9.88-2.31-9.88-2.31l9.35,2.61L64.28,370.11z"/>
			<path class="st8" d="M55.06,372.25c-0.31,0.12-8.43,5.98-8.08,5.76c0.35-0.22,8.63-5.65,8.63-5.65L55.06,372.25z"/>
		</g>
	</g>
	<g>
		<g>
			<path class="st0" d="M363.86,367.84c5.78-38.52,72.76-62.06,112.18-52.98C460.86,358.38,402.81,389.27,363.86,367.84z"/>
			<path class="st1" d="M476.04,314.86c-15.18,43.52-73.23,74.41-112.18,52.98C385.03,345.59,445.56,320.1,476.04,314.86z"/>
			<path class="st2" d="M476.04,314.86c-34.19,9.11-85.46,30.5-111.23,53.49c-0.32-0.17-0.63-0.34-0.95-0.51
				C385.03,345.59,445.56,320.1,476.04,314.86z"/>
			<polygon class="st2" points="386.1,351.67 412.96,359.22 386.84,351.15 			"/>
			<path class="st2" d="M392.5,348.49c0.07-0.44,9.77-18.94,9.77-18.94l-8.92,18.43L392.5,348.49z"/>
			<path class="st2" d="M406.15,340.94c0,0,25.31,8.14,24.86,7.84c-0.44-0.3-25.58-7.44-25.58-7.44L406.15,340.94z"/>
			<path class="st2" d="M417.42,335.12c-0.22-0.48,11.58-15.06,11.58-15.06l-10.77,15.28L417.42,335.12z"/>
			<polygon class="st2" points="432.55,329.16 451.83,332.93 431.85,329.57 			"/>
			<path class="st2" d="M444.91,324.2c0.15-0.22,8.88-9.06,8.88-9.06l-8.12,9.03L444.91,324.2z"/>
			<path class="st2" d="M456.06,320.28c0.41-0.07,12.91,0.67,12.39,0.67c-0.52,0-12.89-0.18-12.89-0.18L456.06,320.28z"/>
		</g>
		<g>
			<path class="st3" d="M359.16,363.78c-16.97-26.12,10.63-75.72,39.04-91.2C412.19,306.68,393.83,355.94,359.16,363.78z"/>
			<path class="st4" d="M398.19,272.58c13.99,34.09-4.36,83.36-39.04,91.2C360.03,339.24,382.73,291.88,398.19,272.58z"/>
			<path class="st5" d="M398.19,272.58c-15.63,23.58-34.97,63.57-38.2,91c-0.28,0.07-0.56,0.13-0.84,0.2
				C360.03,339.24,382.73,291.88,398.19,272.58z"/>
			<polygon class="st5" points="363.89,342.31 383.97,332.58 364.06,341.61 			"/>
			<path class="st5" d="M366.03,337.01c-0.19-0.31-4.2-16.52-4.2-16.52l4.44,15.76L366.03,337.01z"/>
			<path class="st5" d="M370.2,325.26c0,0,19.46-8.55,19.04-8.49c-0.42,0.06-19.26,9.12-19.26,9.12L370.2,325.26z"/>
			<path class="st5" d="M373.85,315.79c-0.38-0.17-1.06-15.15-1.06-15.15l1.66,14.85L373.85,315.79z"/>
			<polygon class="st5" points="379.75,304.2 393.29,296.24 379.55,304.82 			"/>
			<path class="st5" d="M384.52,294.68c-0.03-0.21,0.51-10.13,0.51-10.13l-0.07,9.71L384.52,294.68z"/>
			<path class="st5" d="M389.11,286.42c0.2-0.26,8.08-6.45,7.77-6.17c-0.31,0.27-7.81,6.73-7.81,6.73L389.11,286.42z"/>
		</g>
		<g>
			<path class="st6" d="M362.31,372.83c20.41-23.52,75.71-10.71,98.44,12.31C431.84,408.02,379.42,403.99,362.31,372.83z"/>
			<path class="st7" d="M460.74,385.15c-28.9,22.87-81.32,18.84-98.44-12.31C386.14,366.89,437.92,375.62,460.74,385.15z"/>
			<path class="st8" d="M460.74,385.15c-26.98-8.5-70.76-16.04-98.01-11.56c-0.14-0.25-0.28-0.5-0.42-0.75
				C386.14,366.89,437.92,375.62,460.74,385.15z"/>
			<polygon class="st8" points="384.25,371.45 399.15,388.06 384.97,371.42 			"/>
			<path class="st8" d="M389.93,372.05c0.24-0.27,14.71-8.6,14.71-8.6l-13.92,8.62L389.93,372.05z"/>
			<path class="st8" d="M402.39,372.8c0,0,13.59,16.34,13.42,15.95c-0.17-0.39-14.08-15.99-14.08-15.99L402.39,372.8z"/>
			<path class="st8" d="M412.49,373.7c0.06-0.42,14.27-5.2,14.27-5.2l-13.82,5.7L412.49,373.7z"/>
			<polygon class="st8" points="425.26,376.16 436.65,386.97 424.61,376.14 			"/>
			<path class="st8" d="M435.72,378.11c0.2-0.09,9.88-2.31,9.88-2.31l-9.35,2.61L435.72,378.11z"/>
			<path class="st8" d="M444.94,380.25c0.31,0.12,8.43,5.98,8.08,5.76c-0.35-0.22-8.62-5.65-8.62-5.65L444.94,380.25z"/>
		</g>
	</g>
	<g>
		<path class="st9" d="M311.98,273.68c0,0,2.03,2.37,2.1,3.1c0.06,0.73-0.44,2.6-0.73,2.2c-0.29-0.4-0.34-1.63-0.34-1.63l-0.56-0.68
			c0,0,0.39,3.66,0.2,4.33c-0.19,0.67-0.56,0.65-0.56,0.65s-0.05,0.59-0.43,0.68c-0.31,0.08-0.53,0.03-0.7-0.33
			c0,0-0.1,0.14-0.39-0.02c-0.29-0.16-0.47-0.54-0.47-0.54s-0.22,0.09-0.46-0.2c-0.25-0.3-0.29-0.5-0.3-0.57
			c-0.02-0.07-0.4-2.78-0.44-2.9c-0.49-1.32-0.15-3.35,0.63-4.26C311.01,271.77,310.42,273.01,311.98,273.68z"/>
		<path class="st10" d="M363.24,232.04c-0.16-0.07-0.95,0.48-1.78-0.41c-0.85-0.47-1.12-1.47-0.8-2.02
			c0.29-0.51,0.87-0.96,1.07-1.35c0.48-0.85,1.1-1.44,2.41-0.94c1.31,0.5,1.94,0.71,1.97,2.12
			C366.14,230.85,364.4,232.07,363.24,232.04z"/>
		<path class="st11" d="M347.92,336.14c0.54,1.5,0.96,3.54,0.96,3.54s8.33,3.67,7.15,4.53c-1.83,1.34-8.61-0.39-11.02-0.91
			l0.01-3.82L347.92,336.14z"/>
		<path class="st11" d="M322.25,335.2c-0.54,1.5-0.96,3.54-0.96,3.54s-8.33,3.67-7.15,4.53c1.83,1.34,10.45-0.3,10.45-1.04
			l-0.01-3.82L322.25,335.2z"/>
		<path class="st12" d="M342.09,270.03c3.45,18.96,4.98,46.97,6.79,69.64c0,0-2.72,0.07-3.85-0.19
			c-4.55-18.89-8.64-38.38-13.19-57.27c-2.43,18.61-4.77,38.31-7.2,56.92c-0.65,0.2-2.65-0.29-3.36-0.39
			c-0.71-0.1-1.02-66.75-0.89-67.53C320.53,270.43,342.09,270.03,342.09,270.03z"/>
		<path class="st13" d="M331.78,220.07c-0.16,1.49-0.25,6.3,2.69,7.35c1.21,0.43,2.33,1.35,2.33,1.35
			c-0.08,4.53-10.64,5.73-15.05,1.63l1.75-2.08c3.69-0.75,2.11-6.97,1.92-9.95L331.78,220.07z"/>
		<path class="st14" d="M340.84,235.97c-0.47,16.69,2.44,28.92,3.11,38.11c0.29,4.75-24.91,8.06-24.89,4.11
			c0.47-13.53,0.65-27.93-0.85-40.38l0.05-7.89c0.23-0.05,0.45-0.1,0.67-0.15l4.56-1.45c0,0,2.72,2.72,7.07,2.18
			c4.35-0.54,3.9-3.08,3.9-3.08c1.99,0.32,3.93,0.73,5.92,1.05L340.84,235.97z"/>
		<path class="st15" d="M321.32,212.89c-0.17,0.7,0.71,3.66,1.46,5.35c0.76,1.69,2.91,2.63,2.9,2.38c-0.02-0.25-0.54-6.26-0.54-6.26
			L321.32,212.89z"/>
		<path class="st9" d="M336.27,220.93c-0.75,4.13-2.55,5.36-5.49,3.92c-2.52-1.23-4.34-3.42-5.54-5.77
			c-0.8,0.22-1.77-0.28-2.33-1.28c-0.67-1.18-0.52-2.61,0.33-3.18c0.19-0.13,0.4-0.2,0.61-0.23c-0.09-1.26,0.02-2.45,0.08-3.71
			c0.12-2.35,6.43-4.63,9.19-3.19C336.56,209.28,336.8,217.98,336.27,220.93z"/>
		<path class="st15" d="M326.13,211.73c-0.27,0.28,0.35,4.61-0.13,4.63c-0.48,0.02-2.15-1.97-2.15-1.97s-0.09-0.12-0.61,0.23
			c-0.52,0.35-0.65,0.96-0.65,0.96s-2.1-4.03-1.86-4.93c0.24-0.9,2.01-2.05,2.01-2.05s0.14-0.96,1.14-2.07
			c0.99-1.11,3.9-1.34,7.79-1.9c3.84-0.55,6.59,1.85,3.1,4.55C331.55,211.67,326.13,211.73,326.13,211.73z"/>
		<path class="st14" d="M318.26,229.92c-5.59,2.41-9.1,25.43-9.53,44.83l3.61-0.85c0.35-9.63,2.22-22.71,7.05-35.98L318.26,229.92z"
			/>
		<path class="st14" d="M340.39,228.46c5.96,6.23,11.31,17.49,11.31,17.49c0.43-0.63,7.67-12.79,8.97-16.34l2.58,2.43
			c-1.3,3.16-8.32,20.24-10.81,20.53c-4.9,0.55-11.31-13.16-13.18-16.1L340.39,228.46z"/>
		<path class="st16" d="M376.22,213.73c0.25-0.05,3.1-0.14,3.1-0.14l1.58,4.78l-2.21,1.92L376.22,213.73z"/>
		<path class="st17" d="M364.77,222.11c-0.13,0.6-0.06,2.49,0.58,4.3c0.64,1.81,1.87,3,1.88,3.76c0.01,0.79-2.06,2.17-2.98,1.22
			c-0.74-0.76-2.95-8.57-2.75-8.73C361.71,222.51,364.77,222.11,364.77,222.11z"/>
		<path class="st18" d="M376.28,208.07c-0.07-0.15-0.24,0.04-0.76,0.39c-0.51,0.35-0.1,0.07-0.52,0.93
			c-0.89,1.83-12.5,8.8-14.71,9.83c-1.39,0.65-1.68,0.92-2.15,1.29l2.18,5.96c0.6-0.01,0.88-0.1,2.37-0.47
			c2.37-0.59,15.78-2.47,17.62-1.61c0.5,0.23,1.83,0.23,1.83,0.23C380.81,218.98,378.87,213.46,376.28,208.07z"/>
		<path class="st19" d="M376.28,208.07c-0.07-0.15-0.24,0.04-0.76,0.39c-0.51,0.35-0.1,0.07-0.52,0.93c2.12,4.65,3.9,9.63,5.31,15
			c0.87,0.41,0.38,0.45,0.99,0.4c0.62-0.05,0.87-0.01,0.84-0.17C380.81,218.98,378.87,213.46,376.28,208.07z"/>
		<path class="st19" d="M360.54,219.11c-0.09,0.05-0.18,0.09-0.25,0.12c-1.39,0.65-2.22,0.72-2.68,1.09l1.16,3.27l1.16,3.27
			c0.6-0.01,1.29-0.47,2.77-0.84c0.08-0.02,0.17-0.04,0.28-0.06L360.54,219.11z"/>
		<path class="st20" d="M361.54,223.04c-0.04-0.22-0.05-0.36-0.03-0.38c0.11-0.09,1.14-0.26,2.02-0.38L361.54,223.04z"/>
		<path class="st21" d="M376.28,208.07c-0.07-0.15-1.12,1.01-1.28,1.33c-0.89,1.83-12.5,8.8-14.71,9.83
			c-1.39,0.65-1.68,0.92-2.15,1.29l1.1,3.41l20.38-7.82C378.67,213.4,377.55,210.72,376.28,208.07z"/>
		<path class="st22" d="M376.28,208.07c-0.07-0.15-0.24,0.04-0.76,0.39c-0.51,0.35-0.1,0.07-0.52,0.93
			c1.08,2.36,2.06,4.81,2.96,7.35l1.67-0.64C378.67,213.4,377.55,210.72,376.28,208.07z"/>
		<path class="st22" d="M360.54,219.11c-0.09,0.05-0.18,0.09-0.25,0.12c-1.39,0.65-2.22,0.72-2.68,1.09l1.16,3.27l0.16,0.46
			l2.96-1.14L360.54,219.11z"/>
		<polygon class="st23" points="383.78,212.26 390.67,208.26 389.98,207.4 		"/>
		<polygon class="st23" points="381.1,209.95 386.15,202.81 385.6,202.36 		"/>
		<polygon class="st23" points="383.03,216.84 393.81,216.22 393.72,217.32 		"/>
		<polygon class="st23" points="383.06,219.83 391.75,223.26 391.58,223.95 		"/>
		<path class="st13" d="M364.14,226.96c-0.33,1.25,0.36,2.71,1.39,3.27c0.33,0.18,0.85,0.33,1.86-0.46c0.92-0.72-0.7-3.55-1.4-3.68
			C365.28,225.94,364.16,226.53,364.14,226.96z"/>
		<path class="st9" d="M361.92,230.07l-0.7-0.75c0,0,0.48-2.06,0.91-2.53c0.43-0.47,2.1-2.15,2.3-1.97
			c0.19,0.18,0.28,0.65-0.16,1.52c-0.44,0.87-1.29,1.21-1.29,1.21s0.28,1.46-0.04,2.41C362.62,230.92,361.92,230.07,361.92,230.07z"
			/>
		<path class="st15" d="M325.11,209.79l0.97,2.09c1.41,0.15,6.03,0.62,7.04,0.13l-0.9-0.53c0,0,1.74,0.09,3.45-0.56
			c1.72-0.65,2.18-1.5,2.04-1.5c-0.15,0-1.39-0.09-1.39-0.09s0.81-0.11,1.68-1.85c0.88-1.74,1.05-2.56,0.88-2.4
			c-0.17,0.16-1.27,0.57-1.22,0.41c0.05-0.16,0.15-1.46,0.15-1.46s-1.72,0.21-3.93,0.39c-2.21,0.18-9.3,1.35-9.32,1.94
			C324.52,206.95,325.11,209.79,325.11,209.79z"/>
	</g>
	<g>
		<path class="st11" d="M236.28,255.51c-0.54,1.48-0.95,3.51-0.95,3.51s-8.26,3.64-7.09,4.49c1.81,1.33,8.53-0.39,10.92-0.9
			l-0.01-3.78L236.28,255.51z"/>
		<path class="st11" d="M261.71,254.58c0.54,1.48,0.95,3.51,0.95,3.51s8.26,3.64,7.09,4.49c-1.81,1.33-10.36-0.29-10.35-1.03
			l0.01-3.78L261.71,254.58z"/>
		<path class="st13" d="M200.47,134.6c0,0-0.45,1.71,0.56,2.85c1.01,1.15,2.93,1.46,2.93,1.46l1.61-1.83c0,0-1.49-3.2-1.64-3.43
			C203.77,133.43,200.47,134.6,200.47,134.6z"/>
		<path class="st24" d="M242.06,190.02c-3.41,18.79-4.93,46.54-6.73,69c0,0,2.69,0.07,3.81-0.19c4.51-18.72,8.56-38.02,13.07-56.74
			c2.41,18.44,4.73,37.95,7.13,56.39c0.64,0.2,2.62-0.28,3.33-0.39c0.7-0.1,1.01-66.13,0.88-66.9
			C263.41,190.4,242.06,190.02,242.06,190.02z"/>
		<path class="st13" d="M252.27,140.51c0.16,1.48,0.25,6.24-2.66,7.28c-1.19,0.43-2.31,1.34-2.31,1.34
			c0.08,4.49,10.54,5.68,14.91,1.62l-1.73-2.06c-3.66-0.74-2.09-6.9-1.9-9.85L252.27,140.51z"/>
		<path class="st9" d="M304.19,138.27c0,0,0.41-3.73,0.99-4.38c0.58-0.65,2.63-1.75,2.52-1.17c-0.11,0.58-1.15,1.64-1.15,1.64
			l-0.14,1.06c0,0,2.88-3.35,3.62-3.73c0.74-0.38,1.03-0.04,1.03-0.04s0.88-0.67,1.21-0.4c0.34,0.27,0.17,0.75,0.11,0.9
			c-0.07,0.15-0.08,0.2-0.08,0.2s0.21-0.02,0.31,0.36c0.1,0.38-0.09,0.85-0.09,0.85s0.26,0.11,0.2,0.57
			c-0.06,0.46-0.2,0.66-0.25,0.73c-0.05,0.07-2.1,2.63-2.17,2.76c-0.07,0.13-0.19,0.76-1.07,1.62c-0.88,0.85-3.17,1.32-3.17,1.32
			C303.63,139.28,304.89,140.18,304.19,138.27z"/>
		<path class="st25" d="M242.88,148.96c-12.98,2.13-27.45-3.65-36.93-12.31l-1.99,2.25c0,0,5.67,8.98,16.99,13.38
			c7.23,3.68,16.92,4.09,22.35,3.99c0.47,16.54-2.42,28.65-3.08,37.75c-0.29,4.71,24.67,7.99,24.66,4.08
			c-0.47-13.41-2.87-28.48-1.38-40.82c5.57,0.02,18.97,0.04,25.7-3.38c11.32-4.4,16.99-13.38,16.99-13.38l-1.99-2.25
			c-10.04,9.16-25.66,15.11-39.2,11.85l-4.51-1.43c0,0-2.7,2.69-7.01,2.16c-4.31-0.54-3.86-3.05-3.86-3.05
			C247.35,148.15,245.15,148.63,242.88,148.96z"/>
		<path class="st11" d="M262.63,133.4c0.17,0.69-0.7,3.62-1.45,5.3c-0.75,1.68-2.88,2.61-2.87,2.36c0.02-0.25,0.53-6.2,0.53-6.2
			L262.63,133.4z"/>
		<path class="st9" d="M247.83,141.37c0.74,4.09,2.52,5.31,5.44,3.89c2.49-1.22,4.3-3.39,5.49-5.71c0.79,0.22,1.75-0.28,2.31-1.27
			c0.66-1.17,0.51-2.58-0.33-3.15c-0.19-0.13-0.39-0.2-0.61-0.23c0.09-1.25-0.02-2.43-0.08-3.68c-0.12-2.33-6.37-4.58-9.11-3.16
			C247.53,129.83,247.3,138.45,247.83,141.37z"/>
		<path class="st11" d="M257.87,132.25c0.27,0.27-0.35,4.57,0.13,4.59c0.47,0.02,2.13-1.95,2.13-1.95s0.09-0.12,0.61,0.23
			c0.52,0.35,0.65,0.95,0.65,0.95s2.09-3.99,1.84-4.89c-0.24-0.89-1.99-2.03-1.99-2.03s-0.14-0.95-1.13-2.05
			c-0.99-1.1-3.87-1.33-7.71-1.88c-3.81-0.55-6.53,1.83-3.07,4.51C252.5,132.19,257.87,132.25,257.87,132.25z"/>
		<path class="st16" d="M205.95,123.32l2.13,0.83c0.28,0.11,0.41,0.42,0.31,0.7l-6.97,17.87c-0.11,0.28-0.42,0.41-0.7,0.31
			l-2.13-0.83c-0.28-0.11-0.41-0.42-0.31-0.7l6.97-17.87C205.36,123.35,205.68,123.21,205.95,123.32z"/>
		<path class="st11" d="M258.61,131c-0.09,0.13-0.76,1.21-2.99,1.75c-2.22,0.54-2.67-0.67-2.67-0.67s-1.03,0.38-2.56-0.09
			c-1.53-0.47-0.79-1.17-0.79-1.17s-0.4,0.72-1.75-0.34c-1.35-1.06-0.09-2.43-0.09-2.43l0.81-1.24c0,0-0.16-0.72,0.58-1.57
			c0.74-0.85,2.27-0.47,2.27-0.47s0.65-0.67,2.07-0.54c1.42,0.13,2.2,1.06,2.2,1.06s1.12-0.45,2.31-0.25
			c1.19,0.2,1.75,1.24,1.75,1.24s1.3,0.18,1.89,1.01c0.58,0.83,0.11,1.8,0.11,1.8s1.33,0.2,1.28,1.26c-0.05,1.06-1.43,2.47-2.9,2.31
			C258.66,132.5,258.61,131,258.61,131z"/>
		<path class="st9" d="M202.43,132.23c0.28,0.26,0.33,0.39,0.51,0.86c0.36,0.92-0.81,3.07-1.64,3.38c-0.83,0.31-1.21,0.43-1.39-0.58
			c-0.13-0.72,0.69-2.63,1.34-3.59C201.63,131.76,201.84,131.69,202.43,132.23z"/>
		<path class="st9" d="M205.15,137.5l0.8-0.85c0,0-0.54-2.33-1.04-2.87c-0.49-0.53-2.39-2.44-2.6-2.24
			c-0.22,0.2-0.31,0.74,0.18,1.73s1.46,1.37,1.46,1.37s-0.31,1.66,0.05,2.74C204.35,138.46,205.15,137.5,205.15,137.5z"/>
		<polygon class="st26" points="202.92,129.3 206.14,130.87 205.51,132.4 202.28,130.99 		"/>
		<path class="st26" d="M204.91,131.13c0.09,0.13,0.65,0.64,1.38,1.83c0.73,1.19,0.46,4.05,0.65,4.01c0.19-0.05,0.88-0.13,0.88-0.13
			s0.36-2.16-0.25-3.56c-0.61-1.4-2.03-2.28-2.03-2.28L204.91,131.13z"/>
		<path class="st26" d="M204.93,131.76c0.16,0.08,0.94,0.57,2.64,0.51c1.7-0.07,2.35-0.83,2.35-0.83l-0.4-0.62
			c0,0-1.33,0.67-2.7,0.69c-1.37,0.01-1.84-0.15-1.84-0.15L204.93,131.76z"/>
	</g>
	<path class="st9" d="M404.54,327.52c0.35-0.15,1.54-0.58,1.84-0.72c0.3-0.15,3.08-1.42,3.48-1.45c0.2-0.02,1.38,0.15,2.48,0.49
		c0.61,0.19,2.03,0.93,2.18,0.99c0.32,0.12-0.3,0.59-0.7,0.56c-0.46-0.03-1.71-0.72-1.71-0.72c-0.18,0.01-0.35,0.02-0.51,0.02
		c0.15,0.09,0.27,0.17,0.32,0.22c0.2,0.21,0.48,0.85,0.37,0.94c-0.11,0.09-0.29,0.24-0.74,0.21c-0.25-0.02-0.73-0.26-1.11-0.5
		c-0.29,0.95-2.36,1.84-3.24,1.93c-0.89,0.09-1.57-0.23-1.57-0.23L404.54,327.52z"/>
	<path class="st27" d="M396.67,297.88c0.84,0.46-0.61,22.63-0.61,22.63l10.09,6.39l-1.12,2.32l-13.68-7.13c0,0-0.38-22.01,0.72-23.5
		C392.71,297.73,395.95,297.5,396.67,297.88z"/>
	<path class="st11" d="M396.29,281.2c-0.5,0.46-1.4,3.24-1.71,4.97c-0.31,1.73,0.87,3.62,0.99,3.41c0.12-0.2,2.92-5.19,2.92-5.19
		L396.29,281.2z"/>
	<path class="st13" d="M399,291.48c0,0-0.82,1.3-1.11,4.33c-0.29,3.03-0.88,4.12-0.88,4.12l-5.37-3.95l4.93-8.3L399,291.48z"/>
	<path class="st28" d="M406.03,373.68h-97.49c-4.62,0-8.36,5.23-8.36,11.67c0,6.45,3.74,11.67,8.36,11.67h97.49l-0.52-1.26
		c-1.33-3.2-2.01-6.76-2.01-10.41c0-3.65,0.68-7.21,2.01-10.41L406.03,373.68z"/>
	<path class="st29" d="M308.94,373.78h87.71h8.91h4.01v-2.62h-2.93h-9.99h-87.71c-5.87,0-10.27,6.63-10.27,14.18
		c0,7.56,4.41,14.18,10.27,14.18h87.01h10.7h2.93v-2.62h-4.01h-9.61h-87.01c-4.58,0-8.28-5.18-8.28-11.57
		C300.65,378.96,304.36,373.78,308.94,373.78z"/>
	<path class="st30" d="M367.05,385.35c0-6.45,3.74-11.67,8.36-11.67h-66.87c-4.62,0-8.36,5.23-8.36,11.67
		c0,6.45,3.74,11.67,8.36,11.67h66.87C370.79,397.02,367.05,391.8,367.05,385.35z"/>
	<path class="st28" d="M302.04,345.31h97.49c4.62,0,8.36,5.23,8.36,11.67c0,6.45-3.74,11.67-8.36,11.67h-97.49l0.52-1.26
		c1.33-3.2,2.01-6.76,2.01-10.41c0-3.65-0.68-7.21-2.01-10.41L302.04,345.31z"/>
	<path class="st31" d="M399.13,345.42h-87.71h-8.91h-4.01v-2.62h2.93h9.99h87.71c5.87,0,10.27,6.63,10.27,14.18
		c0,7.56-4.41,14.18-10.27,14.18h-87.01h-10.7h-2.93v-2.62h4.01h9.61h87.01c4.58,0,8.28-5.18,8.28-11.57
		C407.41,350.6,403.71,345.42,399.13,345.42z"/>
	<path class="st31" d="M341.02,357.23c0-6.85-3.74-12.4-8.36-12.4h66.87c4.62,0,8.36,5.55,8.36,12.4c0,6.85-3.74,12.4-8.36,12.4
		h-66.87C337.27,369.63,341.02,364.08,341.02,357.23z"/>
	<g>
		<rect x="308.52" y="376.5" class="st32" width="91.55" height="1.09"/>
		<rect x="308.52" y="380.72" class="st32" width="91.55" height="1.09"/>
		<rect x="308.52" y="389.17" class="st32" width="91.55" height="1.09"/>
		<rect x="308.52" y="384.95" class="st32" width="91.55" height="1.09"/>
		<rect x="308.52" y="393.39" class="st32" width="91.55" height="1.09"/>
	</g>
	<g>
		<rect x="306.78" y="348.33" class="st32" width="27.14" height="1.09"/>
		<rect x="306.78" y="352.55" class="st32" width="27.14" height="1.09"/>
		<rect x="306.78" y="361" class="st32" width="27.14" height="1.09"/>
		<rect x="306.78" y="356.77" class="st32" width="27.14" height="1.09"/>
		<rect x="306.78" y="365.22" class="st32" width="27.14" height="1.09"/>
	</g>
	<g>
		<g>
			<g>
				<path class="st33" d="M174.59,326.96h-4.07v-14.47h-27.55v14.47h-4.07v-16.51c0-1.13,0.91-2.04,2.04-2.04h31.62
					c1.13,0,2.04,0.91,2.04,2.04V326.96z"/>
			</g>
		</g>
		<path class="st34" d="M173.71,326.07v-15.62c0-0.64-0.51-1.15-1.15-1.15h-31.62c-0.64,0-1.15,0.51-1.15,1.15v15.62h2.3V311.6
			h29.32v14.47H173.71z"/>
		<g>
			<path class="st35" d="M210.1,393.14c0,3.52-2.93,6.39-6.52,6.39h-93.66c-3.59,0-6.52-2.88-6.52-6.39v-65.5
				c0-3.52,2.93-6.39,6.52-6.39h93.66c3.59,0,6.52,2.88,6.52,6.39V393.14z"/>
		</g>
		<path class="st36" d="M207.7,393.14v-2.08c0-0.09-0.05-0.16-0.13-0.19c-0.14-0.06-0.29,0.04-0.29,0.19c0,0.67,0.11,2.09-0.11,2.94
			c-0.07,0.27,0.34,0.36,0.4,0.11C207.66,393.8,207.69,393.46,207.7,393.14L207.7,393.14z M206.47,395.97c0.2-0.2-0.1-0.49-0.29-0.3
			c-0.49,0.47-1.06,0.77-1.71,0.94c-0.27,0.07-0.16,0.47,0.1,0.4C205.29,396.83,205.93,396.48,206.47,395.97L206.47,395.97z
			 M202.45,397.13c0.09,0,0.16-0.05,0.19-0.13c0.06-0.14-0.04-0.29-0.19-0.29h-2.08c-0.09,0-0.16,0.05-0.19,0.13
			c-0.06,0.14,0.05,0.29,0.19,0.29H202.45L202.45,397.13z M198.28,397.13c0.09,0,0.16-0.05,0.19-0.13c0.06-0.14-0.04-0.29-0.19-0.29
			h-2.08c-0.09,0-0.16,0.05-0.19,0.13c-0.06,0.14,0.05,0.29,0.19,0.29H198.28L198.28,397.13z M194.11,397.13
			c0.09,0,0.16-0.05,0.19-0.13c0.06-0.14-0.04-0.29-0.19-0.29h-2.08c-0.09,0-0.16,0.05-0.19,0.13c-0.06,0.14,0.04,0.29,0.19,0.29
			H194.11L194.11,397.13z M189.95,397.13c0.09,0,0.16-0.05,0.19-0.13c0.06-0.14-0.04-0.29-0.19-0.29h-2.08
			c-0.09,0-0.16,0.05-0.19,0.13c-0.06,0.14,0.05,0.29,0.19,0.29H189.95L189.95,397.13z M185.78,397.13c0.09,0,0.16-0.05,0.19-0.13
			c0.06-0.14-0.04-0.29-0.19-0.29h-2.08c-0.09,0-0.16,0.05-0.19,0.13c-0.06,0.14,0.05,0.29,0.19,0.29H185.78L185.78,397.13z
			 M181.62,397.13c0.09,0,0.16-0.05,0.19-0.13c0.06-0.14-0.04-0.29-0.19-0.29h-2.08c-0.09,0-0.16,0.05-0.19,0.13
			c-0.06,0.14,0.04,0.29,0.19,0.29H181.62L181.62,397.13z M177.45,397.13c0.09,0,0.16-0.05,0.19-0.13c0.06-0.14-0.04-0.29-0.19-0.29
			h-2.08c-0.09,0-0.16,0.05-0.19,0.13c-0.06,0.14,0.04,0.29,0.19,0.29H177.45L177.45,397.13z M173.29,397.13
			c0.09,0,0.16-0.05,0.19-0.13c0.06-0.14-0.04-0.29-0.19-0.29h-2.08c-0.09,0-0.16,0.05-0.19,0.13c-0.06,0.14,0.04,0.29,0.19,0.29
			H173.29L173.29,397.13z M169.12,397.13c0.09,0,0.16-0.05,0.19-0.13c0.06-0.14-0.04-0.29-0.19-0.29h-2.08
			c-0.09,0-0.16,0.05-0.19,0.13c-0.06,0.14,0.04,0.29,0.19,0.29H169.12L169.12,397.13z M164.96,397.13c0.09,0,0.16-0.05,0.19-0.13
			c0.06-0.14-0.04-0.29-0.19-0.29h-2.08c-0.09,0-0.16,0.05-0.19,0.13c-0.06,0.14,0.04,0.29,0.19,0.29H164.96L164.96,397.13z
			 M160.79,397.13c0.09,0,0.16-0.05,0.19-0.13c0.06-0.14-0.04-0.29-0.19-0.29h-2.08c-0.09,0-0.16,0.05-0.19,0.13
			c-0.06,0.14,0.04,0.29,0.19,0.29H160.79L160.79,397.13z M156.63,397.13c0.09,0,0.16-0.05,0.19-0.13c0.06-0.14-0.04-0.29-0.19-0.29
			h-2.08c-0.09,0-0.16,0.05-0.19,0.13c-0.06,0.14,0.04,0.29,0.19,0.29H156.63L156.63,397.13z M152.46,397.13
			c0.09,0,0.16-0.05,0.19-0.13c0.06-0.14-0.04-0.29-0.19-0.29h-2.08c-0.09,0-0.16,0.05-0.19,0.13c-0.06,0.14,0.04,0.29,0.19,0.29
			H152.46L152.46,397.13z M148.3,397.13c0.09,0,0.16-0.05,0.19-0.13c0.06-0.14-0.04-0.29-0.19-0.29h-2.08
			c-0.09,0-0.16,0.05-0.19,0.13c-0.06,0.14,0.04,0.29,0.19,0.29H148.3L148.3,397.13z M144.13,397.13c0.09,0,0.16-0.05,0.19-0.13
			c0.06-0.14-0.04-0.29-0.19-0.29h-2.08c-0.09,0-0.16,0.05-0.19,0.13c-0.06,0.14,0.04,0.29,0.19,0.29H144.13L144.13,397.13z
			 M139.97,397.13c0.09,0,0.16-0.05,0.19-0.13c0.06-0.14-0.04-0.29-0.19-0.29h-2.08c-0.09,0-0.16,0.05-0.19,0.13
			c-0.06,0.14,0.04,0.29,0.19,0.29H139.97L139.97,397.13z M135.8,397.13c0.09,0,0.16-0.05,0.19-0.13c0.06-0.14-0.04-0.29-0.19-0.29
			h-2.08c-0.09,0-0.16,0.05-0.19,0.13c-0.06,0.14,0.04,0.29,0.19,0.29H135.8L135.8,397.13z M131.64,397.13
			c0.09,0,0.16-0.05,0.19-0.13c0.06-0.14-0.04-0.29-0.19-0.29h-2.08c-0.09,0-0.16,0.05-0.19,0.13c-0.06,0.14,0.04,0.29,0.19,0.29
			H131.64L131.64,397.13z M127.47,397.13c0.09,0,0.16-0.05,0.19-0.13c0.06-0.14-0.04-0.29-0.19-0.29h-2.08
			c-0.09,0-0.16,0.05-0.19,0.13c-0.06,0.14,0.04,0.29,0.19,0.29H127.47L127.47,397.13z M123.31,397.13c0.09,0,0.16-0.05,0.19-0.13
			c0.06-0.14-0.04-0.29-0.19-0.29h-2.08c-0.09,0-0.16,0.05-0.19,0.13c-0.06,0.14,0.04,0.29,0.19,0.29H123.31L123.31,397.13z
			 M119.14,397.13c0.09,0,0.16-0.05,0.19-0.13c0.06-0.14-0.04-0.29-0.19-0.29h-2.08c-0.09,0-0.16,0.05-0.19,0.13
			c-0.06,0.14,0.04,0.29,0.19,0.29H119.14L119.14,397.13z M114.98,397.13c0.09,0,0.16-0.05,0.19-0.13c0.06-0.14-0.04-0.29-0.19-0.29
			h-2.08c-0.09,0-0.16,0.05-0.19,0.13c-0.06,0.14,0.04,0.29,0.19,0.29H114.98L114.98,397.13z M110.81,397.13
			c0.09,0,0.16-0.05,0.19-0.13c0.06-0.14-0.04-0.29-0.19-0.29h-0.89c-0.37,0-0.76-0.06-1.11-0.17c-0.23-0.09-0.41,0.29-0.12,0.4
			c0.38,0.13,0.83,0.19,1.23,0.19H110.81L110.81,397.13z M106.85,395.79c0.21,0.21,0.49-0.1,0.31-0.28
			c-0.43-0.46-0.77-1.1-0.88-1.73c-0.07-0.27-0.44-0.2-0.41,0.07C106.01,394.58,106.35,395.25,106.85,395.79L106.85,395.79z
			 M105.8,391.74c0,0.09,0.05,0.16,0.13,0.19c0.14,0.06,0.29-0.04,0.29-0.19v-2.08c0-0.09-0.05-0.16-0.13-0.19
			c-0.14-0.06-0.29,0.04-0.29,0.19V391.74L105.8,391.74z M105.8,387.57c0,0.09,0.05,0.16,0.13,0.19c0.14,0.06,0.29-0.04,0.29-0.19
			v-2.08c0-0.09-0.05-0.16-0.13-0.19c-0.14-0.06-0.29,0.04-0.29,0.19V387.57L105.8,387.57z M105.8,383.41
			c0,0.09,0.05,0.16,0.13,0.19c0.14,0.06,0.29-0.04,0.29-0.19v-2.08c0-0.09-0.05-0.16-0.13-0.19c-0.14-0.06-0.29,0.04-0.29,0.19
			V383.41L105.8,383.41z M105.8,379.24c0,0.09,0.05,0.16,0.13,0.19c0.14,0.06,0.29-0.04,0.29-0.19v-2.08c0-0.09-0.05-0.16-0.13-0.19
			c-0.14-0.06-0.29,0.04-0.29,0.19V379.24L105.8,379.24z M105.8,375.08c0,0.09,0.05,0.16,0.13,0.19c0.14,0.06,0.29-0.04,0.29-0.19
			V373c0-0.09-0.05-0.16-0.13-0.19c-0.14-0.06-0.29,0.04-0.29,0.19V375.08L105.8,375.08z M105.8,370.91c0,0.09,0.05,0.16,0.13,0.19
			c0.14,0.06,0.29-0.04,0.29-0.19v-2.08c0-0.09-0.05-0.16-0.13-0.19c-0.14-0.06-0.29,0.04-0.29,0.19V370.91L105.8,370.91z
			 M105.8,366.75c0,0.09,0.05,0.16,0.13,0.19c0.14,0.06,0.29-0.04,0.29-0.19v-2.08c0-0.09-0.05-0.16-0.13-0.19
			c-0.14-0.06-0.29,0.04-0.29,0.19V366.75L105.8,366.75z M105.8,362.58c0,0.09,0.05,0.16,0.13,0.19c0.14,0.06,0.29-0.04,0.29-0.19
			v-2.08c0-0.09-0.05-0.16-0.13-0.19c-0.14-0.06-0.29,0.04-0.29,0.19V362.58L105.8,362.58z M105.8,358.42
			c0,0.09,0.05,0.16,0.13,0.19c0.14,0.06,0.29-0.05,0.29-0.19v-2.08c0-0.09-0.05-0.16-0.13-0.19c-0.14-0.06-0.29,0.04-0.29,0.19
			V358.42L105.8,358.42z M105.8,354.25c0,0.09,0.05,0.16,0.13,0.19c0.14,0.06,0.29-0.05,0.29-0.19v-2.08c0-0.09-0.05-0.16-0.13-0.19
			c-0.14-0.06-0.29,0.04-0.29,0.19V354.25L105.8,354.25z M105.8,350.09c0,0.09,0.05,0.16,0.13,0.19c0.14,0.06,0.29-0.05,0.29-0.19
			V348c0-0.09-0.05-0.16-0.13-0.19c-0.14-0.06-0.29,0.04-0.29,0.19V350.09L105.8,350.09z M105.8,345.92c0,0.09,0.05,0.16,0.13,0.19
			c0.14,0.06,0.29-0.05,0.29-0.19v-2.08c0-0.09-0.05-0.16-0.13-0.19c-0.14-0.06-0.29,0.05-0.29,0.19V345.92L105.8,345.92z
			 M105.8,341.76c0,0.09,0.05,0.16,0.13,0.19c0.14,0.06,0.29-0.04,0.29-0.19v-2.08c0-0.09-0.05-0.16-0.13-0.19
			c-0.14-0.06-0.29,0.05-0.29,0.19V341.76L105.8,341.76z M105.8,337.59c0,0.09,0.05,0.16,0.13,0.19c0.14,0.06,0.29-0.04,0.29-0.19
			v-2.08c0-0.09-0.05-0.16-0.13-0.19c-0.14-0.06-0.29,0.05-0.29,0.19V337.59L105.8,337.59z M105.8,333.43
			c0,0.09,0.05,0.16,0.13,0.19c0.14,0.06,0.29-0.04,0.29-0.19v-2.08c0-0.09-0.05-0.16-0.13-0.19c-0.14-0.06-0.29,0.04-0.29,0.19
			V333.43L105.8,333.43z M105.8,329.26c0,0.09,0.05,0.16,0.13,0.19c0.14,0.06,0.29-0.05,0.29-0.19c0-0.63-0.06-1.4,0.03-2.05
			c0.03-0.27-0.38-0.32-0.41-0.05C105.75,327.83,105.8,328.61,105.8,329.26L105.8,329.26z M106.7,325.16
			c-0.18,0.25,0.18,0.46,0.32,0.27c0.44-0.54,0.95-0.87,1.59-1.13c0.26-0.1,0.11-0.49-0.14-0.39
			C107.77,324.18,107.18,324.58,106.7,325.16L106.7,325.16z M110.59,323.65c-0.09,0-0.16,0.05-0.19,0.13
			c-0.06,0.14,0.04,0.29,0.19,0.29h2.08c0.09,0,0.16-0.05,0.19-0.13c0.06-0.14-0.04-0.29-0.19-0.29H110.59L110.59,323.65z
			 M114.76,323.65c-0.09,0-0.16,0.05-0.19,0.13c-0.06,0.14,0.04,0.29,0.19,0.29h2.08c0.09,0,0.16-0.05,0.19-0.13
			c0.06-0.14-0.04-0.29-0.19-0.29H114.76L114.76,323.65z M118.92,323.65c-0.09,0-0.16,0.05-0.19,0.13
			c-0.06,0.14,0.04,0.29,0.19,0.29h2.08c0.09,0,0.16-0.05,0.19-0.13c0.06-0.14-0.04-0.29-0.19-0.29H118.92L118.92,323.65z
			 M123.09,323.65c-0.09,0-0.16,0.05-0.19,0.13c-0.06,0.14,0.04,0.29,0.19,0.29h2.08c0.09,0,0.16-0.05,0.19-0.13
			c0.06-0.14-0.04-0.29-0.19-0.29H123.09L123.09,323.65z M127.25,323.65c-0.09,0-0.16,0.05-0.19,0.13
			c-0.06,0.14,0.04,0.29,0.19,0.29h2.08c0.09,0,0.16-0.05,0.19-0.13c0.06-0.14-0.04-0.29-0.19-0.29H127.25L127.25,323.65z
			 M131.42,323.65c-0.09,0-0.16,0.05-0.19,0.13c-0.06,0.14,0.04,0.29,0.19,0.29h2.08c0.09,0,0.16-0.05,0.19-0.13
			c0.06-0.14-0.04-0.29-0.19-0.29H131.42L131.42,323.65z M135.58,323.65c-0.09,0-0.16,0.05-0.19,0.13
			c-0.06,0.14,0.04,0.29,0.19,0.29h2.08c0.09,0,0.16-0.05,0.19-0.13c0.06-0.14-0.04-0.29-0.19-0.29H135.58L135.58,323.65z
			 M139.75,323.65c-0.09,0-0.16,0.05-0.19,0.13c-0.06,0.14,0.04,0.29,0.19,0.29h2.08c0.09,0,0.16-0.05,0.19-0.13
			c0.06-0.14-0.04-0.29-0.19-0.29H139.75L139.75,323.65z M143.91,323.65c-0.09,0-0.16,0.05-0.19,0.13
			c-0.06,0.14,0.04,0.29,0.19,0.29H146c0.09,0,0.16-0.05,0.19-0.13c0.06-0.14-0.04-0.29-0.19-0.29H143.91L143.91,323.65z
			 M148.08,323.65c-0.09,0-0.16,0.05-0.19,0.13c-0.06,0.14,0.04,0.29,0.19,0.29h2.08c0.09,0,0.16-0.05,0.19-0.13
			c0.06-0.14-0.04-0.29-0.19-0.29H148.08L148.08,323.65z M152.24,323.65c-0.09,0-0.16,0.05-0.19,0.13
			c-0.06,0.14,0.04,0.29,0.19,0.29h2.08c0.09,0,0.16-0.05,0.19-0.13c0.06-0.14-0.04-0.29-0.19-0.29H152.24L152.24,323.65z
			 M156.41,323.65c-0.09,0-0.16,0.05-0.19,0.13c-0.06,0.14,0.04,0.29,0.19,0.29h2.08c0.09,0,0.16-0.05,0.19-0.13
			c0.06-0.14-0.04-0.29-0.19-0.29H156.41L156.41,323.65z M160.57,323.65c-0.09,0-0.16,0.05-0.19,0.13
			c-0.06,0.14,0.04,0.29,0.19,0.29h2.08c0.09,0,0.16-0.05,0.19-0.13c0.06-0.14-0.04-0.29-0.19-0.29H160.57L160.57,323.65z
			 M164.74,323.65c-0.09,0-0.16,0.05-0.19,0.13c-0.06,0.14,0.04,0.29,0.19,0.29h2.08c0.09,0,0.16-0.05,0.19-0.13
			c0.06-0.14-0.04-0.29-0.19-0.29H164.74L164.74,323.65z M168.9,323.65c-0.09,0-0.16,0.05-0.19,0.13c-0.06,0.14,0.04,0.29,0.19,0.29
			h2.08c0.09,0,0.16-0.05,0.19-0.13c0.06-0.14-0.04-0.29-0.19-0.29H168.9L168.9,323.65z M173.07,323.65c-0.09,0-0.16,0.05-0.19,0.13
			c-0.06,0.14,0.04,0.29,0.19,0.29h2.08c0.09,0,0.16-0.05,0.19-0.13c0.06-0.14-0.04-0.29-0.19-0.29H173.07L173.07,323.65z
			 M177.23,323.65c-0.09,0-0.16,0.05-0.19,0.13c-0.06,0.14,0.04,0.29,0.19,0.29h2.08c0.09,0,0.16-0.05,0.19-0.13
			c0.06-0.14-0.04-0.29-0.19-0.29H177.23L177.23,323.65z M181.4,323.65c-0.09,0-0.16,0.05-0.19,0.13c-0.06,0.14,0.04,0.29,0.19,0.29
			h2.08c0.09,0,0.16-0.05,0.19-0.13c0.06-0.14-0.04-0.29-0.19-0.29H181.4L181.4,323.65z M185.57,323.65c-0.09,0-0.16,0.05-0.19,0.13
			c-0.06,0.14,0.04,0.29,0.19,0.29h2.08c0.09,0,0.16-0.05,0.19-0.13c0.06-0.14-0.04-0.29-0.19-0.29H185.57L185.57,323.65z
			 M189.73,323.65c-0.09,0-0.16,0.05-0.19,0.13c-0.06,0.14,0.04,0.29,0.19,0.29h2.08c0.09,0,0.16-0.05,0.19-0.13
			c0.06-0.14-0.04-0.29-0.19-0.29H189.73L189.73,323.65z M193.9,323.65c-0.09,0-0.16,0.05-0.19,0.13c-0.06,0.14,0.04,0.29,0.19,0.29
			h2.08c0.09,0,0.16-0.05,0.19-0.13c0.06-0.14-0.04-0.29-0.19-0.29H193.9L193.9,323.65z M198.06,323.65c-0.09,0-0.16,0.05-0.19,0.13
			c-0.06,0.14,0.04,0.29,0.19,0.29h2.08c0.09,0,0.16-0.05,0.19-0.13c0.06-0.14-0.04-0.29-0.19-0.29H198.06L198.06,323.65z
			 M202.23,323.65c-0.09,0-0.16,0.05-0.19,0.13c-0.06,0.14,0.04,0.29,0.19,0.29c0.43,0,1.47-0.06,2.04,0.06
			c0.24,0.06,0.37-0.34,0.08-0.41C203.72,323.59,202.75,323.65,202.23,323.65L202.23,323.65z M206.3,324.65
			c-0.19-0.17-0.48,0.11-0.27,0.32c0.49,0.39,0.89,1.02,1.09,1.61c0.11,0.28,0.48,0.11,0.4-0.13
			C207.3,325.8,206.84,325.08,206.3,324.65L206.3,324.65z M207.7,328.58c0-0.09-0.05-0.16-0.13-0.19c-0.14-0.06-0.29,0.04-0.29,0.19
			v2.08c0,0.09,0.05,0.16,0.13,0.19c0.14,0.06,0.29-0.04,0.29-0.19V328.58L207.7,328.58z M207.7,332.75c0-0.09-0.05-0.16-0.13-0.19
			c-0.14-0.06-0.29,0.04-0.29,0.19v2.08c0,0.09,0.05,0.16,0.13,0.19c0.14,0.06,0.29-0.04,0.29-0.19V332.75L207.7,332.75z
			 M207.7,336.91c0-0.09-0.05-0.16-0.13-0.19c-0.14-0.06-0.29,0.04-0.29,0.19v2.08c0,0.09,0.05,0.16,0.13,0.19
			c0.14,0.06,0.29-0.04,0.29-0.19V336.91L207.7,336.91z M207.7,341.08c0-0.09-0.05-0.16-0.13-0.19c-0.14-0.06-0.29,0.04-0.29,0.19
			v2.08c0,0.09,0.05,0.16,0.13,0.19c0.14,0.06,0.29-0.04,0.29-0.19V341.08L207.7,341.08z M207.7,345.24c0-0.09-0.05-0.16-0.13-0.19
			c-0.14-0.06-0.29,0.04-0.29,0.19v2.08c0,0.09,0.05,0.16,0.13,0.19c0.14,0.06,0.29-0.04,0.29-0.19V345.24L207.7,345.24z
			 M207.7,349.41c0-0.09-0.05-0.16-0.13-0.19c-0.14-0.06-0.29,0.04-0.29,0.19v2.08c0,0.09,0.05,0.16,0.13,0.19
			c0.14,0.06,0.29-0.04,0.29-0.19V349.41L207.7,349.41z M207.7,353.57c0-0.09-0.05-0.16-0.13-0.19c-0.14-0.06-0.29,0.04-0.29,0.19
			v2.08c0,0.09,0.05,0.16,0.13,0.19c0.14,0.06,0.29-0.04,0.29-0.19V353.57L207.7,353.57z M207.7,357.74c0-0.09-0.05-0.16-0.13-0.19
			c-0.14-0.06-0.29,0.04-0.29,0.19v2.08c0,0.09,0.05,0.16,0.13,0.19c0.14,0.06,0.29-0.04,0.29-0.19V357.74L207.7,357.74z
			 M207.7,361.9c0-0.09-0.05-0.16-0.13-0.19c-0.14-0.06-0.29,0.04-0.29,0.19v2.08c0,0.09,0.05,0.16,0.13,0.19
			c0.14,0.06,0.29-0.04,0.29-0.19V361.9L207.7,361.9z M207.7,366.07c0-0.09-0.05-0.16-0.13-0.19c-0.14-0.06-0.29,0.04-0.29,0.19
			v2.08c0,0.09,0.05,0.16,0.13,0.19c0.14,0.06,0.29-0.04,0.29-0.19V366.07L207.7,366.07z M207.7,370.23c0-0.09-0.05-0.16-0.13-0.19
			c-0.14-0.06-0.29,0.04-0.29,0.19v2.08c0,0.09,0.05,0.16,0.13,0.19c0.14,0.06,0.29-0.04,0.29-0.19V370.23L207.7,370.23z
			 M207.7,374.4c0-0.09-0.05-0.16-0.13-0.19c-0.14-0.06-0.29,0.04-0.29,0.19v2.08c0,0.09,0.05,0.16,0.13,0.19
			c0.14,0.06,0.29-0.04,0.29-0.19V374.4L207.7,374.4z M207.7,378.56c0-0.09-0.05-0.16-0.13-0.19c-0.14-0.06-0.29,0.04-0.29,0.19
			v2.08c0,0.09,0.05,0.16,0.13,0.19c0.14,0.06,0.29-0.04,0.29-0.19V378.56L207.7,378.56z M207.7,382.73c0-0.09-0.05-0.16-0.13-0.19
			c-0.14-0.06-0.29,0.04-0.29,0.19v2.08c0,0.09,0.05,0.16,0.13,0.19c0.14,0.06,0.29-0.04,0.29-0.19V382.73L207.7,382.73z
			 M207.7,386.89c0-0.09-0.05-0.16-0.13-0.19c-0.14-0.06-0.29,0.04-0.29,0.19v2.08c0,0.09,0.05,0.16,0.13,0.19
			c0.14,0.06,0.29-0.04,0.29-0.19V386.89z"/>
		<path class="st37" d="M101.17,320.37c0.32,20.29,25.07,36.67,55.58,36.67c30.5,0,55.26-16.38,55.58-36.67H101.17z"/>
		<path class="st38" d="M161.97,366.19h-10.45c-0.71,0-1.29-0.58-1.29-1.29v-14.09c0-0.71,0.58-1.29,1.29-1.29h10.45
			c0.71,0,1.29,0.58,1.29,1.29v14.09C163.26,365.62,162.68,366.19,161.97,366.19z"/>
		<path class="st39" d="M159.82,364.37h-6.13c-0.89,0-1.62-0.73-1.62-1.62v-9.78c0-0.89,0.73-1.62,1.62-1.62h6.13
			c0.89,0,1.62,0.73,1.62,1.62v9.78C161.44,363.64,160.71,364.37,159.82,364.37z"/>
	</g>
	<g>
		<polygon class="st40" points="165.53,269.75 248.99,257.68 332.46,269.75 332.46,271.75 248.99,283.82 165.53,271.75 		"/>
		<polygon class="st11" points="165.53,271.75 248.99,259.67 332.46,271.75 248.99,283.82 		"/>
		<polygon class="st41" points="212.74,274.04 285.25,274.04 288.94,303.22 209.05,303.22 		"/>
		<path class="st41" d="M248.99,279.99c19.97,0,36.25-2.63,36.25-5.86c0-3.23-16.29-5.86-36.25-5.86c-19.97,0-36.25,2.63-36.25,5.86
			C212.73,277.36,229.02,279.99,248.99,279.99z"/>
		<path class="st42" d="M248.99,309.08c22,0,39.95-2.63,39.95-5.86c0-3.23-17.94-5.86-39.95-5.86c-22,0-39.95,2.63-39.95,5.86
			C209.05,306.45,226.99,309.08,248.99,309.08z"/>
		<path class="st43" d="M321.03,268.1v11.54v51.56c0,0.69,0.56,1.25,1.25,1.25h0c0.69,0,1.25-0.56,1.25-1.25v-63.1v-1.25
			c0-0.69-0.56-1.25-1.25-1.25h-1.25h-17.25L321.03,268.1z"/>
		<path class="st43" d="M322.19,316.48c4.36,0,7.97,19.88-0.05,27.88C314.07,336.31,317.81,316.48,322.19,316.48z"/>
		<path class="st44" d="M321.38,315.11h1.72c0.64,0,1.17,0.53,1.17,1.17v0c0,0.64-0.53,1.17-1.17,1.17h-1.72
			c-0.64,0-1.17-0.53-1.17-1.17v0C320.21,315.64,320.74,315.11,321.38,315.11z"/>
		<path class="st45" d="M283.26,278.86c-19.64,7.78-43.48,12.35-69.19,12.35c-1.17,0-2.34-0.01-3.5-0.03l-1.5,11.82
			c0.79-3.14,18.36-5.64,39.92-5.64s39.12,2.51,39.92,5.64l-3.1-24.5l-0.08-0.64C284.91,278.2,284.09,278.53,283.26,278.86z"/>
	</g>
	<g>
		<rect x="187.89" y="311.93" class="st46" width="122.16" height="87.6"/>
		<rect x="187.89" y="310.84" class="st47" width="122.16" height="87.6"/>
		<path class="st28" d="M189.43,345.45v43.61c8.66-2.1,18.82-3.31,29.69-3.31s21.04,1.21,29.69,3.31v-43.61v-39.01
			c-8.66-2.1-18.82-3.31-29.69-3.31s-21.04,1.21-29.69,3.31V345.45z"/>
		<path class="st48" d="M248.81,345.45v43.61c8.66-2.1,18.82-3.31,29.69-3.31c10.87,0,21.04,1.21,29.69,3.31v-43.61v-39.01
			c-8.66-2.1-18.82-3.31-29.69-3.31c-10.87,0-21.04,1.21-29.69,3.31V345.45z"/>
		<path class="st49" d="M189.44,391.44c8.67-2.14,18.85-3.4,29.74-3.47c10.83-0.07,20.97,1.06,29.63,3.07l-0.01-1.29
			c-8.64-2-18.75-3.11-29.54-3.05c-10.93,0.07-21.14,1.34-29.83,3.49L189.44,391.44z"/>
		<path class="st49" d="M189.44,393.48c8.67-2.14,18.85-3.4,29.74-3.47c10.83-0.07,20.97,1.06,29.63,3.07l-0.01-1.29
			c-8.64-2-18.75-3.11-29.54-3.05c-10.93,0.07-21.14,1.34-29.83,3.49L189.44,393.48z"/>
		<path class="st49" d="M189.44,395.52c8.67-2.14,18.85-3.4,29.74-3.47c10.83-0.07,20.97,1.06,29.63,3.07l-0.01-1.29
			c-8.64-2-18.75-3.11-29.54-3.05c-10.93,0.07-21.14,1.34-29.83,3.49L189.44,395.52z"/>
		<path class="st50" d="M308.18,391.44c-8.67-2.14-18.85-3.4-29.74-3.47c-10.83-0.07-20.97,1.06-29.63,3.07l0.01-1.29
			c8.64-2,18.75-3.11,29.54-3.05c10.93,0.07,21.14,1.34,29.83,3.49L308.18,391.44z"/>
		<path class="st50" d="M308.18,393.48c-8.67-2.14-18.85-3.4-29.74-3.47c-10.83-0.07-20.97,1.06-29.63,3.07l0.01-1.29
			c8.64-2,18.75-3.11,29.54-3.05c10.93,0.07,21.14,1.34,29.83,3.49L308.18,393.48z"/>
		<path class="st50" d="M308.18,395.52c-8.67-2.14-18.85-3.4-29.74-3.47c-10.83-0.07-20.97,1.06-29.63,3.07l0.01-1.29
			c8.64-2,18.75-3.11,29.54-3.05c10.93,0.07,21.14,1.34,29.83,3.49L308.18,395.52z"/>
		<path class="st51" d="M303,323.89c-7.15-1.77-15.55-2.81-24.54-2.86c-8.94-0.06-17.31,0.87-24.46,2.53l0.01-1.06
			c7.13-1.65,15.47-2.57,24.38-2.51c9.02,0.06,17.45,1.11,24.62,2.88L303,323.89z"/>
		<path class="st51" d="M303,332.28c-7.15-1.77-15.55-2.81-24.54-2.86c-8.94-0.06-17.31,0.87-24.46,2.53l0.01-1.06
			c7.13-1.65,15.47-2.57,24.38-2.51c9.02,0.06,17.45,1.11,24.62,2.88L303,332.28z"/>
		<path class="st51" d="M303,342.03c-7.15-1.77-15.55-2.81-24.54-2.86c-8.94-0.06-17.31,0.87-24.46,2.53l0.01-1.06
			c7.13-1.65,15.47-2.57,24.38-2.51c9.02,0.06,17.45,1.11,24.62,2.88L303,342.03z"/>
		<path class="st51" d="M303,351.46c-7.15-1.77-15.55-2.81-24.54-2.86c-8.94-0.06-17.31,0.87-24.46,2.53l0.01-1.06
			c7.13-1.65,15.47-2.57,24.38-2.51c9.02,0.06,17.45,1.11,24.62,2.88L303,351.46z"/>
		<path class="st51" d="M303,359.84c-7.15-1.77-15.55-2.81-24.54-2.86c-8.94-0.06-17.31,0.87-24.46,2.53l0.01-1.06
			c7.13-1.65,15.47-2.57,24.38-2.51c9.02,0.06,17.45,1.11,24.62,2.88L303,359.84z"/>
		<path class="st51" d="M303,369.6c-7.15-1.77-15.55-2.81-24.54-2.86c-8.94-0.06-17.31,0.87-24.46,2.53l0.01-1.06
			c7.13-1.65,15.47-2.57,24.38-2.51c9.02,0.06,17.45,1.11,24.62,2.88L303,369.6z"/>
		<path class="st52" d="M244.72,323.4c-7.15-1.77-15.55-2.81-24.54-2.86c-8.94-0.06-17.31,0.87-24.46,2.53l0.01-1.06
			c7.13-1.65,15.47-2.57,24.38-2.51c9.02,0.06,17.45,1.11,24.62,2.88L244.72,323.4z"/>
		<path class="st52" d="M244.72,331.78c-7.15-1.77-15.55-2.81-24.54-2.86c-8.94-0.06-17.31,0.87-24.46,2.53l0.01-1.06
			c7.13-1.65,15.47-2.57,24.38-2.51c9.02,0.06,17.45,1.11,24.62,2.88L244.72,331.78z"/>
		<path class="st52" d="M244.72,341.54c-7.15-1.77-15.55-2.81-24.54-2.87c-8.94-0.06-17.31,0.87-24.46,2.53l0.01-1.06
			c7.13-1.65,15.47-2.57,24.38-2.51c9.02,0.06,17.45,1.11,24.62,2.88L244.72,341.54z"/>
		<path class="st52" d="M244.72,350.96c-7.15-1.77-15.55-2.81-24.54-2.86c-8.94-0.06-17.31,0.87-24.46,2.53l0.01-1.06
			c7.13-1.65,15.47-2.57,24.38-2.51c9.02,0.06,17.45,1.11,24.62,2.88L244.72,350.96z"/>
		<path class="st52" d="M244.72,359.35c-7.15-1.77-15.55-2.81-24.54-2.86c-8.94-0.06-17.31,0.87-24.46,2.53l0.01-1.06
			c7.13-1.65,15.47-2.57,24.38-2.51c9.02,0.06,17.45,1.11,24.62,2.88L244.72,359.35z"/>
		<path class="st52" d="M244.72,369.1c-7.15-1.77-15.55-2.81-24.54-2.86c-8.94-0.06-17.31,0.87-24.46,2.53l0.01-1.06
			c7.13-1.65,15.47-2.57,24.38-2.51c9.02,0.06,17.45,1.11,24.62,2.88L244.72,369.1z"/>
	</g>
	<g>
		<g>
			<path class="st53" d="M314.03,300.36c-1.38,2.14-3.27,5.88-5.11,10.25c-0.02,0.05-0.05,0.11-0.07,0.16l3.12,1.31
				c0.02-0.05,0.05-0.11,0.07-0.16c1.84-4.36,3.2-8.32,3.77-10.81L314.03,300.36z"/>
		</g>
		<path class="st54" d="M311.9,304.49l2.43,1.03c1.34,0.56,2,2.06,1.47,3.32l-0.05,0.12c-0.53,1.26-2.06,1.83-3.4,1.27l-2.43-1.03
			c-1.34-0.56-2-2.06-1.47-3.32l0.05-0.12C309.03,304.5,310.56,303.93,311.9,304.49z"/>
		<path class="st55" d="M308.5,305.76c-4.22,5.51-9.61,15.38-14.52,27.05c-0.06,0.15-0.12,0.29-0.18,0.44l6.29,2.64h0l6.28,2.66
			c0.06-0.15,0.12-0.29,0.19-0.44c4.93-11.66,8.23-22.41,9.24-29.27l-3.65-1.54h0L308.5,305.76z"/>
		<path class="st56" d="M306.58,307.93c-0.54,0.78-1.09,1.63-1.65,2.52l5.01,2.06l0,0l4.71,2c0.25-1.03,0.47-2.01,0.66-2.94
			l-4.22-1.79h0L306.58,307.93z"/>
		<path class="st54" d="M300.09,335.89L300.09,335.89l-6.29-2.64c-0.11,0.27-0.23,0.54-0.35,0.82
			c-9.22,21.92-16.29,41.72-19.57,54.03l3.56,1.49h0l3.55,1.5c6.53-10.93,15.77-29.82,25.04-51.72c0.12-0.28,0.23-0.55,0.35-0.82
			L300.09,335.89z"/>
		<path class="st53" d="M276.84,395.54c0.74-1.74-0.14-3.05-0.54-3.22l-0.01,0l-0.01,0c-0.4-0.17-1.95,0.12-2.69,1.86
			c-0.73,1.74-0.36,4.28,0.03,4.45h0l0,0C274.03,398.79,276.1,397.28,276.84,395.54z"/>
		<path class="st55" d="M280.99,391.09c-1.45,2.82-3.5,4.84-4.83,6.06c-1.08-0.46-2.16-0.91-3.24-1.37c-0.05-1.8,0-4.67,1.01-7.67
			C276.29,389.1,278.64,390.09,280.99,391.09z"/>
		<path class="st56" d="M311.95,310.16c4.87,2.05,5.79,1.82,5.63,5.6l-6.79-2.86L311.95,310.16z"/>
		<path class="st56" d="M315.53,313.5c0.6,3.36-2.49,16.48-5.96,20.6c-1.8,2.14-2.45,4.11-2.09,4.47c0.36,0.36,2.94-1.97,3.46-2.54
			c1.86-2.01,7.14-16.31,6.62-21.83L315.53,313.5z"/>
		<path class="st57" d="M305.21,310.57c-3.54,5.66-7.52,13.43-11.22,22.24c-0.06,0.15-0.12,0.29-0.18,0.44l6.29,2.64l9.86-23.37
			L305.21,310.57z"/>
		<path class="st58" d="M300.09,335.89l-6.29-2.64l0,0c-0.11,0.27-0.23,0.54-0.35,0.82c-9.22,21.92-16.29,41.72-19.57,54.03
			l0.04,0.02c0.2,0.08,0.4,0.17,0.6,0.25l2.92,1.23L300.09,335.89z"/>
		<path class="st57" d="M274.53,388.36l-0.6-0.25c-1,3.01-1.06,5.87-1.01,7.67c0.09,0.04,0.19,0.08,0.28,0.12
			c0.45,0.19,0.89,0.37,1.34,0.56l1.75-4.14l1.15-2.74C276.47,389.18,275.5,388.77,274.53,388.36z"/>
		<path class="st57" d="M306.86,308.05l2.69,1.11l1.55,0.64l0.04-0.08l1.02-2.41l-1.48-0.62l-2.17-0.91
			C307.97,306.45,307.42,307.22,306.86,308.05z"/>
		<path class="st58" d="M308.5,305.76l2.17,0.91l1.48,0.62l0.96-2.29l-1.22-0.51c-0.05-0.02-0.1-0.04-0.15-0.06
			C310.45,303.97,309.02,304.54,308.5,305.76z"/>
	</g>
	<g>
		<polygon class="st59" points="295.53,399.53 300.88,394.96 306.23,390.39 307.74,387.93 300.42,383.26 298.84,385.85 
			297.17,392.68 		"/>
		<polygon class="st23" points="297.66,397.69 296.19,396.78 295.53,399.53 		"/>
		<path class="st60" d="M364.88,286.57l0.16,0.09c1.99,1.22,2.61,3.86,1.39,5.84l-60.2,97.89l-0.03-0.02
			c0.25-0.63-0.01-1.35-0.62-1.74c-0.6-0.36-1.35-0.26-1.82,0.24c0.3-0.64,0.05-1.42-0.59-1.82c-0.61-0.39-1.42-0.24-1.88,0.31
			c0.3-0.64,0.07-1.45-0.56-1.83c-0.64-0.4-1.45-0.26-1.91,0.29l60.21-97.87C360.25,285.95,362.89,285.32,364.88,286.57z"/>
		
			<rect x="359.23" y="288.52" transform="matrix(0.5232 -0.8522 0.8522 0.5232 -77.4026 447.3657)" class="st61" width="3.76" height="8.67"/>
		<path class="st62" d="M305.58,388.64c0.61,0.39,0.87,1.11,0.62,1.74l0.03,0.02l57.59-93.67l-2.46-1.51l-56.06,91.17l-1.53,2.5
			C304.24,388.38,304.98,388.28,305.58,388.64z"/>
		<path class="st62" d="M300.65,385.61c0.61,0.39,0.84,1.12,0.62,1.74l0.03,0.02l57.59-93.67l-2.46-1.51l-56.06,91.17l-1.53,2.5
			C299.28,385.36,300.05,385.25,300.65,385.61z"/>
	</g>
	<path class="st40" d="M410.09,364.92l-1.08,3.05l-0.46,2.97c0,0,3.87,2.33,6.15,3.05c2.29,0.72,4.16-0.32,3.58-0.93
		c-0.59-0.61-5.65-4.19-5.65-4.19L410.09,364.92z"/>
	<path class="st63" d="M383.67,330.07c1.25,0,15,0.77,15,0.77s17.59,1.35,19.9,3.85c2.31,2.5-5.96,34.41-5.96,34.41l-3.85-0.96
		l1.24-26.28c-4.05-0.19-28.59,2.98-28.73-0.68C381.23,340.22,383.67,330.07,383.67,330.07z"/>
	<path class="st64" d="M392.86,293.94c-11.65,5.54-15.73,34.7-11.59,47.23l13.35-10.55c-2.98-13.98,4.46-23.14,2.96-30.13
		C396.67,296.3,393.73,293.98,392.86,293.94z"/>
	<path class="st9" d="M403.71,295.47c-2.79,2.84-4.85,2.84-6.39,0.14c-1.32-2.3-1.58-5-1.26-7.47c-0.74-0.25-1.23-1.16-1.14-2.25
		c0.11-1.28,0.99-2.32,1.96-2.32c0.22,0,0.42,0.05,0.6,0.14c0.6-1.04,1.32-1.91,2.04-2.87c1.35-1.78,7.51-0.19,8.9,2.41
		C410.16,286.51,405.7,293.45,403.71,295.47z"/>
	<path class="st11" d="M400.68,282.85c-0.36,0.07-2.19,3.8-2.57,3.56c-0.38-0.24-0.63-2.69-0.63-2.69s0-0.14-0.6-0.14
		c-0.6-0.01-1.02,0.4-1.02,0.4s0.5-4.28,1.18-4.86c0.67-0.58,2.67-0.53,2.67-0.53s0.62-0.67,1.99-1.01
		c1.37-0.34,3.77,1.03,7.11,2.67c3.31,1.62,4.17,4.97,0,5.22C404.95,285.7,400.68,282.85,400.68,282.85z"/>
	
		<rect x="406.63" y="322.34" transform="matrix(0.1091 -0.994 0.994 0.1091 33.2286 699.9267)" class="st65" width="0.96" height="18.17"/>
	<polygon class="st66" points="425.09,316.52 425.02,315.14 421.99,315.54 416.33,332.11 418.6,332.73 419.77,332.56 	"/>
	
		<rect x="409.3" y="322.63" transform="matrix(0.1091 -0.994 0.994 0.1091 35.3277 702.8551)" class="st67" width="0.96" height="18.17"/>
	
		<rect x="413.31" y="323.37" transform="matrix(0.3389 -0.9408 0.9408 0.3389 -25.4252 611.517)" class="st40" width="18.17" height="0.96"/>
	<path class="st9" d="M404.84,328.21c0.38-0.01,1.64,0.04,1.98,0.02c0.33-0.02,3.39-0.17,3.77-0.05c0.2,0.06,1.22,0.65,2.12,1.38
		c0.49,0.4,1.53,1.62,1.66,1.73c0.25,0.23-0.5,0.43-0.86,0.26c-0.42-0.2-1.31-1.31-1.31-1.31c-0.17-0.06-0.33-0.11-0.48-0.17
		c0.11,0.14,0.19,0.26,0.21,0.33c0.11,0.27,0.13,0.97-0.01,1.01c-0.14,0.04-0.36,0.11-0.76-0.08c-0.22-0.11-0.58-0.51-0.84-0.87
		c-0.63,0.77-2.87,0.82-3.72,0.58c-0.86-0.25-1.37-0.79-1.37-0.79L404.84,328.21z"/>
	<path class="st68" d="M387.9,316.83l18.91,11.4l-1.59,2.02L382.88,320c-2.64-1.21,3.07-19.27,4.38-22.51
		c1.08-2.68,3.88-3.27,5.59-2.57C397.14,296.65,388.21,315.02,387.9,316.83z"/>
	<g>
		<path class="st9" d="M150.16,287.06c-0.06-0.03-0.62-3.66-0.27-4.32c0.35-0.66,1.81-2,1.83-1.49c0.03,0.51-0.6,1.59-0.6,1.59
			l0.11,0.9c0,0,1.68-3.36,2.21-3.83c0.53-0.47,0.84-0.25,0.84-0.25s0.58-0.74,0.92-0.59s0.3,0.59,0.28,0.72
			c-0.02,0.14-0.03,0.18-0.03,0.18s0.17-0.06,0.33,0.23c0.16,0.29,0.1,0.72,0.1,0.72s0.24,0.04,0.29,0.43
			c0.05,0.39-0.03,0.59-0.05,0.65c-0.02,0.07-1.19,2.61-1.21,2.73c-0.03,0.13,0,0.67-0.54,1.56c-0.55,0.89-2.02,1.94-2.02,1.94
			C150.06,287.7,150.22,287.08,150.16,287.06z"/>
		<path class="st69" d="M133.22,287.06c0.49,0.21,10.92,11.37,11.21,11.45c0.29,0.08,5.4-11.54,5.73-11.45
			c0.33,0.08,2.51,0.87,2.51,0.87s-5.47,15.27-6.17,16.26c-0.7,0.99-11.27-5.6-14.27-9.52c-3.01-3.91-2.98-6.85-1.9-7.66
			C131.42,286.18,133.22,287.06,133.22,287.06z"/>
		<path class="st9" d="M156.2,298.51c0.45,0.12,0.98,0.23,1.41,0.23c0.95,0,1.85-0.45,1.57,0.08c-0.16,0.3-1.39,0.85-2.6,1.38
			L156.2,298.51z"/>
		<path class="st70" d="M156.32,299.07c0,0,7.97-0.37,9.69,6.62l10.67-12.75c0,0-4.54-5.88-10.18-4.29L156.32,299.07z"/>
		<path class="st71" d="M131.77,316.33c-1.56,1.02-4.12,2.01-6.15,10.17c-2.03,8.16,1.28,31.08,1.28,31.08s-2.83,9.18-4.01,16.84
			c-1.17,7.67-2.56,18.02-2.56,18.02l3.64,1.08l10.28-34.03c3.63-12.01,3.44-39.84,2.28-40.49L131.77,316.33z"/>
		<path class="st72" d="M131.4,392.83l-0.94,1.56l-0.36,1.68c0,0,1.76,2.47,3.56,2.29c1.8-0.18,2.12-1.25,2.12-1.25l-1.6-2.26
			L131.4,392.83z"/>
		<path class="st31" d="M130.1,396.07c-0.53,0.11-0.93,2.83-0.41,3.41c0.93,0,1.87,0,2.8,0c0.18,0,0.37,0,0.55,0
			c1.61,0,5.45,0.09,6.68,0c1.24-0.09,3.16-0.99,1.08-1.48c-2.07-0.49-5.81-2.02-5.81-2.02
			C134.51,397.94,131.03,396.95,130.1,396.07z"/>
		<path class="st73" d="M125.7,315.33c-1.32,1.32-3.63,2.8-3.96,11.21c-0.33,8.41,7.58,30.16,7.58,30.16s-0.91,9.56-0.49,17.31
			c0.41,7.75,1.44,20.98,1.44,20.98l4.07,0.09l2.57-38c0,0,1.48-18.3,1.65-25.55c0.16-7.25-2.72-15.08-2.72-15.08L125.7,315.33z"/>
		<path class="st11" d="M122.66,269.87c-0.15,0.65,0.7,3.38,1.42,4.94c0.72,1.56,2.72,2.4,2.71,2.17c-0.02-0.23-0.57-5.79-0.57-5.79
			L122.66,269.87z"/>
		<path class="st13" d="M130.58,276.59c0,0,0.75,0.77,1.54,4.08c0.5,2.1,1.57,4.07,3.35,5.56c0,0,0.42,3.13-8.78-1.76l-0.17-9.56
			L130.58,276.59z"/>
		<path class="st9" d="M136.58,277.14c-0.64,3.83-2.3,4.99-5.03,3.69c-2.34-1.11-4.06-3.12-5.19-5.27
			c-0.74,0.21-1.64-0.24-2.17-1.16c-0.63-1.09-0.51-2.41,0.27-2.95c0.17-0.12,0.36-0.19,0.56-0.22c-0.1-1.17-0.01-2.27,0.03-3.44
			c0.08-2.18,5.9-4.35,8.47-3.05C136.72,266.36,137.04,274.41,136.58,277.14z"/>
		<path class="st74" d="M127.09,268.74c-0.25,0.26,0.38,4.26-0.07,4.28c-0.44,0.02-2.01-1.8-2.01-1.8s-0.08-0.11-0.56,0.22
			c-0.48,0.33-0.59,0.89-0.59,0.89s-1.99-3.71-1.78-4.54c0.22-0.84,1.84-1.92,1.84-1.92s0.12-0.89,1.03-1.92
			c0.91-1.04,3.6-1.28,7.18-1.85c3.55-0.56,6.12,1.64,2.92,4.18C132.11,268.63,127.09,268.74,127.09,268.74z"/>
		<path class="st75" d="M129.68,282.86c2.35,0.74,2.19,3.26,5.76,3.33c0,0,4,5.78,4.99,7.8c1.69,3.44-1.66,5.62-2.05,7.77
			c-0.39,2.15-0.54,22.06,0.06,23.29c0.59,1.23-17.3-1.83-16.09-4.16c1.21-2.32,2.03-11.88,2.42-20.12
			c0.4-8.25-0.71-11.37-0.25-14.42C124.97,283.3,126.82,281.96,129.68,282.86z"/>
		<path class="st74" d="M129.09,265.76c-0.53,0.62-1.45,2.65-0.16,7.79c1.3,5.14,0.22,8.67-2.61,11.78
			c-2.83,3.11-0.89,13.11-1.49,10.89c-0.6-2.22-5.45-5.78-3.83-11.23c1.62-5.45,2.45-8.21,1.65-9.52c-0.8-1.31-2.33-5.29-1.28-7.53
			c1.04-2.24,2.16-2.33,2.23-2.71c0.08-0.37,0.89-1.74,2.28-2.42c1.39-0.68,6.36-2.16,8.23-1.05c1.87,1.11,2.1,2.26,0.4,3.75
			C132.81,267.04,129.09,265.76,129.09,265.76z"/>
		<path class="st72" d="M120.48,392.13l-0.77,1.54c0,0,1.08,2.83,2.87,3.11c1.79,0.28,2.37-0.68,2.37-0.68l-0.98-2.59L120.48,392.13
			z"/>
		<path class="st31" d="M119.7,393.67c-0.54-0.03-1.61,2.51-1.26,3.19c0.9,0.23,1.81,0.47,2.71,0.7c0.18,0.05,0.35,0.09,0.53,0.14
			c1.56,0.4,5.25,1.45,6.46,1.68c1.23,0.23,3.3-0.16,1.42-1.16c-1.88-1-5.12-3.41-5.12-3.41
			C123.51,396.59,120.39,394.75,119.7,393.67z"/>
		<path class="st76" d="M131.93,287c0,0-1.7-3.57-4.49-1.77c-2.8,1.81,7.11,24.99,8.86,25.01c1.76,0.02,18.13-8.57,18.13-8.57
			l-1.15-2.31c0,0-15.66,6.02-15.82,5.11C137.29,303.56,131.93,287,131.93,287z"/>
		<path class="st70" d="M156.32,299.07c0,0-6.24-4.61-8.79-3.48l10.34-10.06c0,0,5.64-1.35,8.63,3.11L156.32,299.07z"/>
		<path class="st77" d="M166.5,288.64c0,0,5.63-2.89,9.01,1.92l-9.01,9.95c0,0-5.78-3.8-9.86-1.78L166.5,288.64z"/>
		<path class="st78" d="M166.5,288.64c0,0,4.07-3.35,7.25-1.98l-8.58,9.3c0,0-4.45-0.94-8.52,2.78L166.5,288.64z"/>
		<path class="st79" d="M156.65,298.74c0,0-3.34-3.91-6.89-4.13l9.66-9.55c0,0,4.97-1.04,7.08,3.59L156.65,298.74z"/>
		<path class="st80" d="M155.97,290.12l0-0.24c0.01,0,0.02,0,0.04,0c3.15,0,4.71,2.55,4.73,2.58l-0.21,0.12
			c-0.02-0.02-1.51-2.46-4.52-2.46C156,290.12,155.98,290.12,155.97,290.12z"/>
		<path class="st80" d="M154.87,291.38l0-0.24c0.01,0,0.02,0,0.04,0c3.15,0,4.71,2.55,4.73,2.58l-0.21,0.12
			c-0.02-0.02-1.51-2.46-4.52-2.46C154.89,291.38,154.88,291.38,154.87,291.38z"/>
		<path class="st80" d="M158.41,294.98l-0.21,0.12c-0.01-0.02-1.51-2.46-4.52-2.46c-0.01,0-0.02,0-0.03,0l0-0.24
			C156.81,292.38,158.39,294.95,158.41,294.98z"/>
		<path class="st9" d="M153.28,299.36c0.33-1.75,1.97-4.96,2.1-4.16c0.16,0.99,0.03,2.63-0.01,2.91s0.19,0.57,1.32,0.96l-0.13,1.14
			c-0.98,0.43-1.66,0.81-2.27,1.2C154.29,301.41,153.25,299.53,153.28,299.36z"/>
	</g>
</g>
</svg>
